<svg xmlns="http://www.w3.org/2000/svg" xmlns:xlink="http://www.w3.org/1999/xlink" width="256" height="136" viewBox="0 0 256 136">
    <defs>
        <filter id="r487tajx1b" width="118.5%" height="116.7%" x="-9.3%" y="-6.7%" filterUnits="objectBoundingBox">
            <feOffset dy="2" in="SourceAlpha" result="shadowOffsetOuter1"/>
            <feGaussianBlur in="shadowOffsetOuter1" result="shadowBlurOuter1" stdDeviation="3"/>
            <feComposite in="shadowBlurOuter1" in2="SourceAlpha" operator="out" result="shadowBlurOuter1"/>
            <feColorMatrix in="shadowBlurOuter1" values="0 0 0 0 0.708163496 0 0 0 0 0.708163496 0 0 0 0 0.708163496 0 0 0 0.15 0"/>
        </filter>
        <filter id="s4czsmreod" width="118.5%" height="116.7%" x="-9.3%" y="-6.7%" filterUnits="objectBoundingBox">
            <feOffset dy="2" in="SourceAlpha" result="shadowOffsetOuter1"/>
            <feMorphology in="SourceAlpha" radius="1" result="shadowInner"/>
            <feOffset dy="2" in="shadowInner" result="shadowInner"/>
            <feComposite in="shadowOffsetOuter1" in2="shadowInner" operator="out" result="shadowOffsetOuter1"/>
            <feGaussianBlur in="shadowOffsetOuter1" result="shadowBlurOuter1" stdDeviation="3"/>
            <feColorMatrix in="shadowBlurOuter1" values="0 0 0 0 0.708163496 0 0 0 0 0.708163496 0 0 0 0 0.708163496 0 0 0 0.15 0"/>
        </filter>
        <filter id="z258hbz79f" width="129.6%" height="133.1%" x="-14.8%" y="-11.6%" filterUnits="objectBoundingBox">
            <feMorphology in="SourceAlpha" operator="dilate" radius="1.5" result="shadowSpreadOuter1"/>
            <feOffset in="shadowSpreadOuter1" result="shadowOffsetOuter1"/>
            <feColorMatrix in="shadowOffsetOuter1" values="0 0 0 0 1 0 0 0 0 1 0 0 0 0 1 0 0 0 1 0"/>
        </filter>
        <rect id="buxx78dida" width="108" height="120" x="0" y="0" rx="3.2"/>
        <rect id="wnqq6me3ie" width="108" height="120" x="0" y="0" rx="3.2"/>
        <path id="6f0r4y109g" d="M15.2 0c8.381 0 15.2 6.814 15.2 15.19 0 2.519-.606 4.92-1.801 7.139-1.133 2.101-2.777 3.953-4.757 5.356-3.82 2.708-4.774 3.449-6.174 6.121-.781 1.49-1.932 3.835-2.468 4.932-.536-1.097-1.687-3.442-2.468-4.932-1.401-2.673-2.356-3.414-6.175-6.121-1.979-1.403-3.623-3.255-4.756-5.356C.606 20.11 0 17.709 0 15.189 0 6.814 6.819 0 15.2 0zm0 3.681c-6.35 0-11.516 5.163-11.516 11.508 0 6.346 5.166 11.508 11.516 11.508s11.516-5.162 11.516-11.508c0-6.345-5.166-11.508-11.516-11.508zm.011 7.719c2.1 0 3.803 1.701 3.803 3.8 0 2.099-1.703 3.8-3.803 3.8-2.1 0-3.803-1.701-3.803-3.8 0-2.099 1.703-3.8 3.803-3.8z"/>
    </defs>
    <g fill="none" fill-rule="evenodd">
        <g>
            <g transform="translate(-592 -1685) translate(592 1685)">
                <g transform="translate(138.4 8)">
                    <mask id="z14kwsu4lc" fill="#fff">
                        <use xlink:href="#buxx78dida"/>
                    </mask>
                    <g>
                        <use fill="#000" filter="url(#r487tajx1b)" xlink:href="#buxx78dida"/>
                        <rect width="107.232" height="119.232" x=".384" y=".384" fill="#FFF" stroke="#EEE" stroke-linejoin="square" stroke-width=".768" rx="3.2"/>
                    </g>
                    <path fill="#D1D8DC" d="M10.677 11.63c-.858.97-1.084 2.625-1.077 7.895l.009 6.667 9.123 8.904C23.749 39.994 28.009 44 28.196 44c.188 0 4.904-2.731 10.482-6.069l10.14-6.068.413-6.196c.227-3.407.582-8.236.79-10.731L50.4 10.4H31.08c-17.881 0-19.398.091-20.403 1.23m43.981 8.165c-.265 5.167-.338 9.536-.161 9.708.176.172 6.167.11 13.312-.138l12.991-.45-.026-1.673c-.014-.92-.548-5.006-1.187-9.082l-1.161-7.409-11.643-.176-11.642-.175-.483 9.395M83.2 10.893c.003.271.598 4.304 1.322 8.963.724 4.658 1.315 8.577 1.315 8.707 0 .13 2.827.237 6.282.237H98.4v-8.112c0-10.344.048-10.288-8.813-10.288-3.517 0-6.391.221-6.387.493M9.6 52.925V73.05l1.473.3c.81.165 4.05.468 7.2.675L24 74.4l-.012-13.999-.012-14-7.188-6.8L9.6 32.8v20.125M92.533 34.1l-5.333.376 3.392 22.619 3.393 22.62 2.393-.19c2.164-.172 2.42-.013 2.686 1.663.162 1.019.182.087.044-2.07-.138-2.158-.25-13.31-.25-24.782s-.224-20.802-.497-20.735c-.272.069-2.895.293-5.828.5m-18.386.654c-3.144.251-3.15.257-2.787 2.383.2 1.173 1.108 7.088 2.015 13.145.907 6.057 1.762 11.337 1.9 11.733.178.515 1.817.513 5.747-.005 5.294-.697 5.493-.786 5.35-2.388-.082-.915-.897-6.705-1.812-12.867-.914-6.162-1.663-11.493-1.663-11.847 0-.628-2.292-.668-8.75-.154m-19.67.872c-.439.731-1.662 21.137-1.67 27.866l-.007 4.976 2.848 2.877c3.312 3.346 2.911 3.471 9.879-3.09l4.073-3.837-2.154-14.499-2.155-14.498-5.23-.19c-2.877-.106-5.39.072-5.584.395m-14.325 6.328c-4.154 2.48-7.816 4.61-8.137 4.734-.534.207 13.497 14.483 14.656 14.911.461.17 1.681-23.634 1.23-23.996-.107-.086-3.594 1.871-7.749 4.351M28.934 63.12c.205 6.116.56 11.309.79 11.54.23.232 4.256.628 8.947.881L47.2 76v-6.427l-8.872-8.786C33.448 55.954 29.255 52 29.008 52c-.245 0-.279 5.003-.074 11.12m50.165 4.115c-5.195.724-5.315.785-10.976 5.548-3.148 2.648-5.723 4.944-5.723 5.103 0 .159 5.99 6.28 13.312 13.601L89.025 104.8l1.887-1.82 1.888-1.82-2.705-17.212c-1.488-9.466-2.705-17.3-2.705-17.41 0-.315-2.613-.095-8.291.697m-26.93 17.419c.233 5.2.426 11.32.427 13.6l.003 4.146 5.065-.022 5.066-.022 4.235-3.885 4.235-3.884-9.043-9.693c-4.974-5.332-9.352-9.694-9.73-9.694-.465 0-.548 3.025-.259 9.454M10.4 93.205c0 10.632.219 15.029.777 15.6.5.511 3.068.795 7.2.795H24.8l-.26-14.873c-.144-8.181-.397-14.998-.564-15.15-.166-.151-3.288-.478-6.939-.726L10.4 78.4v14.805M28.8 94.4v15.2h17.6V80.73l-2.77-.353c-1.524-.194-5.484-.538-8.8-.765L28.8 79.2v15.2m67.307-9.681c-1.858.636-1.925.806-1.476 3.707 1.373 8.874 2.137 12.118 2.912 12.36.65.203.857-1.798.857-8.285 0-4.704-.079-8.529-.174-8.501-.095.028-1.05.352-2.12.719m-25.372 16.94c-3.253 3.092-4.277 4.521-4.302 6L66.4 109.6h20l-1.58-1.941C81.409 103.469 75.97 97.6 75.5 97.6c-.273 0-2.417 1.827-4.766 4.059m22.133 5.655l-1.667 2.053 2.381.203c1.559.133 2.819-.179 3.647-.905 1.719-1.504 1.601-1.957-.714-2.737-1.805-.61-2.126-.488-3.647 1.386M52 108.4c0 .943.94 1.2 4.4 1.2 3.46 0 4.4-.257 4.4-1.2s-.94-1.2-4.4-1.2c-3.46 0-4.4.257-4.4 1.2" mask="url(#z14kwsu4lc)" opacity=".6"/>
                    <g mask="url(#z14kwsu4lc)">
                        <use fill="#000" filter="url(#s4czsmreod)" xlink:href="#wnqq6me3ie"/>
                        <rect width="107.232" height="119.232" x=".384" y=".384" stroke="#EEE" stroke-linejoin="square" stroke-width=".768" rx="3.2"/>
                    </g>
                </g>
                <rect width="53" height="6" x="13.6" y="55.2" fill="#EEF1F3" rx="1.6"/>
                <rect width="32" height="6" x="13.6" y="78.4" fill="#EEF1F3" rx="1.6"/>
                <rect width="104" height="6" x="13.6" y="90.4" fill="#EEF1F3" rx="1.6"/>
                <rect width="104" height="6" x="13.6" y="101.6" fill="#EEF1F3" rx="1.6"/>
                <rect width="64" height="6" x="13.6" y="112.8" fill="#EEF1F3" rx="1.6"/>
                <path fill="#EEF1F3" fill-rule="nonzero" d="M36.207 24.8c1.275 1.308 3.05 2.124 5.012 2.124.403 0 .795-.042 1.181-.108V42.19c0 .555-.452 1.009-1.004 1.009H34.61V33.137h-6.82V43.2h-6.786c-.552 0-1.004-.453-1.004-1.008V26.818c.38.064.77.106 1.167.106 1.963 0 3.738-.816 5.013-2.124 1.276 1.308 3.05 2.124 5.013 2.124s3.738-.816 5.014-2.124zm9.518-8.8c.37 0 .675.296.675.658v3.325h-.034c-.06 2.669-2.298 4.817-5.054 4.817-2.755 0-4.992-2.148-5.053-4.817h-.012c-.06 2.669-2.298 4.817-5.054 4.817-2.755 0-4.993-2.148-5.054-4.817h-.01c-.062 2.669-2.3 4.817-5.055 4.817-2.756 0-4.993-2.148-5.054-4.817H16v-3.325c0-.362.304-.658.675-.658z"/>
                <g>
                    <path fill="#FFF" d="M15.2 3.681c-6.35 0-11.516 5.163-11.516 11.508 0 6.346 5.166 11.508 11.516 11.508s11.516-5.162 11.516-11.508c0-6.345-5.166-11.508-11.516-11.508" transform="translate(177.6 39.2)"/>
                    <g transform="translate(177.6 39.2)">
                        <use fill="#000" filter="url(#z258hbz79f)" xlink:href="#6f0r4y109g"/>
                        <use fill="#E5004E" xlink:href="#6f0r4y109g"/>
                    </g>
                </g>
            </g>
        </g>
    </g>
</svg>
