<svg xmlns="http://www.w3.org/2000/svg" xmlns:xlink="http://www.w3.org/1999/xlink" width="256" height="96" viewBox="0 0 256 96">
    <defs>
        <filter id="g8s5h8s7gb" width="127.8%" height="128.2%" x="-13.9%" y="-11.3%" filterUnits="objectBoundingBox">
            <feOffset dy="2" in="SourceAlpha" result="shadowOffsetOuter1"/>
            <feGaussianBlur in="shadowOffsetOuter1" result="shadowBlurOuter1" stdDeviation="3"/>
            <feComposite in="shadowBlurOuter1" in2="SourceAlpha" operator="out" result="shadowBlurOuter1"/>
            <feColorMatrix in="shadowBlurOuter1" values="0 0 0 0 0.708163496 0 0 0 0 0.708163496 0 0 0 0 0.708163496 0 0 0 0.15 0"/>
        </filter>
        <filter id="30u11cocig" width="127.8%" height="128.2%" x="-13.9%" y="-11.3%" filterUnits="objectBoundingBox">
            <feOffset dy="2" in="SourceAlpha" result="shadowOffsetOuter1"/>
            <feMorphology in="SourceAlpha" radius="1" result="shadowInner"/>
            <feOffset dy="2" in="shadowInner" result="shadowInner"/>
            <feComposite in="shadowOffsetOuter1" in2="shadowInner" operator="out" result="shadowOffsetOuter1"/>
            <feGaussianBlur in="shadowOffsetOuter1" result="shadowBlurOuter1" stdDeviation="3"/>
            <feColorMatrix in="shadowBlurOuter1" values="0 0 0 0 0.708163496 0 0 0 0 0.708163496 0 0 0 0 0.708163496 0 0 0 0.15 0"/>
        </filter>
        <rect id="byo0tfjtka" width="72" height="70.82" x="0" y="0" rx="1.28"/>
        <rect id="fsdbixlw6f" width="72" height="70.82" x="0" y="0" rx="1.28"/>
        <path id="ahdsfmmjpd" d="M19.944 7.428v7.951c0 5.078-2.893 9.165-6.487 9.165-3.594 0-6.487-4.087-6.487-9.165V7.428C6.97 2.35 9.863.333 13.457.333c3.594 0 6.487 2.017 6.487 7.095z"/>
    </defs>
    <g fill="none" fill-rule="evenodd">
        <g>
            <g>
                <g transform="translate(-592 -1090) translate(592 1090) translate(92 12.59)">
                    <mask id="87gypyogic" fill="#fff">
                        <use xlink:href="#byo0tfjtka"/>
                    </mask>
                    <g>
                        <use fill="#000" filter="url(#g8s5h8s7gb)" xlink:href="#byo0tfjtka"/>
                        <rect width="71.232" height="70.052" x=".384" y=".384" fill="#FFF" stroke="#EEE" stroke-linejoin="square" stroke-width=".768" rx="1.28"/>
                    </g>
                    <g mask="url(#87gypyogic)">
                        <g transform="rotate(-48 50.796 -1.728)">
                            <path fill="#FFF" fill-rule="nonzero" stroke="#D1D8DC" stroke-opacity=".599" stroke-width=".8" d="M6.663 7.944l.008 1.41c0 .203.005.405.011.616.005.54.008 1.033.01 1.5.012 1.817.02 3.22.101 5.32.134 1.674.608 3.332 1.452 4.794.64 1.107 1.524 2.102 2.653 2.747.71.41 1.52.665 2.349.688 1.1.041 2.21-.28 3.111-.919 1.234-.83 2.133-2.067 2.737-3.399.744-1.627 1.062-3.424 1.047-5.21.003-.79-.014-1.323-.03-1.847-.019-.567-.037-1.125-.029-1.976l.001-.619c.001-.57.003-1.142-.005-1.713-.006-.454-.017-.908-.029-1.362.273.372.531.756.77 1.149 1.428 2.338 2.28 5.106 2.278 7.45h0l-3.41 60.144c-.001.585-.043 1.147-.15 1.707h0H.4c-.109-.567-.15-1.137-.15-1.73h0l3.41-60.145c.004-2.33.852-5.075 2.268-7.4h0l.734-1.205z"/>
                            <mask id="niastv1x2e" fill="#fff">
                                <use xlink:href="#ahdsfmmjpd"/>
                            </mask>
                            <use fill="#D1D8DC" fill-rule="nonzero" opacity=".6" xlink:href="#ahdsfmmjpd"/>
                            <path stroke="#FCFCFC" stroke-width=".8" d="M6.064 6.404L16.84-3.139M1.186 15.673L19.318-.534M3.864 18.598L21.996 2.391M6.542 21.524L24.674 5.317M9.22 24.449L27.352 8.242M11.898 27.375L30.03 11.168" mask="url(#niastv1x2e)"/>
                        </g>
                    </g>
                    <g fill-rule="nonzero" mask="url(#87gypyogic)">
                        <g>
                            <path fill="#FFF" stroke="#D1D8DC" stroke-opacity=".599" stroke-width=".8" d="M6.155 7.306l.008 1.411c.001.186.005.371.01.566l.01 1.165c.012 1.754.02 3.009.098 5.02.123 1.535.557 3.054 1.33 4.395.587 1.014 1.396 1.925 2.43 2.516.648.375 1.388.608 2.146.629 1.005.038 2.02-.257 2.843-.84 1.13-.761 1.954-1.894 2.508-3.114.682-1.493.973-3.142.96-4.78.003-.729-.014-1.197-.031-1.659-.018-.498-.036-.987-.028-1.77v-.569c.002-.525.003-1.05-.004-1.575-.006-.452-.017-.903-.03-1.355.275.369.533.75.771 1.141 1.317 2.157 2.103 4.71 2.1 6.871h0l-3.138 55.333c0 .55-.04 1.077-.143 1.602h0H.337C.232 71.76.193 71.226.193 70.67h0l3.138-55.334c.003-2.148.785-4.68 2.09-6.823h0l.734-1.206z" transform="rotate(-48 52.449 -32.048)"/>
                            <path fill="#D1D8DC" d="M18.349 6.834v7.315c0 4.671-2.662 8.432-5.968 8.432-3.307 0-5.969-3.76-5.969-8.432V6.834c0-4.672 2.662-6.527 5.969-6.527 3.306 0 5.968 1.855 5.968 6.527z" opacity=".598" transform="rotate(-48 52.449 -32.048)"/>
                        </g>
                    </g>
                    <g fill-rule="nonzero" mask="url(#87gypyogic)">
                        <g>
                            <path fill="#FFF" stroke="#D1D8DC" stroke-opacity=".599" stroke-width=".8" d="M6.41 7.625l.007 1.411c0 .194.005.387.011.59l.01 1.338c.011 1.782.02 3.112.099 5.166.128 1.604.582 3.192 1.391 4.593.614 1.06 1.46 2.014 2.542 2.632.678.393 1.453.636 2.247.659 1.053.039 2.115-.27 2.977-.88 1.182-.796 2.044-1.98 2.622-3.256.713-1.56 1.018-3.284 1.004-4.995.002-.652-.01-1.113-.024-1.542h0l-.017-.515c-.014-.438-.024-.908-.018-1.57h0v-.593c.002-.548.003-1.097-.004-1.645-.006-.452-.017-.905-.03-1.358.274.37.532.753.772 1.145 1.371 2.248 2.191 4.908 2.188 7.16h0l-3.274 57.74c0 .566-.042 1.11-.147 1.654h0H.369c-.107-.55-.147-1.103-.147-1.678h0l3.274-57.739c.003-2.238.818-4.877 2.18-7.112h0l.733-1.205z" transform="rotate(-48 67.378 20.261)"/>
                            <path fill="#D1D8DC" d="M19.147 7.13v7.634c0 4.875-2.778 8.799-6.228 8.799-3.45 0-6.228-3.924-6.228-8.799V7.131c0-4.875 2.778-6.81 6.228-6.81 3.45 0 6.228 1.935 6.228 6.81z" opacity=".598" transform="rotate(-48 67.378 20.261)"/>
                        </g>
                    </g>
                    <g>
                        <use fill="#000" filter="url(#30u11cocig)" xlink:href="#fsdbixlw6f"/>
                        <rect width="71.232" height="70.052" x=".384" y=".384" stroke="#EEE" stroke-linejoin="square" stroke-width=".768" rx="1.28"/>
                    </g>
                </g>
                <g transform="translate(-592 -1090) translate(592 1090) translate(172 12.59)">
                    <rect width="71.232" height="70.052" x=".384" y=".384" fill="#FFF" stroke="#EEE" stroke-width=".768" rx="1.28"/>
                    <path fill="#EEF1F3" fill-rule="nonzero" d="M41 29.302c-2.197 0-6.248 3.19-9.587 7.3-1.613-1.48-3.149-2.43-4.163-2.43-3.125 0-11.25 11.406-11.25 17.303h40c0-7.47-10.818-22.173-15-22.173zm-20.556-1.87c2.455 0 4.445-1.957 4.445-4.372 0-2.414-1.99-4.371-4.445-4.371-2.454 0-4.444 1.957-4.444 4.371 0 2.415 1.99 4.372 4.444 4.372z"/>
                </g>
                <g transform="translate(-592 -1090) translate(592 1090) translate(12 12.59)">
                    <rect width="71.232" height="70.052" x=".384" y=".384" fill="#FFF" stroke="#EEE" stroke-width=".768" rx="1.28"/>
                    <path fill="#EEF1F3" fill-rule="nonzero" d="M41 29.302c-2.197 0-6.248 3.19-9.587 7.3-1.613-1.48-3.149-2.43-4.163-2.43-3.125 0-11.25 11.406-11.25 17.303h40c0-7.47-10.818-22.173-15-22.173zm-20.556-1.87c2.455 0 4.445-1.957 4.445-4.372 0-2.414-1.99-4.371-4.445-4.371-2.454 0-4.444 1.957-4.444 4.371 0 2.415 1.99 4.372 4.444 4.372z"/>
                </g>
                <path fill="#E5004E" d="M118.576 18.355l-6.899.897c-.657.086-1.26-.369-1.346-1.015-.054-.397.1-.793.41-1.053l5.294-4.442c.31-.26.464-.656.411-1.053l-.912-6.786c-.087-.646.376-1.24 1.033-1.325.403-.052.806.1 1.07.404l4.516 5.207c.265.305.667.457 1.07.405l6.9-.897c.657-.086 1.26.369 1.346 1.015.054.397-.1.793-.41 1.053l-5.294 4.442c-.31.26-.464.656-.411 1.053l.912 6.786c.087.646-.376 1.24-1.033 1.325-.403.052-.806-.1-1.07-.404l-4.516-5.208c-.265-.304-.667-.456-1.07-.404zM151.487 21.144l-1.846-1.112c-.392-.236-.516-.74-.275-1.126.147-.237.406-.384.689-.391l2.163-.055c.407-.01.78-.222.993-.564l1.13-1.816c.24-.385.753-.507 1.145-.27.241.144.39.4.398.677l.056 2.129c.01.4.226.767.573.976l1.846 1.111c.392.237.516.74.275 1.127-.147.237-.406.384-.689.391l-2.163.055c-.407.01-.78.222-.993.563l-1.13 1.816c-.24.386-.753.508-1.145.271-.241-.145-.39-.4-.398-.677l-.056-2.129c-.01-.4-.226-.767-.573-.976zM90.105 61.724l-1.61-2.687c-.318-.528-.14-1.21.399-1.522.33-.191.736-.205 1.079-.037l2.836 1.393c.364.179.796.164 1.146-.04l2.731-1.584c.538-.312 1.23-.136 1.548.393.194.325.209.724.037 1.062l-1.416 2.79c-.181.358-.166.782.04 1.127l1.61 2.686c.318.529.14 1.21-.399 1.522-.33.192-.736.206-1.079.037l-2.836-1.393c-.364-.178-.796-.163-1.146.04l-2.731 1.584c-.538.312-1.23.136-1.548-.393-.194-.325-.209-.724-.037-1.061l1.416-2.79c.181-.358.166-.783-.04-1.127z" transform="translate(-592 -1090) translate(592 1090)"/>
            </g>
        </g>
    </g>
</svg>
