<svg xmlns="http://www.w3.org/2000/svg" xmlns:xlink="http://www.w3.org/1999/xlink" width="160" height="137" viewBox="0 0 160 137">
    <defs>
        <filter id="py0m1mqbka" width="113.9%" height="135.7%" x="-6.9%" y="-14.3%" filterUnits="objectBoundingBox">
            <feOffset dy="2" in="SourceAlpha" result="shadowOffsetOuter1"/>
            <feGaussianBlur in="shadowOffsetOuter1" result="shadowBlurOuter1" stdDeviation="3"/>
            <feComposite in="shadowBlurOuter1" in2="SourceAlpha" operator="out" result="shadowBlurOuter1"/>
            <feColorMatrix in="shadowBlurOuter1" values="0 0 0 0 0.708163496 0 0 0 0 0.708163496 0 0 0 0 0.708163496 0 0 0 0.15 0"/>
        </filter>
        <rect id="6j0cn2dl5b" width="144" height="56.082" x="0" y="0" rx="3.2"/>
    </defs>
    <g fill="none" fill-rule="evenodd">
        <g>
            <g>
                <g>
                    <g transform="translate(-854 -2078) translate(850 2078) translate(4) translate(8 8.012)">
                        <g>
                            <use fill="#000" filter="url(#py0m1mqbka)" xlink:href="#6j0cn2dl5b"/>
                            <rect width="143.232" height="55.314" x=".384" y=".384" fill="#FFF" stroke="#EEE" stroke-linejoin="square" stroke-width=".768" rx="3.2"/>
                        </g>
                        <ellipse cx="21" cy="21.031" fill="#D1D8DC" opacity=".602" rx="9" ry="9.013"/>
                        <rect width="53" height="6.009" x="38" y="12.018" fill="#D1D8DC" opacity=".602" rx="1.6"/>
                        <rect width="44" height="6.009" x="38" y="24.035" fill="#D1D8DC" opacity=".602" rx="1.6"/>
                        <rect width="94" height="6.009" x="38" y="36.053" fill="#D1D8DC" opacity=".602" rx="1.6"/>
                    </g>
                    <g transform="translate(-854 -2078) translate(850 2078) translate(4) translate(8 72.105)">
                        <rect width="143.232" height="55.314" x=".384" y=".384" fill="#FFF" stroke="#EEE" stroke-width=".768" rx="3.2"/>
                        <ellipse cx="21" cy="21.031" fill="#E3E8EA" opacity=".6" rx="9" ry="9.013"/>
                        <rect width="53" height="6.009" x="38" y="12.018" fill="#E3E8EA" opacity=".6" rx="1.6"/>
                        <rect width="44" height="6.009" x="38" y="24.035" fill="#E3E8EA" opacity=".6" rx="1.6"/>
                        <rect width="94" height="6.009" x="38" y="36.053" fill="#E3E8EA" opacity=".6" rx="1.6"/>
                    </g>
                    <g>
                        <path fill="#E5004E" d="M16.5 0C25.613 0 33 7.398 33 16.524c0 9.126-7.387 16.524-16.5 16.524-3.01 0-5.833-.807-8.263-2.218l-6.172.37c-.441.026-.82-.31-.847-.75-.01-.173.036-.345.131-.49l2.15-3.26C1.307 23.895 0 20.362 0 16.524 0 7.398 7.387 0 16.5 0z" transform="translate(-854 -2078) translate(850 2078) translate(4) translate(107 4.006)"/>
                        <path fill="#FFF" d="M24.1 15.065l-3.813 2.895 1.462 4.713c.184.656-.303 1.262-.907 1.262-.202 0-.387-.067-.555-.202l-3.795-2.895-3.796 2.895c-.422.287-.993.199-1.31-.202-.2-.239-.252-.57-.134-.858l1.444-4.68-3.812-2.928c-.353-.286-.47-.657-.32-1.128.135-.404.488-.673.874-.673h4.702l1.462-4.696c.117-.387.47-.656.873-.656.42 0 .79.286.907.69l1.461 4.662h4.703c.403 0 .755.27.89.673.151.471.033.842-.336 1.128z" transform="translate(-854 -2078) translate(850 2078) translate(4) translate(107 4.006)"/>
                    </g>
                </g>
            </g>
        </g>
    </g>
</svg>
