<svg xmlns="http://www.w3.org/2000/svg" xmlns:xlink="http://www.w3.org/1999/xlink" width="256" height="136" viewBox="0 0 256 136">
    <defs>
        <filter id="dsdqvc7ena" width="108.4%" height="135.7%" x="-4.2%" y="-14.3%" filterUnits="objectBoundingBox">
            <feOffset dy="2" in="SourceAlpha" result="shadowOffsetOuter1"/>
            <feGaussianBlur in="shadowOffsetOuter1" result="shadowBlurOuter1" stdDeviation="3"/>
            <feComposite in="shadowBlurOuter1" in2="SourceAlpha" operator="out" result="shadowBlurOuter1"/>
            <feColorMatrix in="shadowBlurOuter1" values="0 0 0 0 0.708163496 0 0 0 0 0.708163496 0 0 0 0 0.708163496 0 0 0 0.15 0"/>
        </filter>
        <rect id="zeqgwq3b3b" width="236.8" height="56" x="0" y="0" rx="3.2"/>
    </defs>
    <g fill="none" fill-rule="evenodd">
        <g>
            <g>
                <g transform="translate(-592 -1357) translate(592 1357) translate(9.6 8)">
                    <g>
                        <use fill="#000" filter="url(#dsdqvc7ena)" xlink:href="#zeqgwq3b3b"/>
                        <rect width="236.032" height="55.232" x=".384" y=".384" fill="#FFF" stroke="#EEE" stroke-linejoin="square" stroke-width=".768" rx="3.2"/>
                    </g>
                    <rect width="30.4" height="30.4" x="12.8" y="12" fill="#D1D8DC" opacity=".602" rx="1.6"/>
                    <rect width="53" height="6" x="51.2" y="12" fill="#D1D8DC" opacity=".602" rx="1.6"/>
                    <rect width="44" height="6" x="51.2" y="24" fill="#D1D8DC" opacity=".602" rx="1.6"/>
                    <rect width="114.4" height="6" x="51.2" y="36" fill="#D1D8DC" opacity=".602" rx="1.6"/>
                </g>
                <g transform="translate(-592 -1357) translate(592 1357) translate(9.6 72)">
                    <rect width="236.032" height="55.232" x=".384" y=".384" fill="#FFF" stroke="#EEE" stroke-width=".768" rx="3.2"/>
                    <rect width="30.4" height="30.4" x="12.8" y="12" fill="#EEF1F3" rx="1.6"/>
                    <rect width="53" height="6" x="51.2" y="12" fill="#EEF1F3" rx="1.6"/>
                    <rect width="44" height="6" x="51.2" y="24" fill="#EEF1F3" rx="1.6"/>
                    <rect width="114.4" height="6" x="51.2" y="36" fill="#EEF1F3" rx="1.6"/>
                </g>
                <g transform="translate(-592 -1357) translate(592 1357) translate(207.2 20)">
                    <path fill="#E5004E" d="M-2.254 10.4H36.32c.707 0 1.28.573 1.28 1.28v24.64c0 .707-.573 1.28-1.28 1.28H-2.254c-.47 0-.9-.257-1.125-.67l-6.69-12.32c-.206-.38-.206-.84 0-1.22l6.69-12.32c.224-.413.656-.67 1.125-.67z" transform="rotate(90 13.6 24)"/>
                    <circle cx="13.6" cy="5.2" r="2" fill="#FFF"/>
                    <circle cx="13.6" cy="30" r="9.2"/>
                    <circle cx="8" cy="30" r="1.6" fill="#FFF"/>
                    <circle cx="13.6" cy="30" r="1.6" fill="#FFF"/>
                    <circle cx="19.2" cy="30" r="1.6" fill="#FFF"/>
                </g>
            </g>
        </g>
    </g>
</svg>
