<svg xmlns="http://www.w3.org/2000/svg" xmlns:xlink="http://www.w3.org/1999/xlink" width="256" height="107" viewBox="0 0 256 107">
    <defs>
        <rect id="8lcm852p3a" width="72" height="72.955" x="0" y="0" rx="1.28"/>
        <rect id="cd9doutnkd" width="72" height="72.955" x="0" y="0" rx="1.28"/>
        <rect id="nkfasj2j5f" width="72" height="72.955" x="0" y="0" rx="1.28"/>
        <rect id="wkzwm8qlhh" width="72" height="72.955" x="0" y="0" rx="1.28"/>
        <rect id="tmz3phytsi" width="72" height="72.955" x="0" y="0" rx="1.28"/>
        <rect id="ksw3f67vfk" width="72" height="72.955" x="0" y="0" rx="1.28"/>
        <filter id="qol8zwzekb" width="127.8%" height="127.4%" x="-13.9%" y="-11%" filterUnits="objectBoundingBox">
            <feOffset dy="2" in="SourceAlpha" result="shadowOffsetOuter1"/>
            <feGaussianBlur in="shadowOffsetOuter1" result="shadowBlurOuter1" stdDeviation="3"/>
            <feComposite in="shadowBlurOuter1" in2="SourceAlpha" operator="out" result="shadowBlurOuter1"/>
            <feColorMatrix in="shadowBlurOuter1" values="0 0 0 0 0.708163496 0 0 0 0 0.708163496 0 0 0 0 0.708163496 0 0 0 0.15 0"/>
        </filter>
        <filter id="tc9b8jnn8e" width="127.8%" height="127.4%" x="-13.9%" y="-11%" filterUnits="objectBoundingBox">
            <feOffset dy="2" in="SourceAlpha" result="shadowOffsetOuter1"/>
            <feMorphology in="SourceAlpha" radius="1" result="shadowInner"/>
            <feOffset dy="2" in="shadowInner" result="shadowInner"/>
            <feComposite in="shadowOffsetOuter1" in2="shadowInner" operator="out" result="shadowOffsetOuter1"/>
            <feGaussianBlur in="shadowOffsetOuter1" result="shadowBlurOuter1" stdDeviation="3"/>
            <feColorMatrix in="shadowBlurOuter1" values="0 0 0 0 0.708163496 0 0 0 0 0.708163496 0 0 0 0 0.708163496 0 0 0 0.15 0"/>
        </filter>
    </defs>
    <g fill="none" fill-rule="evenodd">
        <g>
            <g>
                <g>
                    <g transform="translate(-786 -261) translate(690 261) translate(96) translate(92 8.106)">
                        <mask id="ule305sc8c" fill="#fff">
                            <use xlink:href="#8lcm852p3a"/>
                        </mask>
                        <g>
                            <use fill="#000" filter="url(#qol8zwzekb)" xlink:href="#8lcm852p3a"/>
                            <rect width="71.232" height="72.187" x=".384" y=".384" fill="#FFF" stroke="#EEE" stroke-linejoin="square" stroke-width=".768" rx="1.28"/>
                        </g>
                        <path fill="#E1E5E8" fill-rule="nonzero" d="M42.244 55.346c-.084-.818-.078-1.638-.022-2.42 2.42 1.52 4.99 1.079 4.99 1.079s-1.295-2.775-.985-6.5c.617-1.217 1.169-2.577 1.667-4.049 1.175-.78 2.242-2.175 2.81-4.722.221-.993.047-1.937-.377-2.76C55.081 20.348 45.136 13.78 39.14 13.78c-1.135 0-2.323.11-3.49.318-1.168-.208-2.355-.318-3.49-.318-5.997 0-15.942 6.567-11.188 22.196-.423.822-.597 1.765-.375 2.758.703 3.157 2.174 4.542 3.667 5.183 2.012 5.383-.176 10.088-.176 10.088s2.57.44 4.99-1.08c.056.783.062 1.603-.022 2.42-.803 7.835-17.96 7.152-17.96 17.463 0 2.121 7.015 5.82 24.554 5.82 17.539 0 24.554-3.699 24.554-5.82 0-10.311-17.157-9.628-17.96-17.462z" mask="url(#ule305sc8c)"/>
                        <g>
                            <use fill="#000" filter="url(#tc9b8jnn8e)" xlink:href="#cd9doutnkd"/>
                            <rect width="71.232" height="72.187" x=".384" y=".384" stroke="#EEE" stroke-linejoin="square" stroke-width=".768" rx="1.28"/>
                        </g>
                    </g>
                    <g transform="translate(-786 -261) translate(690 261) translate(96) translate(12 8.106)">
                        <mask id="bl2h9qoang" fill="#fff">
                            <use xlink:href="#nkfasj2j5f"/>
                        </mask>
                        <rect width="71.232" height="72.187" x=".384" y=".384" stroke="#EEE" stroke-width=".768" rx="1.28"/>
                        <path fill="#EEF1F3" fill-rule="nonzero" d="M42.68 57.306c-.17-1.647.065-3.308.332-4.531 1.06-1.123 1.966-2.794 2.9-5.441 1.409-.518 2.838-1.715 3.502-4.663.306-1.358-.226-2.613-1.143-3.517.665-2.24 3.283-12.621-4.582-14.726-2.616-3.281-4.905-3.15-8.828-2.756-1.952.195-2.229.612-3.727.393-1.718-.25-3.112-.774-3.531-.984-.242-.121-2.508 1.897-3.139 3.544-2 5.218-1.463 8.797-.954 11.504-.017.277-.04.554-.04.834l.466 1.983v.06c-1.013.912-1.624 2.231-1.301 3.665.663 2.95 2.094 4.146 3.502 4.664.934 2.644 1.84 4.315 2.899 5.438.267 1.224.503 2.885.332 4.533-.714 6.902-15.184 3.266-15.184 15.384 0 1.869 6.24 5.128 21.84 5.128s21.84-3.26 21.84-5.128c0-12.118-14.47-8.483-15.184-15.384z" mask="url(#bl2h9qoang)"/>
                        <rect width="71.232" height="72.187" x=".384" y=".384" stroke="#EEE" stroke-width=".768" rx="1.28"/>
                    </g>
                    <g transform="translate(-786 -261) translate(690 261) translate(96) translate(172 8.106)">
                        <mask id="zaqmmyav3j" fill="#fff">
                            <use xlink:href="#tmz3phytsi"/>
                        </mask>
                        <rect width="71.232" height="72.187" x=".384" y=".384" stroke="#EEE" stroke-width=".768" rx="1.28"/>
                        <path fill="#EEF1F3" fill-rule="nonzero" d="M41.173 56.698c-.07-.686-.065-1.372-.019-2.027 2.027 1.273 4.179.904 4.179.904s-1.084-2.324-.825-5.444c.517-1.02.979-2.159 1.396-3.391.984-.654 1.878-1.822 2.353-3.955.186-.832.04-1.622-.315-2.311 3.981-13.088-4.348-18.588-9.369-18.588-.951 0-1.945.092-2.923.267-.979-.175-1.973-.267-2.924-.267-5.021 0-13.35 5.5-9.369 18.589-.354.688-.5 1.478-.314 2.31.589 2.644 1.82 3.804 3.07 4.34 1.686 4.509-.146 8.45-.146 8.45s2.152.369 4.179-.905c.046.655.052 1.342-.019 2.028-.672 6.56-15.041 5.989-15.041 14.624 0 1.777 5.875 4.875 20.564 4.875s20.564-3.098 20.564-4.875c0-8.635-14.369-8.064-15.041-14.624z" mask="url(#zaqmmyav3j)"/>
                        <rect width="71.232" height="72.187" x=".384" y=".384" stroke="#EEE" stroke-width=".768" rx="1.28"/>
                    </g>
                    <g fill-rule="nonzero">
                        <path fill="#FFF" d="M24.952 28.636c-.036.026-.071.05-.108.073-.04.03-.082.057-.124.084l-.114.074c-.05.032-.098.063-.148.092l-.139.086c-.1.06-.2.118-.301.176l-.024.014c-.082.046-.166.091-.25.135-.032.019-.065.037-.1.054-.065.034-.132.067-.2.1-.127.065-.256.127-.387.185-1.544.703-3.256 1.094-5.057 1.094-1.8 0-3.512-.391-5.057-1.094-2.779-1.261-5.019-3.53-6.264-6.346-.693-1.565-1.079-3.3-1.079-5.124 0-1.825.386-3.56 1.08-5.125.194-.44.413-.866.655-1.278l.084-.141c.079-.132.161-.263.247-.391.047-.073.095-.145.146-.217.06-.09.121-.178.186-.265.097-.135.197-.268.3-.399.585-.745 1.254-1.422 1.989-2.015.129-.104.26-.205.393-.304.086-.066.174-.128.262-.189.071-.05.142-.1.214-.147.127-.087.256-.17.386-.25.047-.03.092-.058.14-.086.405-.245.827-.467 1.26-.664C14.489 6.065 16.2 5.674 18 5.674c1.8 0 3.513.391 5.057 1.094 2.779 1.261 5.019 3.53 6.264 6.346.693 1.566 1.079 3.3 1.079 5.125 0 1.824-.386 3.559-1.08 5.124-.058.132-.118.263-.181.392l-.1.203c-.017.035-.035.068-.054.101-.043.085-.087.17-.132.253l-.014.024c-.056.103-.114.204-.174.305l-.084.142c-.03.05-.06.1-.092.15l-.073.115c-.027.042-.053.085-.082.126-.023.037-.047.073-.072.108-.024.036-.048.072-.074.108-.012.022-.028.044-.044.064-.028.043-.058.086-.089.129-.23.324-.475.635-.736.934-.047.055-.095.11-.143.163-.062.07-.124.138-.187.205-.074.078-.15.157-.226.233-.075.077-.153.154-.23.229-.066.064-.134.127-.202.19-.053.048-.106.097-.161.144-.295.264-.602.513-.922.747l-.127.09c-.02.016-.042.031-.063.044l-.106.074z" transform="translate(-786 -261) translate(690 261) translate(96) translate(142.4 59.174)"/>
                        <path fill="#E5004E" d="M17.498 0c3.217 0 6.235.885 8.828 2.426 2.59 1.54 4.757 3.735 6.277 6.36 1.52 2.627 2.394 5.685 2.394 8.945 0 3.26-.874 6.317-2.394 8.945-.142.246-.29.488-.445.727-.071.11-.145.22-.218.33-.012.017-.023.035-.036.051-.072.108-.147.215-.223.322-.113.158-.228.313-.345.467l2.706 2.742c.472-.59.914-1.204 1.323-1.841l7.335 7.433c1.733 1.756 1.733 4.603 0 6.36-.866.877-2.002 1.316-3.138 1.316-1.136 0-2.273-.44-3.139-1.317l-7.335-7.432c.629-.415 1.235-.863 1.817-1.34l-2.706-2.742c-.152.118-.305.235-.461.35-.106.076-.211.152-.317.226l-.051.035c-.108.075-.217.15-.326.221-.079.053-.157.105-.237.155-.159.101-.318.2-.48.296-2.594 1.54-5.612 2.426-8.829 2.426-3.216 0-6.234-.885-8.827-2.426-2.59-1.54-4.757-3.735-6.277-6.36C.874 24.049 0 20.99 0 17.732c0-3.26.874-6.318 2.394-8.945.062-.108.126-.215.192-.322.082-.136.167-.272.253-.406.154-.237.312-.472.477-.702.054-.078.11-.153.166-.23l.179-.238.172-.221c.114-.145.23-.287.349-.427.605-.72 1.267-1.39 1.977-2.003.138-.12.279-.237.42-.353l.219-.175.236-.18.225-.17c.227-.166.46-.327.694-.482.132-.088.266-.174.4-.257.106-.067.211-.131.318-.194C11.264.886 14.28 0 17.498 0zm.102 5.095c-1.825 0-3.561.397-5.127 1.109-.44.2-.868.425-1.28.673l-.14.087c-.132.081-.263.165-.392.254-.073.048-.145.097-.216.15-.09.06-.179.124-.266.19-.135.1-.268.203-.399.308-.745.602-1.423 1.289-2.017 2.044-.103.132-.205.268-.303.404-.066.088-.129.178-.19.27-.05.072-.1.145-.147.219-.087.13-.17.262-.25.396l-.086.143c-.245.417-.467.85-.664 1.296-.703 1.587-1.094 3.346-1.094 5.195 0 1.85.39 3.609 1.094 5.196 1.262 2.854 3.533 5.155 6.35 6.434 1.566.712 3.302 1.108 5.127 1.108 1.825 0 3.561-.396 5.127-1.108.133-.06.263-.122.393-.187l.203-.103c.034-.017.068-.035.101-.055.085-.044.17-.09.253-.136l.024-.014c.103-.059.204-.117.305-.179.048-.028.094-.057.141-.087.05-.03.1-.06.15-.093l.116-.076c.042-.027.085-.054.126-.084.037-.024.073-.048.109-.074l.107-.075c.022-.013.044-.029.065-.046l.128-.09c.324-.238.636-.49.935-.757l.163-.147c.07-.064.139-.128.205-.193.078-.075.157-.153.234-.231.077-.078.154-.157.228-.237.064-.067.127-.137.19-.208.049-.054.097-.109.145-.165.264-.303.513-.618.746-.947.031-.043.062-.087.09-.13.017-.021.032-.043.045-.065l.074-.11c.026-.036.05-.072.074-.11.03-.041.056-.084.083-.127l.074-.117c.032-.05.063-.102.093-.152l.086-.143c.06-.103.119-.206.176-.31l.014-.024c.046-.085.09-.17.134-.256.02-.034.037-.068.054-.103l.051-.102.05-.104c.065-.13.126-.263.185-.397.703-1.587 1.094-3.346 1.094-5.196 0-1.85-.39-3.608-1.094-5.195-1.262-2.854-3.533-5.155-6.35-6.434-1.566-.712-3.302-1.109-5.127-1.109zm-7.333 10.88c1.012 0 1.833.832 1.833 1.858 0 1.026-.82 1.858-1.833 1.858s-1.834-.832-1.834-1.858c0-1.026.821-1.857 1.834-1.857zm7.333 0c1.013 0 1.833.832 1.833 1.858 0 1.026-.82 1.858-1.833 1.858s-1.833-.832-1.833-1.858c0-1.026.82-1.857 1.833-1.857zm7.333 0c1.013 0 1.834.832 1.834 1.858 0 1.026-.821 1.858-1.834 1.858-1.012 0-1.833-.832-1.833-1.858 0-1.026.82-1.857 1.833-1.857z" transform="translate(-786 -261) translate(690 261) translate(96) translate(142.4 59.174)"/>
                    </g>
                </g>
            </g>
        </g>
    </g>
</svg>
