<?xml version="1.0" encoding="UTF-8"?>
<svg width="324px" height="117px" viewBox="0 0 324 117" version="1.1" xmlns="http://www.w3.org/2000/svg" xmlns:xlink="http://www.w3.org/1999/xlink">
    <title>Group</title>
    <g id="New-My-Page" stroke="none" stroke-width="1" fill="none" fill-rule="evenodd">
        <g id="iPhone-11-Pro" transform="translate(-26.000000, -405.000000)" fill="#D54F67" fill-rule="nonzero">
            <g id="Group" transform="translate(26.000000, 405.000000)">
                <path d="M28.434,50.407 L63.566,50.407 L63.566,30.519 L28.434,30.519 L28.434,50.407 L28.434,50.407 Z M27.05,54.542 L64.95,54.542 C66.397,54.542 67.57,53.369 67.57,51.922 L67.57,29.618 C67.57,28.173 66.397,27 64.95,27 L27.05,27 C25.602,27 24.43,28.173 24.43,29.618 L24.43,51.922 C24.43,53.369 25.602,54.542 27.049,54.542 L27.05,54.542 Z M40.643,62.3 L41.995,60.472 L50.562,60.472 L51.912,62.3 L40.642,62.3 L40.643,62.3 Z M70.613,61.81 L65.94,57.663 C65.64,57.397 65.208,57.246 64.751,57.246 L27.248,57.246 C26.792,57.246 26.36,57.397 26.06,57.663 L21.388,61.81 C21.138,62.031 21,62.317 21,62.611 L21,64.056 C21,64.393 21.352,64.665 21.787,64.665 L70.213,64.665 C70.649,64.665 71,64.393 71,64.056 L71,62.611 C71,62.317 70.863,62.031 70.612,61.81 L70.613,61.81 Z" id="Shape"></path>
                <path d="M46,0 C20.5949015,0 0,20.5949015 0,46 C0,71.4050985 20.5949015,92 46,92 C71.4050985,92 92,71.4050985 92,46 C92,20.5949015 71.4050985,0 46,0 Z M46,2 C70.300529,2 90,21.699471 90,46 C90,70.300529 70.300529,90 46,90 C21.699471,90 2,70.300529 2,46 C2,21.699471 21.699471,2 46,2 Z" id="Oval"></path>
                <path d="M180.57,56.715 L180.57,62.707 C180.568042,66.3945417 177.64376,69.3965647 173.986422,69.5200485 L173.752,69.524 L146.645,69.524 C144.339853,69.5220588 142.462393,67.7113979 142.352119,65.4342602 L142.347,65.226 L142.347,60.033 L145.903,60.033 L145.903,65.226 C145.903917,65.6009167 146.182965,65.9119722 146.544501,65.9612112 L146.645,65.968 L173.752,65.968 C174.659,65.967 175.463,65.606 176.059,65.012 C176.602583,64.4665833 176.951222,63.7455486 177.006324,62.9313131 L177.014,62.707 L177.014,60.271 L180.57,56.715 Z M182.967,40.222 L188.632,45.887 L174.64,59.879 L168.975,59.879 L168.975,54.214 L182.967,40.222 Z M146.668,54.243 C147.668,54.243 148.486594,55.0148821 148.562288,55.9954241 L148.568001,56.144 C148.568952,57.144 147.796209,57.9625941 146.81731,58.0382879 L146.669,58.044 L141.9,58.044 C140.85,58.044 140,57.194 140,56.144 C140,55.144 140.771882,54.3244989 141.75156,54.2487187 L141.9,54.243 L146.668,54.243 Z M164.131,54.965 L164.131,57.632 L154.353,57.632 L154.353,54.965 L164.131,54.965 Z M145.903,40.27 L145.903,52.254 L142.347,52.254 L142.347,40.27 L145.903,40.27 Z M170.353,45.187 L170.353,47.854 L154.353,47.854 L154.353,45.187 L170.353,45.187 Z M186.17,37.018 C187.200208,35.9877917 188.844828,35.9439479 189.926237,36.8891092 L190.064,37.018 L191.836,38.79 C192.866208,39.8202083 192.909134,41.4648281 191.965656,42.5462374 L191.837,42.684 L190.177,44.342 L184.512,38.677 L186.17,37.018 Z M173.752,23 C177.439542,23.0009792 180.440606,25.92524 180.565927,29.5825784 L180.57,29.817 L180.57,39.854 L177.014,43.41 L177.014,29.817 C177.013,28.911 176.652,28.107 176.059,27.511 C175.51175,26.9674167 174.791403,26.6179375 173.976524,26.5634659 L173.752,26.556 L146.645,26.556 C146.270083,26.5569167 145.959028,26.8359653 145.909789,27.1975012 L145.903,27.298 L145.903,32.491 L142.347,32.491 L142.347,27.298 C142.348941,24.9938235 144.15866,23.1154498 146.436657,23.0051218 L146.645,23 L173.752,23 Z M146.669,34.48 C147.717,34.48 148.569,35.33 148.569,36.38 C148.569,37.3809524 147.796211,38.1995918 146.81731,38.2752878 L146.669,38.281 L141.9,38.281 C140.85,38.281 140,37.43 140,36.38 C140,35.38 140.771882,34.5614059 141.750696,34.4857121 L141.899,34.48 L146.669,34.48 Z M170.353,35.409 L170.353,38.075 L154.353,38.075 L154.353,35.409 L170.353,35.409 Z" id="Shape"></path>
                <path d="M162,0 C136.594902,0 116,20.5949015 116,46 C116,71.4050985 136.594902,92 162,92 C187.405098,92 208,71.4050985 208,46 C208,20.5949015 187.405098,0 162,0 Z M162,2 C186.300529,2 206,21.699471 206,46 C206,70.300529 186.300529,90 162,90 C137.699471,90 118,70.300529 118,46 C118,21.699471 137.699471,2 162,2 Z" id="Oval"></path>
                <path d="M110.226,47.366 L99.321,53.786 C98.289,54.393 97,53.635 97,52.42 L97,39.58 C97,38.365 98.29,37.607 99.32,38.214 L110.226,44.634 C111.258,45.241 111.258,46.759 110.226,47.366" id="Path"></path>
                <path d="M226.226,47.366 L215.321,53.786 C214.289,54.393 213,53.635 213,52.42 L213,39.58 C213,38.365 214.29,37.607 215.32,38.214 L226.226,44.634 C227.258,45.241 227.258,46.759 226.226,47.366" id="Path"></path>
                <path d="M267.951,35.143 C268.714,35.147 269.495,35.367 270.339,35.721 C271.182,36.079 272.083,36.584 273.037,37.214 C274.94,38.472 277.045,40.233 279.14,42.326 C280.534667,43.7215556 281.78158,45.122642 282.830875,46.4653471 L283.215,46.966 C284.339,48.462 285.206,49.865 285.743,51.127 C286.098,51.971 286.317,52.752 286.32,53.514 C286.32,53.848 286.277,54.181 286.163,54.502 C286.0734,54.758 285.93708,55.00568 285.758136,55.222512 L285.616,55.379 L285.459904,55.521136 C285.24336,55.70008 284.9952,55.8364 284.74,55.926 C284.5465,55.99425 284.349062,56.036625 284.149797,56.0602969 L283.95,56.078 L258.524,64.064 C257.97,64.485 257.596,64.878 257.343,65.238 C257.032,65.684 256.888,66.082 256.809,66.507 C256.758,66.79 256.741,67.085 256.741,67.401 L256.745953,67.7489844 L256.745953,67.7489844 L256.772359,68.4940781 C256.776125,68.6236875 256.77875,68.756 256.779,68.891 C256.779,69.443 256.735,70.049 256.535,70.681 C256.334,71.314 255.972,71.958 255.402,72.57 C255.085333,72.9116667 254.706167,73.2456944 254.252926,73.5761343 L253.972,73.774 L253,72.348 C253.738,71.844 254.196,71.382 254.488,70.964 C254.777,70.543 254.912,70.165 254.988,69.757 C255.036,69.485 255.053,69.199 255.051,68.892 L255.046047,68.5448281 L255.046047,68.5448281 L255.019641,67.7994844 C255.015875,67.669375 255.01325,67.53625 255.013,67.4 C255.013,66.835 255.058,66.21 255.27,65.557 C255.479,64.903 255.859,64.237 256.458,63.599 C256.7004,63.3398 256.97928,63.0838 257.297712,62.829464 L257.544,62.639 L265.392,37.446 C265.412,37.204 265.457,36.962 265.538,36.726 C265.651,36.405 265.837,36.099 266.088,35.849 C266.335,35.599 266.644,35.413 266.964,35.303 C267.286,35.189 267.618,35.144 267.951,35.143 Z M261.213,57.496 L259.951,61.546 L262.728,60.674 L261.213,57.496 Z M263.307,50.772 L261.753,55.764 L263.916,60.3 L267.341,59.224 L263.307,50.772 Z M265.403,44.047 L263.848,49.039 L268.528,58.851 L271.955,57.775 L265.403,44.047 Z M266.365,40.959 L265.942,42.315 L273.142,57.402 L276.567,56.327 L273.425,49.743 C273.137,49.468 272.85,49.189 272.564,48.901 C270.994,47.332 269.611,45.755 268.486,44.261 C267.72125,43.2425 267.075938,42.266875 266.57217,41.3488633 L266.365,40.959 Z M275.805,51.868 L277.755,55.952 L280.496,55.092 C279.909,54.79 279.3,54.434 278.666,54.014 C277.881714,53.4954286 277.062898,52.8901633 276.225294,52.212688 L275.805,51.868 Z M291.986,49.475 L292.607,50.247 L293.596,50.174 L293.052,51.002 L293.427,51.919 L292.472,51.66 L291.715,52.3 L291.667,51.31 L290.825,50.789 L291.75,50.437 L291.986,49.475 Z M294.951,44.291 L295.336,45.463 L288.052,47.856 L287.665,46.684 L294.951,44.291 Z M300.91,40.013 L300.721,42.36 L302.546,43.848 L300.254,44.392 L299.404,46.59 L298.178,44.578 L295.826,44.448 L297.36,42.66 L296.758,40.383 L298.931,41.29 L300.91,40.013 Z M291.359,40.689 L291.279,41.676 L292.047,42.302 L291.083,42.531 L290.725,43.455 L290.21,42.609 L289.221,42.555 L289.865,41.803 L289.613,40.845 L290.526,41.226 L291.359,40.689 Z M295.54,32.807 L296.236,33.824 L283.72,42.395 L283.023,41.378 L295.54,32.807 Z M280.543,34.734 L280.463,35.721 L281.231,36.346 L280.267,36.576 L279.909,37.499 L279.394,36.654 L278.405,36.599 L279.051,35.847 L278.797,34.889 L279.71,35.271 L280.543,34.734 Z M276.504,25.542 L277.676,25.924 L274.861,34.562 L273.688,34.18 L276.504,25.542 Z M286.584,25.992 L287.6,26.691 L282.253,34.453 L281.236,33.753 L286.584,25.992 Z M289.822,30.588 L289.718,31.86 L290.708,32.667 L289.467,32.962 L289.005,34.152 L288.341,33.062 L287.066,32.991 L287.898,32.023 L287.571,30.79 L288.749,31.28 L289.822,30.588 Z M299.568,27.603 L300.742,29.471 L302.949,29.563 L301.536,31.259 L302.131,33.384 L300.08,32.564 L298.243,33.787 L298.39,31.583 L296.659,30.214 L298.799,29.673 L299.568,27.603 Z M272.52,27.407 L272.44,28.394 L273.208,29.02 L272.244,29.249 L271.886,30.172 L271.371,29.327 L270.38,29.272 L271.026,28.52 L270.773,27.563 L271.687,27.944 L272.52,27.407 Z M287.761,18 L290.078,19.678 L292.773,18.721 L291.893,21.442 L293.636,23.71 L290.775,23.715 L289.158,26.073 L288.269,23.353 L285.526,22.544 L287.838,20.859 L287.761,18 Z M280.378,20.148 L280.227,22.015 L281.679,23.198 L279.858,23.631 L279.18,25.378 L278.205,23.778 L276.334,23.675 L277.556,22.254 L277.076,20.443 L278.804,21.164 L280.378,20.148 Z" id="Shape"></path>
                <path d="M278,0 C252.594902,0 232,20.5949015 232,46 C232,71.4050985 252.594902,92 278,92 C303.405098,92 324,71.4050985 324,46 C324,20.5949015 303.405098,0 278,0 Z M278,2 C302.300529,2 322,21.699471 322,46 C322,70.300529 302.300529,90 278,90 C253.699471,90 234,70.300529 234,46 C234,21.699471 253.699471,2 278,2 Z" id="Oval"></path>
                <path d="M17.784,115 L19.08,109.144 C19.272,108.216 19.432,107.304 19.592,106.408 L19.656,106.408 C19.8,107.304 19.976,108.216 20.168,109.144 L21.496,115 L24.44,115 L26.632,103.16 L24.376,103.16 L23.448,108.936 C23.272,110.168 23.096,111.432 22.92,112.712 L22.84,112.712 C22.584,111.432 22.344,110.152 22.088,108.936 L20.712,103.16 L18.696,103.16 L17.32,108.936 C17.064,110.168 16.808,111.448 16.568,112.712 L16.504,112.712 C16.328,111.448 16.136,110.184 15.96,108.936 L15.016,103.16 L12.6,103.16 L14.888,115 L17.784,115 Z M35.848,115 L35.848,113.016 L30.776,113.016 L30.776,109.848 L34.936,109.848 L34.936,107.864 L30.776,107.864 L30.776,105.128 L35.672,105.128 L35.672,103.16 L28.408,103.16 L28.408,115 L35.848,115 Z M42.472,115 C45.08,115 47.064,113.896 47.064,111.512 C47.064,109.912 46.12,109.016 44.84,108.712 L44.84,108.632 C45.848,108.28 46.456,107.16 46.456,106.072 C46.456,103.864 44.6,103.16 42.168,103.16 L38.248,103.16 L38.248,115 L42.472,115 Z M41.992,107.976 L40.616,107.976 L40.616,104.968 L42.024,104.968 C43.448,104.968 44.152,105.384 44.152,106.424 C44.152,107.368 43.496,107.976 41.992,107.976 Z M42.264,113.176 L40.616,113.176 L40.616,109.736 L42.264,109.736 C43.896,109.736 44.76,110.216 44.76,111.368 C44.76,112.6 43.88,113.176 42.264,113.176 Z M56.648,116.376 L56.648,112.28 L60.2,112.28 L60.2,113.048 L62.184,113.048 L62.184,103.576 L56.648,103.576 L56.648,101.432 L54.648,101.432 L54.648,103.576 L49.272,103.576 L49.272,113.128 L51.176,113.128 L51.176,112.28 L54.648,112.28 L54.648,116.376 L56.648,116.376 Z M54.648,107.016 L51.176,107.016 L51.176,105.4 L54.648,105.4 L54.648,107.016 Z M60.2,107.016 L56.648,107.016 L56.648,105.4 L60.2,105.4 L60.2,107.016 Z M60.2,110.456 L56.648,110.456 L56.648,108.76 L60.2,108.76 L60.2,110.456 Z M54.648,110.456 L51.176,110.456 L51.176,108.76 L54.648,108.76 L54.648,110.456 Z M67.032,105.496 L68.536,104.232 C67.992,103.48 66.824,102.488 65.864,101.816 L64.456,102.968 C65.4,103.672 66.536,104.728 67.032,105.496 Z M70.008,113.64 C71.752,112.424 72.968,110.664 73.768,108.376 C74.472,110.616 75.64,112.456 77.608,113.624 C77.96,113.16 78.648,112.488 79.096,112.168 C75.768,110.504 74.808,106.648 74.568,102.12 L70.168,102.12 L70.168,103.912 L72.952,103.912 C73,104.456 73.064,105 73.128,105.528 L72.504,105.432 C72.008,108.488 70.776,110.872 68.536,112.2 C68.984,112.536 69.72,113.272 70.008,113.64 Z M65.032,116.232 C65.896,115.56 66.6,114.936 67.304,114.312 C68.344,115.56 69.656,116.008 71.624,116.088 C73.528,116.168 76.744,116.136 78.664,116.04 C78.76,115.496 79.048,114.568 79.256,114.12 C77.128,114.28 73.528,114.328 71.656,114.248 C69.992,114.184 68.792,113.752 68.136,112.68 L68.136,107.656 L64.44,107.656 L64.44,109.4 L66.28,109.4 L66.28,112.776 C65.576,113.32 64.776,113.848 64.104,114.248 L65.032,116.232 Z" id="WEB申込"></path>
                <path d="M107.328,116.376 C108.432,116.376 109.184,116.312 109.712,115.992 C110.224,115.704 110.384,115.192 110.384,114.248 L110.384,110.44 C110.864,110.296 111.344,110.168 111.808,110.024 L111.6,108.328 L110.384,108.648 L110.384,106.216 L111.712,106.216 L111.712,104.472 L110.384,104.472 L110.384,101.464 L108.56,101.464 L108.56,104.472 L106.704,104.472 L106.704,106.216 L108.56,106.216 L108.56,109.096 C107.744,109.288 106.992,109.464 106.384,109.592 L106.784,111.432 L108.56,110.952 L108.56,114.232 C108.56,114.472 108.48,114.536 108.288,114.536 C108.08,114.552 107.424,114.552 106.8,114.52 C107.04,115.048 107.28,115.864 107.328,116.376 Z M118.88,116.344 C119.392,116.264 119.792,116.136 120.144,115.704 C120.656,115.112 120.912,113.48 121.136,109.24 C121.168,109.016 121.184,108.504 121.184,108.504 L115.136,108.504 C115.296,108.2 115.44,107.896 115.552,107.592 L120.448,107.592 L120.448,101.944 L112.56,101.944 L112.56,107.592 L113.6,107.592 C112.96,108.968 111.952,110.216 110.768,111.016 C111.168,111.304 111.824,111.976 112.096,112.312 C112.304,112.152 112.512,111.96 112.72,111.768 L112.72,113.064 C112.72,114.52 113.072,114.968 114.672,114.968 L116.464,114.968 C116.672,115.4 116.816,115.96 116.848,116.36 C117.648,116.392 118.4,116.392 118.88,116.344 Z M118.64,104.136 L114.288,104.136 L114.288,103.288 L118.64,103.288 L118.64,104.136 Z M118.64,106.248 L114.288,106.248 L114.288,105.384 L118.64,105.384 L118.64,106.248 Z M118.032,114.856 C117.888,114.856 117.648,114.856 117.36,114.84 C117.888,114.632 118.128,114.152 118.256,113.176 C117.824,113.08 117.152,112.824 116.832,112.6 C116.784,113.384 116.704,113.512 116.336,113.512 L114.88,113.512 C114.416,113.512 114.336,113.448 114.336,113.048 L114.336,112.632 C115.456,112.408 116.736,112.072 117.728,111.656 L116.624,110.488 C116.064,110.776 115.2,111.064 114.336,111.304 L114.336,110.44 L113.92,110.44 L114.192,110.072 L114.192,110.072 L119.328,110.072 C119.152,113.064 118.928,114.328 118.608,114.648 C118.448,114.808 118.304,114.856 118.032,114.856 Z M130.544,116.424 C131.392,115.864 132.16,115.208 132.864,114.488 C133.456,115.688 134.24,116.392 135.264,116.392 C136.672,116.392 137.248,115.704 137.504,112.92 C137.04,112.744 136.4,112.344 136,111.912 C135.92,113.768 135.76,114.536 135.44,114.536 C134.96,114.536 134.544,113.928 134.192,112.888 C135.28,111.384 136.144,109.608 136.784,107.608 L135.088,107.08 C134.72,108.312 134.224,109.464 133.632,110.488 C133.424,109.304 133.28,107.912 133.184,106.392 L137.264,106.392 L137.264,104.824 L133.12,104.824 C133.088,103.736 133.072,102.616 133.104,101.464 L131.184,101.464 C131.184,102.6 131.2,103.72 131.248,104.824 L127.888,104.824 L127.888,103.976 L130.448,103.976 L130.448,102.536 L127.888,102.536 L127.888,101.464 L126.064,101.464 L126.064,102.536 L123.488,102.536 L123.488,103.976 L126.064,103.976 L126.064,104.824 L122.784,104.824 L122.784,106.392 L126.096,106.392 L126.096,107.096 L123.216,107.096 L123.216,108.424 L126.096,108.424 L126.096,109.048 L123.504,109.048 L123.504,112.984 L126.128,112.984 L126.128,113.608 L122.992,113.608 L122.992,114.984 L126.128,114.984 L126.128,116.408 L127.792,116.408 L127.792,114.984 L129.28,114.984 C129.744,115.368 130.272,115.944 130.544,116.424 Z M135.552,104.728 L137.04,103.704 C136.624,103.064 135.728,102.152 135.024,101.512 L133.632,102.44 C134.32,103.112 135.2,104.104 135.552,104.728 Z M130.72,113.96 L130.72,113.608 L127.792,113.608 L127.792,112.984 L130.512,112.984 L130.512,109.048 L127.808,109.048 L127.808,108.424 L130.736,108.424 L130.736,107.096 L127.808,107.096 L127.808,106.392 L131.328,106.392 C131.456,108.728 131.728,110.872 132.176,112.552 C131.728,113.08 131.232,113.544 130.72,113.96 Z M126.272,110.568 L124.832,110.568 L124.832,109.976 L126.272,109.976 L126.272,110.568 Z M129.12,110.568 L127.648,110.568 L127.648,109.976 L129.12,109.976 L129.12,110.568 Z M126.272,112.056 L124.832,112.056 L124.832,111.464 L126.272,111.464 L126.272,112.056 Z M129.12,112.056 L127.648,112.056 L127.648,111.464 L129.12,111.464 L129.12,112.056 Z M146.752,107.768 C146.88,107.144 146.944,106.552 146.976,105.96 L150.704,105.96 L150.704,111.752 L150.520045,111.524231 C149.611236,110.430116 148.021333,108.917867 146.752,107.768 Z M141.36,111.864 L141.36,105.96 L145.008,105.96 C144.928,107.928 144.384,110.296 141.36,111.864 Z M150.704,111.752 L150.704,114.168 C150.704,114.456 150.608,114.536 150.304,114.552 C150.217143,114.552 150.067592,114.553306 149.876245,114.554052 L149.384,114.554 C148.96,114.552 148.456,114.544 147.984,114.52 C148.256,115.016 148.544,115.864 148.608,116.408 C150.032,116.408 151.056,116.376 151.712,116.072 C152.384,115.768 152.592,115.24 152.592,114.216 L152.592,104.104 L146.992,104.104 L146.992,101.448 L145.024,101.448 L145.024,104.104 L139.456,104.104 L139.456,116.424 L141.36,116.424 L141.36,111.912 C141.824,112.264 142.416,112.936 142.688,113.32 C144.432,112.296 145.504,110.984 146.128,109.64 C147.296,110.808 148.496,112.104 149.136,112.984 L150.704,111.752 Z M157.04,106.168 L157.04,104.456 L166.88,104.456 L166.88,106.168 L168.832,106.168 L168.832,102.728 L162.928,102.728 L162.928,101.448 L160.976,101.448 L160.976,102.728 L155.184,102.728 L155.184,106.168 L157.04,106.168 Z M166.896,108.904 L168.336,107.656 C167.456,106.76 165.664,105.528 164.32,104.728 L162.976,105.848 C164.368,106.712 166.08,108.008 166.896,108.904 Z M156.864,109.032 C158.336,108.184 159.936,106.824 160.944,105.384 L159.104,104.76 C158.304,105.864 156.928,106.888 155.552,107.512 C155.936,107.864 156.592,108.632 156.864,109.032 Z M159.376,116.392 L159.376,115.944 L164.64,115.944 L164.64,116.376 L166.576,116.376 L166.576,112.056 C167.184,112.392 167.792,112.696 168.368,112.952 C168.688,112.408 169.12,111.704 169.552,111.224 C167.104,110.424 164.64,108.824 162.944,106.76 L161.008,106.76 C159.808,108.456 157.312,110.456 154.704,111.48 C155.072,111.896 155.536,112.632 155.776,113.096 C156.368,112.84 156.96,112.536 157.536,112.2 L157.536,116.392 L159.376,116.392 Z M164.768,110.904 L159.504,110.904 C160.56,110.12 161.456,109.272 162.064,108.488 C162.72,109.304 163.68,110.136 164.768,110.904 Z M164.64,114.264 L159.376,114.264 L159.376,112.568 L164.64,112.568 L164.64,114.264 Z M178.72,115.656 C182.72,115.048 184.768,112.68 184.768,109.352 C184.768,105.896 182.288,103.16 178.368,103.16 C174.256,103.16 171.072,106.296 171.072,109.944 C171.072,112.616 172.56,114.552 174.304,114.552 C176.032,114.552 177.408,112.6 178.352,109.4 C178.8,107.912 179.072,106.44 179.296,105.096 C181.424,105.464 182.608,107.096 182.608,109.288 C182.608,111.592 181.04,113.048 179.008,113.528 C178.592,113.624 178.144,113.704 177.536,113.784 L178.72,115.656 Z M174.368,112.12 C173.776,112.12 173.136,111.336 173.136,109.736 C173.136,107.992 174.528,105.688 177.152,105.144 C176.96,106.456 176.672,107.816 176.304,108.984 C175.664,111.128 175.024,112.12 174.368,112.12 Z M190.352,116.376 L190.352,105.416 C190.944,104.344 191.472,103.208 191.888,102.088 L190.032,101.512 C189.232,103.784 187.84,106.056 186.384,107.496 C186.72,107.976 187.264,109.064 187.44,109.528 C187.76,109.176 188.096,108.776 188.432,108.376 L188.432,116.376 L190.352,116.376 Z M196.96,116.392 L196.96,112.84 L201.312,112.84 L201.312,111.08 L196.96,111.08 L196.96,109.272 L201.104,109.272 L201.104,107.544 L196.96,107.544 L196.96,105.864 L201.504,105.864 L201.504,104.056 L195.296,104.056 C195.6,103.4 195.856,102.744 196.08,102.072 L194.24,101.608 C193.52,103.896 192.256,106.2 190.848,107.64 C191.248,107.944 192,108.616 192.304,108.968 C193.024,108.136 193.76,107.048 194.4,105.864 L195.008,105.864 L195.008,116.392 L196.96,116.392 Z M204.064,116.584 C205.376,114.632 205.712,111.512 205.776,109.176 L207.856,109.176 C207.808,111.192 207.744,111.96 207.584,112.184 C207.456,112.344 207.328,112.376 207.104,112.376 C206.848,112.376 206.304,112.36 205.728,112.312 C206.016,112.792 206.224,113.528 206.256,114.088 C206.992,114.104 207.68,114.104 208.096,114.04 C208.576,113.96 208.896,113.816 209.2,113.4 C209.568,112.936 209.664,111.512 209.712,108.152 C209.712,107.928 209.728,107.432 209.728,107.432 L205.776,107.432 L205.776,105.72 L210.416,105.72 C210.624,108.12 210.976,110.36 211.52,112.168 C210.592,113.208 209.488,114.088 208.256,114.76 C208.656,115.128 209.344,115.912 209.632,116.328 C210.624,115.72 211.52,115 212.336,114.152 C213.04,115.464 213.92,116.264 215.04,116.264 C216.528,116.264 217.168,115.56 217.472,112.6 C216.96,112.392 216.288,111.976 215.856,111.528 C215.776,113.528 215.584,114.328 215.2,114.328 C214.688,114.328 214.176,113.656 213.712,112.504 C214.864,110.952 215.808,109.096 216.464,107.016 L214.56,106.552 C214.176,107.848 213.648,109.032 213.024,110.104 C212.752,108.824 212.528,107.32 212.384,105.72 L217.328,105.72 L217.328,103.832 L215.664,103.832 L216.432,103.016 C215.872,102.488 214.704,101.752 213.824,101.304 L212.672,102.44 C213.328,102.84 214.128,103.352 214.72,103.832 L212.272,103.832 C212.24,103.048 212.224,102.264 212.24,101.464 L210.24,101.464 C210.24,102.264 210.272,103.048 210.304,103.832 L203.776,103.832 L203.776,108.504 C203.776,110.584 203.664,113.368 202.448,115.288 C202.88,115.512 203.728,116.216 204.064,116.584 Z" id="掲載内容の作成"></path>
                <path d="M251.632,116.36 L251.632,110.84 C252.272,111.496 252.944,112.216 253.328,112.712 L254.432,111.08 C254,110.744 252.416,109.384 251.632,108.792 L251.632,107.928 L254.384,107.928 L254.384,106.184 L251.632,106.184 L251.632,103.8 C252.608,103.56 253.536,103.288 254.336,102.968 L252.992,101.496 C251.44,102.2 248.864,102.808 246.56,103.144 C246.784,103.544 247.024,104.216 247.104,104.632 C247.968,104.52 248.88,104.376 249.792,104.2 L249.792,106.184 L246.752,106.184 L246.752,107.928 L249.424,107.928 C248.704,109.592 247.536,111.416 246.384,112.536 C246.688,113.016 247.152,113.832 247.344,114.392 C248.224,113.464 249.072,112.088 249.792,110.632 L249.792,116.36 L251.632,116.36 Z M259.92,116.008 C260.576,115.704 260.8,115.176 260.8,114.072 L260.8,101.752 L258.912,101.752 L258.912,114.056 C258.912,114.344 258.784,114.44 258.48,114.456 L258.175837,114.455528 C257.704408,114.453796 256.897143,114.445714 256.08,114.408 C256.368,114.952 256.656,115.832 256.736,116.376 C258.192,116.392 259.264,116.328 259.92,116.008 Z M256.992,112.328 L256.992,103.384 L255.136,103.384 L255.136,112.328 L256.992,112.328 Z M263.92,116.472 C265.072,115.224 265.648,113.464 265.936,111.72 L269.2,111.72 L269.2,116.184 L271.12,116.184 L271.12,111.72 L274.496,111.72 L274.496,114.12 C274.496,114.408 274.384,114.504 274.08,114.504 C273.997714,114.504 273.852735,114.505306 273.666706,114.506052 L273.188,114.506 C272.776,114.504 272.288,114.496 271.84,114.472 C272.08,114.968 272.384,115.784 272.448,116.296 C273.888,116.312 274.864,116.28 275.52,115.96 C276.16,115.672 276.384,115.16 276.384,114.136 L276.384,102.52 L264.304,102.52 L264.304,108.232 C264.304,110.472 264.16,113.32 262.416,115.24 C262.848,115.464 263.616,116.12 263.92,116.472 Z M269.2,106.184 L266.192,106.184 L266.192,104.328 L269.2,104.328 L269.2,106.184 Z M274.496,106.184 L271.12,106.184 L271.12,104.328 L274.496,104.328 L274.496,106.184 Z M274.496,109.928 L271.12,109.928 L271.12,107.96 L274.496,107.96 L274.496,109.928 Z M269.2,109.928 L266.144,109.928 C266.176,109.336 266.192,108.76 266.192,108.248 L266.192,107.96 L269.2,107.96 L269.2,109.928 Z M281.152,116.392 L281.152,107.72 L285.456,107.72 L285.456,102.056 L279.296,102.056 L279.296,116.392 L281.152,116.392 Z M289.408,116.344 C290.624,116.344 291.456,116.296 292.032,115.976 C292.608,115.672 292.784,115.144 292.784,114.168 L292.784,102.056 L286.512,102.056 L286.512,107.752 L290.912,107.752 L290.912,114.152 C290.912,114.376 290.832,114.472 290.576,114.472 C290.336,114.488 289.552,114.488 288.832,114.456 C289.088,114.952 289.344,115.816 289.408,116.344 Z M283.664,104.232 L281.152,104.232 L281.152,103.416 L283.664,103.416 L283.664,104.232 Z M290.912,104.232 L288.32,104.232 L288.32,103.416 L290.912,103.416 L290.912,104.232 Z M283.664,106.344 L281.152,106.344 L281.152,105.464 L283.664,105.464 L283.664,106.344 Z M290.912,106.376 L288.32,106.376 L288.32,105.464 L290.912,105.464 L290.912,106.376 Z M283.104,116.376 C284.464,115.448 284.992,113.896 285.152,112.792 L286.688,112.792 L286.688,116.088 L288.352,116.088 L288.352,112.792 L290.112,112.792 L290.112,111.24 L288.352,111.24 L288.352,110.04 L289.856,110.04 L289.856,108.536 L282.128,108.536 L282.128,110.04 L283.584,110.04 L283.584,111.24 L281.904,111.24 L281.904,112.792 L283.52,112.792 C283.36,113.608 282.912,114.648 281.888,115.288 C282.256,115.544 282.832,116.04 283.104,116.376 Z M286.688,111.24 L285.2,111.24 L285.2,110.04 L286.688,110.04 L286.688,111.24 Z M308.112,109.144 L309.76,108.264 C309.376,107.048 308.32,105.272 307.328,103.928 L305.824,104.696 C306.176,105.208 306.528,105.784 306.864,106.376 C305.872,106.424 304.896,106.488 303.968,106.536 C304.56,105.144 305.168,103.4 305.68,101.816 L303.568,101.448 C303.264,103.016 302.688,105.08 302.112,106.648 L300.8,106.712 L300.992,108.536 C302.816,108.408 305.328,108.232 307.712,108.04 C307.888,108.44 308.016,108.808 308.112,109.144 Z M295.84,116.456 C297.024,115.72 297.984,114.76 298.736,113.528 C299.312,114.056 299.808,114.584 300.144,115.032 L301.28,113.512 C300.88,113 300.272,112.424 299.568,111.848 C300.288,109.992 300.72,107.672 300.896,104.76 L299.76,104.584 L299.44,104.632 L297.984,104.632 C298.208,103.592 298.416,102.568 298.592,101.624 L296.8,101.448 C296.64,102.44 296.432,103.528 296.208,104.632 L294.672,104.632 L294.672,106.376 L295.84,106.376 C295.44,108.232 295.008,110.008 294.624,111.32 L296.16,112.152 L296.32,111.592 C296.64,111.816 296.976,112.072 297.296,112.328 C296.624,113.496 295.744,114.376 294.688,114.936 C295.056,115.288 295.568,115.976 295.84,116.456 Z M298.048,110.696 C297.616,110.392 297.184,110.104 296.768,109.848 C297.04,108.76 297.328,107.576 297.6,106.376 L299.008,106.376 C298.816,108.008 298.512,109.464 298.048,110.696 Z M303.616,116.392 L303.616,115.768 L306.976,115.768 L306.976,116.328 L308.864,116.328 L308.864,109.72 L301.824,109.72 L301.824,116.392 L303.616,116.392 Z M306.976,114.056 L303.616,114.056 L303.616,111.432 L306.976,111.432 L306.976,114.056 Z" id="利用開始"></path>
            </g>
        </g>
    </g>
</svg>