<svg xmlns="http://www.w3.org/2000/svg" xmlns:xlink="http://www.w3.org/1999/xlink" width="92" height="92" viewBox="0 0 92 92">
    <defs>
        <path id="6yni6m12xa" d="M0 0.041L33.32 0.041 33.32 38.671 0 38.671z"/>
        <path id="nermq9gzwc" d="M0.064 0L8.174 0 8.174 8.073 0.064 8.073z"/>
    </defs>
    <g fill="none" fill-rule="evenodd">
        <g>
            <g transform="translate(-259 -3143) translate(259 3143)">
                <g>
                    <g transform="translate(21 18) translate(0 17.102)">
                        <mask id="qtbqsngv6b" fill="#fff">
                            <use xlink:href="#6yni6m12xa"/>
                        </mask>
                        <path fill="#D54F67" d="M24.755 20.85l-1.95-4.084c.984.818 1.946 1.541 2.861 2.146.634.42 1.243.776 1.83 1.078l-2.741.86zm-4.613 1.45l-7.2-15.087.423-1.356c.529 1.03 1.247 2.138 2.121 3.302 1.125 1.494 2.508 3.071 4.078 4.64.286.288.573.567.861.842l3.142 6.584-3.425 1.075zm-4.614 1.45l-4.68-9.813 1.555-4.992 6.552 13.728-3.427 1.076zm-4.612 1.448l-2.163-4.536 1.554-4.992 4.034 8.452-3.425 1.076zm-3.965 1.246l1.262-4.05 1.515 3.178-2.777.872zm23.264-14.58c-1.124-1.493-2.506-3.07-4.075-4.64-2.095-2.093-4.2-3.854-6.103-5.112-.954-.63-1.855-1.135-2.698-1.493-.844-.354-1.625-.574-2.388-.578-.333.001-.665.046-.987.16-.32.11-.629.296-.876.546-.251.25-.437.556-.55.877-.081.236-.126.478-.146.72L4.544 27.537c-.423.317-.783.636-1.086.96-.599.638-.979 1.304-1.188 1.958-.212.653-.257 1.278-.257 1.843.001.545.04 1.04.038 1.492.002.307-.015.593-.063.865-.076.408-.211.786-.5 1.207-.292.418-.75.88-1.488 1.384l.972 1.426c.58-.395 1.05-.794 1.43-1.204.57-.612.932-1.256 1.133-1.889.2-.632.244-1.238.244-1.79-.001-.54-.04-1.037-.038-1.49 0-.316.017-.611.068-.894.079-.425.223-.823.534-1.269.253-.36.627-.753 1.181-1.174l25.426-7.986c.267-.016.532-.061.79-.152.319-.112.627-.297.876-.547l-.698-.698.698.698c.25-.25.435-.557.547-.877.114-.321.157-.654.157-.988-.003-.762-.222-1.543-.577-2.387-.537-1.262-1.404-2.665-2.528-4.16z" mask="url(#qtbqsngv6b)"/>
                    </g>
                    <path fill="#D54F67" d="M23.504 7.542L24.676 7.924 21.861 16.562 20.688 16.18zM34.665 28.684L35.052 29.856 42.336 27.463 41.951 26.291zM28.236 15.753L29.253 16.453 34.6 8.691 33.584 7.992zM30.72 24.395L43.236 15.824 42.54 14.807 30.023 23.378zM47.91 22.013L45.931 23.29 43.758 22.383 44.36 24.66 42.826 26.448 45.178 26.578 46.404 28.59 47.254 26.392 49.546 25.848 47.721 24.36zM35.749 13.28L34.571 12.79 34.898 14.023 34.066 14.991 35.341 15.062 36.005 16.152 36.467 14.962 37.708 14.667 36.718 13.86 36.822 12.588zM37.21 24.609L37.725 25.455 38.083 24.531 39.047 24.302 38.279 23.676 38.359 22.689 37.526 23.226 36.613 22.845 36.865 23.803 36.221 24.555zM26.394 18.654L26.909 19.499 27.267 18.576 28.231 18.346 27.463 17.721 27.543 16.734 26.71 17.271 25.797 16.889 26.051 17.847 25.405 18.599zM18.371 11.327L18.886 12.172 19.244 11.249 20.208 11.02 19.44 10.394 19.52 9.407 18.687 9.944 17.773 9.563 18.026 10.52 17.38 11.272zM39.607 32.247L38.986 31.475 38.75 32.437 37.825 32.789 38.667 33.31 38.715 34.3 39.472 33.66 40.427 33.919 40.052 33.002 40.596 32.174zM25.205 5.778L26.18 7.378 26.858 5.631 28.679 5.198 27.227 4.015 27.378 2.148 25.804 3.164 24.076 2.443 24.556 4.254 23.334 5.675z" transform="translate(21 18)"/>
                    <g transform="translate(21 18) translate(32.462)">
                        <mask id="lm0qr7ssid" fill="#fff">
                            <use xlink:href="#nermq9gzwc"/>
                        </mask>
                        <path fill="#D54F67" d="M2.807 5.353L3.696 8.073 5.313 5.715 8.174 5.71 6.431 3.442 7.311 0.721 4.616 1.678 2.299 0 2.376 2.859 0.064 4.544z" mask="url(#lm0qr7ssid)"/>
                    </g>
                    <path fill="#D54F67" d="M45.243 15.787L47.08 14.564 49.131 15.384 48.536 13.259 49.949 11.563 47.742 11.471 46.568 9.603 45.799 11.673 43.659 12.214 45.39 13.583z" transform="translate(21 18)"/>
                </g>
                <circle cx="46" cy="46" r="45" stroke="#D54F67" stroke-width="2"/>
            </g>
        </g>
    </g>
</svg>
