<svg xmlns="http://www.w3.org/2000/svg" xmlns:xlink="http://www.w3.org/1999/xlink" width="92" height="92" viewBox="0 0 92 92">
    <defs>
        <path id="18fr7mszua" d="M0 46.524L52.642 46.524 52.642 0 0 0z"/>
    </defs>
    <g fill="none" fill-rule="evenodd">
        <g>
            <g transform="translate(-142 -3143) translate(142 3143)">
                <g transform="translate(24 23)">
                    <path fill="#D54F67" d="M51.836 15.79l-1.772-1.772c-1.075-1.076-2.819-1.075-3.894 0l-1.658 1.659 5.665 5.665 1.66-1.658c1.074-1.075 1.074-2.819 0-3.894M1.9 15.281h4.769c1.048 0 1.9-.85 1.9-1.901 0-1.05-.852-1.9-1.9-1.9h-4.77C.851 11.48 0 12.33 0 13.38c0 1.05.85 1.901 1.9 1.901"/>
                    <mask id="6v4d2juphb" fill="#fff">
                        <use xlink:href="#18fr7mszua"/>
                    </mask>
                    <path fill="#D54F67" d="M2.347 29.254L5.903 29.254 5.903 17.27 2.347 17.27zM8.568 33.144c0-1.05-.85-1.901-1.9-1.901H1.9C.851 31.243 0 32.094 0 33.144s.85 1.9 1.9 1.9h4.769c1.048 0 1.9-.85 1.9-1.9M14.353 15.075L30.353 15.075 30.353 12.409 14.353 12.409zM14.353 24.854L30.353 24.854 30.353 22.187 14.353 22.187zM14.353 34.632L24.131 34.632 24.131 31.965 14.353 31.965z" mask="url(#6v4d2juphb)"/>
                    <path fill="#D54F67" d="M5.903 4.298c0-.409.333-.741.742-.742h27.107c.907 0 1.71.362 2.307.955.593.596.954 1.4.955 2.306V20.41l3.556-3.556V6.817C40.568 3.051 37.518.001 33.752 0H6.645C4.27.002 2.349 1.924 2.347 4.298v5.193h3.556V4.298zM37.014 39.707c-.001.906-.362 1.71-.955 2.305-.596.594-1.4.955-2.307.956H6.645c-.409 0-.741-.333-.742-.742v-5.193H2.347v5.193c.002 2.374 1.923 4.296 4.298 4.298h27.107c3.766 0 6.816-3.051 6.818-6.817v-5.992l-3.556 3.556v2.436z" mask="url(#6v4d2juphb)"/>
                    <path fill="#D54F67" d="M28.975 31.214L28.975 36.879 34.64 36.879 48.632 22.887 42.967 17.222z" mask="url(#6v4d2juphb)"/>
                </g>
                <circle cx="46" cy="46" r="45" stroke="#D54F67" stroke-width="2"/>
            </g>
        </g>
    </g>
</svg>
