<svg xmlns="http://www.w3.org/2000/svg" xmlns:xlink="http://www.w3.org/1999/xlink" width="200" height="62" viewBox="0 0 200 62">
    <defs>
        <path id="sg95y89kpa" d="M0 0L199.311 0 199.311 61.313 0 61.313z"/>
    </defs>
    <g fill="none" fill-rule="evenodd">
        <g>
            <g transform="translate(-88 -373) translate(88 373)">
                <mask id="i27rzt7j5b" fill="#fff">
                    <use xlink:href="#sg95y89kpa"/>
                </mask>
                <path fill="#FFF" d="M149.395 4.65c-2.801 0-5.072 2.252-5.072 5.03 0 2.78 2.27 5.031 5.072 5.031 2.8 0 5.071-2.252 5.071-5.03 0-2.78-2.27-5.031-5.07-5.031zm-42.695 0c-2.801 0-5.072 2.252-5.072 5.03 0 2.78 2.271 5.031 5.072 5.031s5.072-2.252 5.072-5.03c0-2.78-2.27-5.031-5.072-5.031zm83.212 33.715c0-7.71-1.987-13.356-7.59-13.356-5.782 0-9.397 5.646-9.578 13.715h17.168v-.359zm-17.077 3.227c.723 9.86 6.868 15.328 15.09 15.328 3.795 0 7.951-1.344 10.754-3.048l.632 1.704c-3.074 3.136-8.133 5.737-15.362 5.737-11.747 0-20.06-7.62-20.06-19.273 0-12.997 10.031-19.631 19.97-19.631 9.758 0 14.82 6.364 14.82 16.045v3.138h-25.844zm-27.733 18.823h8.585V23.216h-8.585v37.2zM131.775 0v52.438c0 5.379.994 6.454 5.061 6.454h.361l-.723 1.882c-1.266.36-2.44.539-4.879.539-5.331 0-8.403-2.601-8.403-9.144V-.001h8.583zm-29.367 60.415h8.585V23.216h-8.585v37.2zm-20.33-2.958V40.695l-2.168.449c-8.856 1.792-12.561 4.66-12.561 9.68 0 5.29 3.254 7.709 7.953 7.709 2.078 0 4.97-.358 6.777-1.076zm8.584.539c-3.433 1.523-9.848 3.317-16.354 3.317-7.229 0-16.175-1.794-16.175-10.13 0-6.274 5.332-9.143 21.416-12.55l2.53-.537v-1.345c0-7.797-2.17-12.1-7.68-12.1-5.784 0-7.14 4.75-7.14 12.19-4.066 0-7.228-2.062-7.228-5.379 0-5.467 6.145-9.053 15.18-9.053 10.482 0 15.451 4.304 15.451 16.045v19.542zM7.59 10.488v49.927H3.976V5.467L0 0h11.836l31.626 43.923V0h3.616v60.864h-2.982L7.59 10.488z" mask="url(#i27rzt7j5b)"/>
            </g>
        </g>
    </g>
</svg>
