<svg xmlns="http://www.w3.org/2000/svg" xmlns:xlink="http://www.w3.org/1999/xlink" width="100" height="31" viewBox="0 0 100 31">
    <defs>
        <path id="81vzgdczza" d="M0 0L99.655 0 99.655 30.656 0 30.656z"/>
    </defs>
    <g fill="none" fill-rule="evenodd">
        <g>
            <g transform="translate(-138 -711) translate(138 711)">
                <mask id="og5j03er7b" fill="#fff">
                    <use xlink:href="#81vzgdczza"/>
                </mask>
                <path fill="#D54F67" d="M74.698 2.325c-1.401 0-2.536 1.126-2.536 2.515 0 1.39 1.135 2.516 2.536 2.516 1.4 0 2.535-1.126 2.535-2.516 0-1.39-1.135-2.515-2.535-2.515zm-21.348 0c-1.4 0-2.536 1.126-2.536 2.515 0 1.39 1.135 2.516 2.536 2.516 1.4 0 2.536-1.126 2.536-2.516 0-1.39-1.135-2.515-2.536-2.515zm41.606 16.858c0-3.855-.994-6.679-3.795-6.679-2.891 0-4.699 2.824-4.789 6.858h8.584v-.18zm-8.539 1.613c.362 4.93 3.434 7.664 7.545 7.664 1.898 0 3.976-.672 5.377-1.524l.317.852c-1.537 1.568-4.067 2.868-7.682 2.868-5.873 0-10.03-3.81-10.03-9.636 0-6.499 5.016-9.816 9.985-9.816 4.88 0 7.41 3.182 7.41 8.023v1.57H86.417zm-13.866 9.412h4.293v-18.6H72.55v18.6zM65.887 0v26.22c0 2.688.498 3.226 2.531 3.226h.18l-.361.941c-.633.18-1.22.27-2.44.27-2.665 0-4.201-1.301-4.201-4.573V0h4.291zM51.204 30.208h4.292v-18.6h-4.292v18.6zm-10.165-1.48v-8.38l-1.084.224c-4.428.896-6.28 2.33-6.28 4.84 0 2.645 1.626 3.854 3.976 3.854 1.04 0 2.485-.179 3.388-.537zm4.292.27c-1.716.761-4.924 1.658-8.177 1.658-3.614 0-8.087-.897-8.087-5.065 0-3.136 2.665-4.57 10.707-6.274l1.265-.269v-.673c0-3.898-1.084-6.05-3.84-6.05-2.891 0-3.569 2.375-3.569 6.095-2.034 0-3.614-1.03-3.614-2.689 0-2.734 3.072-4.527 7.59-4.527 5.24 0 7.725 2.153 7.725 8.023v9.77zM3.795 5.244v24.964H1.988V2.734L0 0h5.918l15.813 21.962V0h1.808v30.432h-1.491L3.795 5.244z" mask="url(#og5j03er7b)"/>
            </g>
        </g>
    </g>
</svg>
