<svg width="56" height="56" xmlns="http://www.w3.org/2000/svg">
    <path d="M22.4 8.867c5.412 0 9.8 4.387 9.8 9.8 0 5.412-4.388 9.8-9.8 9.8-5.412 0-9.8-4.388-9.8-9.8 0-5.413 4.388-9.8 9.8-9.8zm-1.207 5.615h-1.86l1.702 2.95h-1.447v1.123h1.961v1.093h-1.961v1.116h1.961v1.782h1.923v-1.782h1.846v-1.116h-1.846v-1.093h1.846v-1.122h-1.307l1.634-2.951h-1.82l-1.282 2.346-1.35-2.346zM33.6 4.2a7.933 7.933 0 0 1 1.096 15.792c.047-.436.07-.878.07-1.325 0-5.09-3.073-9.46-7.465-11.358A7.922 7.922 0 0 1 33.6 4.2zm-2.522 25.667a2.483 2.483 0 0 1 0 4.966h-5.37a1.242 1.242 0 0 0-.078 2.48l.079.003h8.405l9.612-6.49a2.48 2.48 0 0 1 3.378.576l.065.093c.77 1.142.481 2.69-.649 3.478l-10.48 7.309-5.73 3.586a2.667 2.667 0 0 1-1.906.36l-12.032-2.26-7.319 6.793a.667.667 0 0 1-1.12-.49v-11.8c0-.206.096-.402.26-.528l9.768-7.522a2.667 2.667 0 0 1 1.627-.554h11.49z" fill="#000" fill-rule="evenodd"/>
</svg>
