<svg width="45" height="27" xmlns="http://www.w3.org/2000/svg">
    <g fill="none" fill-rule="evenodd">
        <rect width="45" height="27" rx="4" fill="#000"/>
        <path d="M8.915 25.457h27.178a2.399 2.399 0 0 0 2.399-2.399V3.942a2.399 2.399 0 0 0-2.399-2.399H8.915a2.399 2.399 0 0 0-2.399 2.399v19.116a2.399 2.399 0 0 0 2.399 2.399z" fill="#FFFFFE"/>
        <path fill="#26376E" d="m23.748 14.87.142-.003.139-.005.139-.009.139-.01.137-.016.138-.019.135-.023.137-.024.134-.03.135-.031.132-.034.132-.038.133-.043.13-.043.128-.048.128-.051.125-.053.126-.056.123-.059.123-.064.12-.063.118-.067.119-.07.115-.073.114-.074.112-.08.11-.078.11-.084.105-.086.106-.086.1-.09.101-.093.099-.092.095-.089.094-.097.091-.101.088-.102.087-.106.083-.106.08-.108.08-.111.076-.11.072-.116.071-.115.068-.118.063-.117.062-.122.058-.123.054-.121.054-.127.047-.124.047-.129.043-.129.038-.13.036-.132.031-.133.03-.134.024-.135.02-.135.018-.138.013-.138.01-.138.006-.14.003-.14-.003-.154-.006-.154-.01-.148-.013-.15-.018-.146-.02-.147-.025-.143-.029-.142-.03-.14-.037-.14-.038-.138-.043-.134-.047-.132-.047-.134-.054-.129L29 7.154l-.058-.127-.062-.124-.063-.122-.068-.12-.071-.117-.072-.116-.076-.113-.08-.11-.08-.11-.083-.107-.175-.208-.091-.1-.094-.096-.095-.097-.099-.093-.1-.09-.101-.088-.106-.086-.105-.084-.11-.08-.11-.078-.112-.075-.114-.074-.115-.07-.119-.068-.118-.066-.12-.06-.123-.06-.123-.056-.126-.054-.125-.052-.128-.047-.128-.045-.13-.044-.133-.038-.132-.036-.132-.034-.135-.031-.134-.028-.137-.022-.135-.023-.138-.018-.137-.013-.14-.012-.138-.009-.14-.005-.14-.002h-2.575l-.144.002-.138.005-.142.009-.138.012-.138.013-.137.018-.136.023-.135.022-.135.028-.132.031-.13.034-.13.036-.13.038-.126.044-.125.045-.125.047-.124.052-.121.054-.119.057-.119.059-.116.063-.115.063-.112.067-.112.07-.11.075-.107.075-.106.079-.103.079-.101.084-.099.086-.099.087-.094.09-.092.096-.091.095-.088.097-.085.099-.085.104-.081.104-.078.106-.077.111-.072.11-.071.113-.068.116-.067.118-.063.119-.058.122-.058.124-.054.127-.052.126-.047.131-.045.132-.042.132-.04.136-.037.136-.031.14-.03.14-.026.142-.023.143-.02.147-.015.146-.012.15-.008.148-.007.154-.002.154.002.14.007.14.008.138.012.138.016.138.02.135.022.135.027.134.029.133.031.131.036.131.04.13.043.128.045.126.047.125.052.124.054.122.058.12.058.12.063.115.067.117.068.113.071.113.072.109.077.108.078.108.081.104.085.102.085.101.088.097.091.089.092.094.094.09.1.091.098.088.101.084.103.084.106.079.107.08.11.073.112.073.112.07.115.067.116.063.12.064.118.059.121.056.124.055.125.05.125.047.126.043.13.043.13.038.13.034.132.032.135.029.135.024.136.023.137.019.138.015.138.011.142.01.138.004.144.002h2.574"/>
        <path fill="#FFFFFE" d="m21.185 4.302-.13.003-.127.004-.129.01-.125.01-.128.014-.124.018-.125.02-.12.025-.124.026-.119.031-.122.032-.115.036-.12.038-.114.04-.114.044-.114.047-.113.05-.11.052-.108.054-.107.056-.106.059-.105.064-.1.063-.102.068-.099.07-.098.07-.095.074-.093.077-.092.077-.09.081-.09.081-.086.087-.082.085-.083.09-.079.09-.078.093-.076.093-.072.097-.072.097-.07.102-.065.102-.065.102-.06.106-.06.106-.057.108-.054.11-.051.11-.05.112-.044.116-.045.115-.04.115-.038.12-.036.118-.032.122-.029.12-.027.124-.022.121-.023.127-.015.124-.016.13-.011.125-.01.13-.004.128v.262l.005.129.009.129.011.128.016.127.015.124.023.127.022.121.027.125.029.122.032.12.036.12.037.117.041.116.045.115.045.114.049.113.051.112.054.108.056.108.061.107.06.106.065.104.066.099.069.102.144.194.076.092.157.186.083.088.082.086.086.086.09.081.09.074.092.075.093.077.095.074.098.07.1.07.1.068.101.063.105.064.106.059.107.056.108.054.11.052.113.05.114.047.114.043.114.041.12.038.115.037.122.031.119.03.123.027.121.024.125.02.124.02.128.013.125.01.129.01.127.004.13.002.13-.002.128-.004.128-.01.128-.01.125-.014.124-.018.125-.02.122-.025.122-.027.122-.03.119-.031.119-.037.116-.038.114-.04.117-.044.112-.047.113-.05.109-.052.108-.054.107-.056.106-.06.105-.063.104-.063.1-.068.1-.07.095-.07.096-.074.095-.077.092-.075.09-.074.087-.081.086-.086.085-.086.08-.088.08-.093.08-.093.074-.092.073-.097.072-.097.068-.102.067-.1.062-.103.064-.106.057-.107.057-.108.054-.108.05-.112.05-.113.048-.114.042-.115.04-.116.04-.118.035-.12.031-.119.031-.122.025-.125.025-.121.02-.127.018-.124.014-.127.01-.128.01-.13.004-.128.002-.13-.002-.132-.005-.129-.008-.129-.011-.126-.014-.129-.018-.124-.02-.127-.025-.121-.025-.125-.031-.12-.031-.121-.036-.118-.039-.12-.04-.115-.042-.115-.048-.116-.05-.112-.05-.11-.054-.11-.057-.108-.057-.106-.064-.106-.062-.102-.067-.102-.068-.102-.072-.097-.073-.097-.074-.093-.08-.092-.08-.09-.08-.09-.171-.173-.087-.08-.09-.082-.092-.077-.095-.077-.096-.074-.096-.07-.098-.07-.101-.068-.104-.063-.105-.064-.106-.059-.107-.056-.108-.054-.11-.052-.112-.05-.112-.047-.117-.043-.114-.04-.116-.04-.119-.035-.12-.032-.12-.031-.123-.026-.122-.024-.125-.02-.124-.019-.125-.013-.128-.012-.128-.009-.128-.004-.128-.003h-.002"/>
        <path fill="#1A1919" d="M14.91 17.54V17.5l-.003-.036-.004-.031-.007-.03-.01-.027-.01-.023-.014-.025-.018-.02-.02-.02-.025-.019-.027-.02-.032-.018-.033-.018-.041-.019-.092-.038v-.11l.187-.063.184-.063.094-.034.097-.036.1-.041.1-.043h.007l.007.002.004.003.007.007.005.006.002.012.003.01v.395l.123-.086.12-.081.058-.04.058-.035.061-.034.058-.032.062-.027.06-.025.063-.023.065-.018.066-.016.067-.009.067-.007.072-.002h.046l.042.002.043.007.038.007.039.009.035.012.036.01.032.017.031.016.03.018.029.018.025.02.025.023.024.025.02.025.02.027.021.03.018.029.016.029.014.032.013.034.013.034.009.034.011.036.007.039.009.036.009.08.007.08.002.085v1.5l.002.035.005.028.007.028.009.022.01.019.017.016.015.01.019.012.02.007.022.007.025.004.025.003.054.002h.164v.152l-.153-.003-.15-.004-.156-.002-.153-.003h-.158l-.155.005-.155.002-.157.005v-.152h.162l.053-.002.025-.003.023-.004.02-.007.02-.007.018-.011.015-.011.014-.016.009-.019.01-.022.006-.028.005-.028.002-.035v-1.505l-.002-.061-.01-.056-.011-.053-.015-.048-.01-.022-.01-.023-.012-.02-.01-.02-.017-.019-.014-.018-.015-.016-.016-.015-.018-.016-.02-.014-.038-.025-.046-.022-.046-.017-.05-.013-.054-.01-.058-.006-.06-.002-.035.002-.038.005-.04.009-.044.011-.042.012-.043.015-.045.019-.045.02-.092.043-.088.045-.083.05-.076.05v1.72l.002.035.004.028.007.028.009.022.013.019.014.016.018.01.018.012.02.007.023.007.022.004.027.003.054.002h.162v.152l-.15-.003-.154-.004-.152-.002-.156-.003h-.155l-.157.005-.156.002-.155.005v-.152h.162l.054-.002.023-.003.024-.004.02-.007.02-.007.016-.011.016-.011.013-.016.012-.019.009-.022.007-.028.004-.028V17.54M18.891 17.633h.026l.021-.002.02-.004.019-.005.015-.007.011-.01.012-.008.009-.01.009-.011.004-.011.009-.025.005-.025v-.027l-.002-.054-.007-.055-.01-.05-.013-.05-.02-.047-.022-.043-.025-.041-.031-.039-.034-.034-.036-.032-.02-.013-.023-.013-.02-.012-.025-.011-.023-.01-.024-.008-.025-.007-.027-.005-.027-.004-.03-.005-.029-.003h-.063l-.03.003-.032.005-.03.004-.03.007-.03.01-.03.008-.027.012-.027.01-.026.014-.025.016-.026.016-.024.018-.022.019-.023.02-.023.022-.02.023-.02.023-.02.025-.018.027-.034.057-.03.058-.026.067-.023.067-.02.073-.014.077h1.006zm-1.023.186-.005.023-.002.024-.003.068.003.093.007.13.004.052.005.052.008.05.01.048.01.05.014.047.014.045.018.048.016.042.02.044.02.043.022.04.022.04.028.038.025.036.027.036.029.034.032.032.029.03.034.027.033.027.034.025.036.02.036.02.038.018.039.016.038.014.04.011.04.01.041.006.043.005h.101l.06-.007.055-.009.054-.014.052-.016.05-.02.051-.022.05-.025.046-.028.048-.03.045-.033.045-.034.043-.034.042-.039.04-.038.041-.039.02.019.021.02.02.02.02.02-.051.069-.052.063-.054.061-.056.061-.056.057-.062.055-.06.052-.065.045-.068.043-.034.02-.033.019-.036.018-.036.016-.039.013-.038.014-.038.013-.038.01-.04.008-.042.01-.04.004-.042.004-.043.003-.045.002-.084-.005-.08-.006-.075-.012-.072-.018-.067-.02-.065-.025-.061-.03-.056-.03-.055-.035-.05-.039-.044-.04-.045-.043-.038-.046-.038-.048-.034-.05-.031-.05-.03-.049-.027-.052-.023-.052-.022-.055-.018-.052-.018-.054-.015-.052-.012-.05-.011-.052-.01-.05-.006-.048-.007-.045-.006-.086-.002-.075.002-.104.004-.1.011-.098.014-.09.018-.087.022-.08.025-.08.027-.073.032-.07.033-.066.034-.063.038-.06.04-.054.04-.05.046-.05.043-.042.047-.041.048-.039.047-.034.047-.031.05-.028.047-.027.05-.023.047-.017.047-.019.047-.013.047-.014.045-.01.046-.006.042-.007.04-.002h.084l.043.002.045.005.042.006.045.008.043.009.043.01.043.014.042.017.04.015.043.018.039.02.038.023.038.026.039.024.034.027.033.03.034.032.03.031.03.035.028.038.024.036.025.041.023.043.017.043.018.045.016.048.012.05.011.052.007.052.004.055.002.058v.053l-.002.025-.002.027-.014.01-.013.008-.014.01-.013.006h-1.622zM19.68 19.274h.215l.053-.002.025-.003.023-.004.02-.007.02-.007.018-.011.016-.011.011-.016.01-.019.01-.022.007-.028.005-.028.002-.035v-1.634l-.002-.031-.009-.03-.01-.025-.015-.025-.018-.02-.018-.018-.022-.016-.025-.016-.025-.014-.025-.011-.05-.02-.044-.019-.038-.018v-.086l.148-.066.133-.06.114-.058.096-.05.08-.04.06-.032.045-.018.017-.007h.025l.01.002.01.005.006.009.005.009.004.014.003.015v.544h.013l.059-.09.033-.05.034-.048.038-.051.04-.05.043-.048.046-.048.046-.043.05-.041.052-.036.027-.018.027-.014.03-.013.029-.014.029-.01.03-.008.03-.007.032-.007.032-.002h.06l.027.005.03.004.026.009.03.01.027.013.027.016.024.018.023.02.02.023.02.025.016.027.014.032.009.032.007.036.002.038-.002.03-.003.027-.006.027-.01.027-.01.028-.012.024-.016.023-.017.02-.019.021-.02.018-.022.014-.025.013-.025.011-.027.007-.029.005-.03.002-.03-.002-.028-.005-.025-.007-.022-.009-.02-.01-.021-.012-.035-.025-.036-.027-.021-.011-.023-.01-.024-.009-.03-.007-.03-.004-.035-.002-.022.002-.025.004-.03.007-.031.014-.034.013-.035.021-.037.023-.035.027-.035.03-.03.035-.03.039-.013.023-.014.022-.011.023-.01.025-.008.027-.01.027-.004.028-.004.029-.002.032-.002.032v1.366l.002.035.002.028.006.028.01.022.01.019.014.016.016.01.018.012.018.007.023.007.022.004.025.003.052.002h.382v.152l-.225-.005-.205-.002-.191-.005h-.364l-.179.005-.17.002-.162.005v-.152M21.906 18.617l.016.072.02.068.022.068.028.066.03.061.035.059.02.027.02.028.02.024.023.026.022.024.025.023.025.02.025.02.026.019.03.018.03.016.028.013.032.014.033.011.034.01.034.009.036.006.036.005.038.002h.039l.063-.002.056-.007.052-.011.047-.014.042-.02.04-.023.033-.025.029-.027.027-.03.02-.034.018-.034.016-.033.011-.04.007-.035.005-.039.002-.039v-.031l-.002-.03-.005-.03-.007-.026-.009-.028-.01-.024-.008-.026-.014-.024-.013-.023-.016-.02-.015-.02-.016-.021-.038-.038-.043-.035-.047-.034-.05-.029-.052-.03-.054-.03-.112-.053-.12-.055-.058-.027-.059-.03-.056-.032-.056-.031-.056-.036-.052-.036-.05-.041-.045-.044-.021-.025-.021-.022-.02-.025-.018-.027-.018-.027-.016-.03-.014-.03-.013-.03-.014-.033-.011-.034-.009-.036-.007-.036-.006-.04-.005-.037-.002-.043v-.073l.002-.032.005-.031.004-.032.007-.032.009-.031.011-.035.011-.032.014-.031.016-.032.018-.03.018-.031.02-.03.022-.029.025-.03.027-.026.027-.028.03-.025.033-.024.034-.024.034-.022.038-.02.04-.02.041-.016.045-.017.045-.013.048-.014.048-.009.055-.009.054-.004.056-.005h.058l.072.002.077.007.08.014.084.018.086.023.088.029.042.016.043.018.043.02.042.02.011.15.01.148.01.147.01.15h-.133l-.011-.069-.018-.06-.018-.062-.022-.054-.028-.052-.029-.048-.017-.02-.017-.023-.017-.018-.02-.02-.02-.019-.021-.016-.023-.015-.023-.014-.021-.014-.025-.013-.025-.011-.027-.01-.028-.009-.029-.009-.06-.01-.064-.008-.067-.003-.042.003-.043.005-.04.007-.041.01-.04.014-.037.016-.036.02-.032.023-.03.025-.028.03-.023.031-.02.034-.015.04-.014.038-.007.043-.002.045v.032l.004.029.005.03.007.027.007.027.011.025.011.025.013.023.014.022.016.023.018.02.018.02.04.037.045.036.05.032.052.031.056.03.056.027.122.055.125.054.124.057.063.031.059.032.058.034.057.037.051.04.05.043.023.023.022.025.02.025.02.025.018.027.019.027.015.03.014.031.013.032.011.032.01.034.008.036.007.039.004.038.003.042.002.04-.002.036-.003.037-.004.036-.007.036-.006.036-.012.034-.011.037-.013.033-.016.034-.018.035-.02.033-.02.032-.026.032-.024.032-.027.03-.032.026-.031.03-.032.025-.035.025-.039.025-.04.022-.04.02-.046.019-.045.018-.047.016-.052.013-.052.011-.054.012-.058.007-.059.006-.06.003-.063.002-.043-.002-.045-.003-.045-.004-.048-.007-.044-.007-.048-.009-.044-.01-.046-.014-.047-.014-.045-.014-.043-.018-.044-.016-.043-.02-.04-.018-.042-.02-.037-.023-.016-.166-.032-.335-.017-.168.026-.007.027-.006.025-.01.024-.006h.003M28.78 16.416h-.145l-.012-.062-.012-.06-.016-.057-.018-.057-.019-.052-.022-.052-.024-.048-.026-.047-.026-.046-.03-.04-.03-.041-.033-.04-.036-.035-.035-.032-.04-.034-.037-.03-.04-.026-.043-.026-.046-.025-.044-.022-.048-.018-.047-.019-.05-.017-.051-.014-.052-.014-.054-.008-.053-.012-.057-.007-.056-.004-.059-.005-.06-.002-.06-.002-.062.002-.066.004-.065.007-.067.01-.068.013-.07.016-.066.018-.07.022-.07.025-.068.03-.068.031-.067.037-.067.04-.065.044-.063.047-.061.053-.061.056-.056.06-.056.065-.052.068-.05.072-.047.077-.043.084-.04.086-.018.046-.018.047-.016.048-.016.048-.016.05-.01.051-.014.053-.012.054-.008.057-.01.057-.006.056-.007.061-.005.06-.002.062-.002.064-.002.064.002.109.01.108.01.105.016.104.02.1.025.097.03.095.03.093.037.09.04.09.045.083.045.082.05.079.054.075.056.072.058.068.062.066.063.063.067.057.067.054.07.053.072.045.075.043.074.038.079.035.076.031.08.025.08.02.08.019.084.01.083.008.083.002h.052l.054-.005.052-.004.051-.01.05-.009.05-.01.049-.016.047-.016.047-.019.048-.02.045-.023.042-.024.043-.028.043-.026.04-.033.038-.031.039-.034.036-.034.034-.039.034-.039.03-.04.033-.04.026-.046.027-.045.027-.046.023-.05.022-.05.018-.05.019-.054.015-.052.016-.056.011-.057.034.009.031.009.034.009.034.007-.034.213-.034.213-.03.213-.035.21-.05.03-.058.027-.067.03-.073.027-.078.027-.084.025-.087.025-.09.023-.09.02-.092.018-.093.018-.09.014-.087.01-.083.01-.081.005-.075.002-.123-.005-.125-.006-.119-.012-.114-.018-.112-.022-.11-.028-.109-.032-.101-.035-.052-.02-.05-.021-.047-.023-.047-.023-.047-.024-.045-.025-.046-.026-.045-.03-.042-.026-.043-.03-.04-.031-.041-.032-.038-.032-.039-.034-.037-.034-.037-.036-.035-.036-.034-.036-.034-.04-.031-.038-.032-.04-.031-.04-.03-.044-.027-.044-.027-.042-.027-.046-.05-.09-.044-.096-.04-.097-.034-.102-.031-.104-.028-.109-.023-.11-.015-.115-.013-.115-.007-.118-.003-.122v-.057l.003-.054.004-.055.005-.054.007-.052.008-.055.01-.052.01-.052.012-.052.013-.05.017-.05.015-.05.018-.047.02-.05.018-.048.023-.045.022-.047.022-.046.052-.089.057-.086.059-.081.062-.08.068-.076.069-.075.074-.068.079-.068.081-.061.083-.06.089-.056.087-.05.092-.047.095-.044.094-.04.1-.035.098-.032.102-.024.101-.023.103-.016.107-.013.105-.007.105-.003.088.003.086.005.088.009.085.01.087.015.086.016.086.017.083.02.086.023.085.025.169.053.166.056.169.057.014.208.013.21.016.208.011.206h.002M28.989 19.274h.166l.054-.002.025-.003.022-.004.023-.007.017-.007.018-.011.016-.011.014-.016.011-.019.01-.022.006-.028.002-.028.002-.035v-3.307l-.004-.059-.005-.051-.009-.044-.009-.038-.01-.035-.017-.027-.018-.024-.018-.021-.022-.016-.025-.016-.03-.01-.028-.012-.034-.012-.077-.022v-.093l.086-.03.088-.031.083-.032.08-.034.077-.034.07-.032.06-.03.05-.029.045-.022.036-.021.03-.016.008-.002.01-.002.011.002.009.004.009.008.006.01.004.012.003.014.003.015v4.037l.001.035.006.028.006.028.009.022.014.019.013.016.016.01.02.012.02.007.023.007.022.004.025.003.056.002h.156v.152l-.15-.003-.15-.004-.15-.002-.156-.003h-.157l-.155.005-.158.002-.16.005v-.152M32.696 19.106l.002.018.002.016.003.014.006.014.005.01.009.01.009.006.01.005.01.007.012.002.029.005.032.002.033.002.057-.002.058-.002.058-.002h.058v.122l-.048.007-.055.006-.117.021-.124.024-.124.028-.118.027-.104.027-.083.023-.059.018-.006-.005-.007-.004-.009-.004-.007-.005v-.472l-.126.103-.06.05-.062.045-.06.043-.059.039-.06.038-.06.034-.06.032-.062.027-.063.023-.066.02-.068.016-.07.011-.071.007-.074.002-.059-.002-.058-.01-.059-.01-.056-.019-.027-.011-.027-.011-.027-.014-.027-.014-.025-.015-.025-.019-.022-.017-.025-.02-.02-.024-.022-.022-.021-.025-.018-.025-.018-.03-.016-.027-.015-.031-.014-.032-.013-.035-.011-.035-.01-.037-.007-.038-.006-.039-.004-.043-.002-.043-.003-.045v-1.546l-.005-.027-.004-.028-.005-.027-.011-.025-.011-.022-.016-.023-.018-.023-.025-.02-.027-.018-.033-.016-.038-.014-.045-.01-.05-.01-.058-.007v-.11l.09-.004.103-.006.23-.014.204-.011.12-.007.02.002.01.003.005.004.007.005.005.006.004.008.003.008.006.023.002.03v1.661l.003.048.004.052.009.054.011.057.016.057.01.029.01.027.012.027.015.027.017.025.017.025.019.023.021.023.023.022.025.018.027.02.032.015.03.013.037.011.036.01.04.006.043.005.045.002.038-.002.039-.005.04-.009.04-.01.044-.015.042-.018.045-.02.045-.023.045-.025.045-.027.048-.03.044-.029.048-.034.045-.034.092-.075v-1.566l-.002-.01-.003-.01-.002-.01-.007-.01-.013-.019-.02-.018-.025-.016-.027-.018-.032-.013-.033-.017-.077-.027-.08-.025-.165-.045v-.104l.187-.014.166-.013.273-.027.184-.019.058-.007.034-.002.016.002.011.005.007.009.007.014.002.013.002.018v2.192M33.845 18.768l.003.043.009.046.01.047.017.05.022.05.027.05.03.047.036.046.04.045.02.02.025.021.023.018.024.018.027.016.028.016.027.014.029.011.031.011.032.01.031.006.034.005.036.002.036.002.057-.002.053-.004.054-.01.05-.01.05-.017.046-.015.045-.023.043-.023.04-.025.039-.03.036-.029.035-.034.034-.034.032-.036.03-.039.026-.04.025-.041.025-.044.022-.042.02-.045.019-.048.017-.048.017-.048.013-.047.01-.05.012-.05.007-.05.01-.047.003-.05.005-.05.002-.05v-.05l-.002-.056-.002-.06-.007-.056-.009-.057-.011-.054-.016-.054-.015-.055-.019-.052-.02-.05-.022-.05-.025-.047-.025-.048-.027-.045-.03-.043-.03-.044-.032-.04-.034-.037-.034-.038-.036-.034-.038-.032-.035-.03-.042-.029-.038-.025-.04-.022-.04-.02-.04-.021-.044-.013-.04-.014-.044-.011-.042-.007-.042-.005-.044-.002-.038.002-.04.005-.038.007-.036.01-.036.012-.036.016-.037.016-.034.02-.033.018-.033.023-.066.045-.06.05-.062.05v1.414-1.584l.091-.075.05-.036.049-.036.049-.036.052-.034.054-.034.054-.032.056-.028.056-.026.057-.023.058-.02.059-.016.058-.012.061-.007.058-.002h.063l.058.007.061.006.057.012.056.016.054.016.052.02.05.023.049.027.047.027.045.031.043.032.04.037.04.038.04.04.033.04.033.043.032.045.031.048.028.048.024.05.025.051.02.052.02.055.016.055.016.054.014.056.008.057.01.06.004.058.005.06v.128l-.005.073-.01.07-.01.07-.014.07-.018.07-.02.069-.022.068-.026.065-.029.067-.031.063-.034.06-.036.062-.04.059-.041.056-.045.055-.045.052-.049.052-.052.048-.054.043-.054.043-.059.039-.06.036-.06.033-.067.03-.065.025-.067.023-.07.02-.072.014-.074.011-.074.007-.076.002-.079-.002-.072-.005-.07-.006-.065-.01-.061-.013-.056-.011-.055-.016-.048-.016-.048-.016-.042-.016-.08-.034-.067-.032-.06-.027-.044.032-.045.034-.043.034-.042.034-.03-.016-.031-.016-.029-.016-.032-.015.019-.13.015-.129.016-.127.01-.13.01-.129.007-.128.002-.132.003-.134v-2.568l-.01-.11-.008-.044-.01-.038-.01-.035-.017-.027-.018-.024-.017-.021-.023-.016-.025-.016-.029-.01-.029-.012-.034-.012-.076-.022v-.093l.085-.03.087-.031.084-.032.08-.034.078-.034.069-.032.061-.03.05-.029.044-.022.036-.021.03-.016.008-.002.01-.002.01.002.012.004.007.008.007.01.004.012.002.014.002.031v3.708M9.885 22.905l.007.014-.12-.003-.127-.004-.13-.005-.12-.002-.12.002-.123.005-.117.004-.101.003H8.92v-.123h.056l.043-.002.04-.003.019-.004.017-.005.018-.004.016-.01.014-.008.013-.011.012-.012.01-.016.007-.02.005-.02.005-.025.002-.028V20.97l-.002-.027-.005-.022-.005-.023-.008-.018-.01-.016-.01-.014-.014-.011-.014-.01-.016-.006-.018-.007-.017-.002-.019-.005-.04-.004H8.92v-.123h.014l.103.003.117.002.123.005.122.002.121-.002.13-.005.125-.002.117-.003h.014v.123h-.1l-.04.004-.02.005-.018.002-.016.007-.016.007-.016.009-.011.011-.01.014-.012.016-.007.018-.007.023-.002.022-.002.027v1.66l.002.027.002.024.007.02.007.021.011.016.01.012.012.01.016.01.016.009.016.004.017.005.02.004.041.003.041.002h.059v.123h-.014l-.007-.014M12.234 22.966l-.033-.002h-.032l-.034-.002h-.031l-.399-.45-.798-.895-.399-.446v1.269l.002.048.003.045.002.04.007.038.007.033.01.027.01.027.013.021.016.02.02.016.023.012.027.01.03.008.033.006.039.003.04.002h.067v.123h-.013l-.101-.003-.102-.004-.1-.005-.102-.002-.106.002-.108.005-.108.004-.106.003h-.013v-.123h.058l.036-.002.034-.005.032-.007.026-.01.025-.017.023-.015.018-.021.018-.023.013-.027.011-.027.012-.031.006-.037.007-.036.004-.041.003-.043v-1.38l-.003-.03-.004-.03-.007-.026-.008-.028-.014-.022-.013-.023-.019-.02-.018-.019-.02-.018-.02-.013-.022-.012-.025-.011-.023-.009-.025-.005-.027-.004h-.078v-.123h.013l.09.003.09.002.092.005.088.002.07-.002.072-.003.072-.002h.076l.347.392.346.39.345.392.346.392v-1.164l-.002-.046-.007-.039-.009-.036-.011-.03-.014-.027-.018-.022-.018-.02-.017-.017-.02-.013-.024-.01-.02-.008-.022-.007-.02-.005-.02-.002-.039-.002h-.083v-.123h.013l.11.003.111.002.11.005.11.002.097-.002.09-.005.092-.002.1-.003h.013v.123h-.061l-.05.002-.022.002-.025.005-.022.007-.023.009-.011.013-.018.016-.018.023-.018.025-.013.032-.014.036-.01.043-.006.05-.006.059-.003.065v1.442l.005.163.004.08.012.074v.007l.002.005v.004h-.016M14.243 22.919l-.11-.003-.13-.004-.14-.005-.133-.002-.146.002-.144.005-.133.004-.108.003h-.013v-.123h.072l.06-.002.052-.005.02-.004.02-.005.019-.009.015-.011.014-.014.014-.016.009-.02.008-.023.007-.029.005-.032.002-.039.002-.043v-1.677h-.542l-.036.002-.031.005-.027.005-.023.006-.02.01-.016.01-.014.015-.01.015-.012.02-.009.021-.009.027-.013.062-.018.079v.007l-.003.002v.002H12.6v-.004l.003-.005v-.007l.009-.068.011-.065.01-.068.008-.069.009-.065.005-.066.004-.068v-.081h.102v.009l.001.002.005.014.005.01.007.012.006.009.007.007.009.006.018.012.022.005.026.004.072.002h1.62l.033-.002h.027l.027-.004.023-.007.008-.005.01-.005.008-.006.007-.01.005-.008.004-.011.002-.014.002-.014v-.01l.003-.005.002.002h.007l.004.002.023.002.022.005.023.002.02.005v.009l-.002.004-.018.127-.007.066-.009.063-.002.064-.002.063v.139h-.005l-.002.002h-.002l-.03.01-.027.01-.03.011-.026.01v-.018l-.004-.046-.007-.05-.005-.025-.004-.025-.009-.022-.01-.023-.013-.02-.013-.02-.018-.017-.02-.015-.023-.012-.027-.009-.032-.005-.035-.002h-.502v1.671l.002.043.005.036.004.032.01.029.008.025.012.02.013.019.016.013.015.012.019.009.02.006.022.005.023.004.024.003.054.002h.075v.123h-.014M16.58 22.905l.007.014-.177-.003-.216-.004-.23-.005-.223-.002-.225.002-.231.005-.214.004-.166.003h-.014v-.123h.058l.04-.002.041-.003.02-.004.02-.005.015-.004.015-.007.014-.011.013-.01.011-.013.012-.016.007-.018.006-.023.002-.024.002-.028V20.97l-.002-.027-.002-.022-.006-.023-.007-.018-.012-.016-.01-.014-.014-.009-.014-.011-.015-.007-.016-.005-.018-.004-.02-.005-.041-.004h-.1v-.123h.015l.166.003.198.002.211.005.208.002.207-.002.213-.005.205-.002.18-.003h.014v.014l-.003.036-.002.041v.17l.002.084.003.08.004.072v.009l.002.002h-.005l-.001.002h-.003l-.002.003-.027.007-.03.006-.026.007-.028.007v-.011l-.002-.005-.006-.075-.005-.034-.007-.034-.009-.03-.01-.029-.015-.027-.017-.025-.02-.022-.025-.021-.03-.018-.034-.014-.038-.011-.044-.01-.05-.006-.059-.002h-.422v.802h.36l.033-.002.027-.002.027-.007.023-.007.02-.01.018-.013.015-.013.014-.016.012-.016.01-.02.008-.023.008-.023.011-.054.01-.059v-.014h.121v.016l-.005.09-.004.094-.002.093v.183l.002.089.004.09.005.091v.012h-.005l-.002.002h-.004l-.029.004-.028.007-.026.005-.027.007v-.017l-.01-.067-.009-.06-.004-.027-.006-.024-.007-.023-.011-.02-.012-.019-.016-.015-.015-.014-.023-.012-.023-.006-.028-.007-.032-.005-.036-.002h-.364v.725l.002.034.004.03.01.025.013.022.015.018.019.017.02.011.024.011.028.007.027.007.031.004.031.003.07.001h.075l.132-.001.059-.003.053-.004.05-.007.045-.009.043-.014.038-.016.016-.009.018-.011.015-.012.016-.013.016-.016.014-.016.026-.036.023-.04.022-.048.02-.057.02-.064v-.002l.001-.002v-.005l.003-.001h.004l.005.001h.002l.027.007.024.007.025.007.025.004v.007l-.003.005v.002l-.029.127-.029.125-.025.126-.022.125-.002.003v.006l-.002.003h-.01l-.007-.014M18.984 22.919l-.077-.003-.077-.004-.076-.005-.079-.002-.071.002-.075.005-.078.002h-.082l-.087-.12-.086-.123-.084-.124-.083-.127-.078-.13-.08-.13-.076-.133-.076-.136h-.185v.708l.005.036.006.032.008.027.009.023.011.018.014.015.015.015.016.008.02.01.018.004.023.004.047.003.052.002h.069v.123h-.013l-.136-.003-.134-.004-.137-.005-.133-.002-.113.002-.112.005-.114.004-.118.003h-.013v-.123h.07l.042-.002.038-.007.018-.007.018-.007.016-.006.016-.01.013-.011.012-.01.01-.012.01-.016.007-.014.004-.018.004-.018V20.99l-.004-.034-.006-.03-.007-.024-.012-.023-.01-.018-.014-.016-.014-.012-.016-.009-.016-.007-.017-.004-.018-.005-.036-.004h-.108v-.123h.013l.092.003.12.002.132.005.144.002.136-.002.126-.005.12-.002.124-.003h.072l.075.005.07.01.07.01.065.014.063.02.028.012.03.013.03.014.026.016.025.016.025.018.024.02.021.02.023.024.017.022.018.027.016.027.014.028.013.031.01.032.01.034.006.036.005.039.005.04v.041l-.003.055-.004.05-.011.047-.014.043-.017.043-.023.041-.023.039-.029.036-.03.034-.033.032-.036.03-.036.026-.04.025-.043.023-.043.023-.045.017.133.2.132.2.131.2.133.199.031.045.03.036.031.03.016.011.015.01.016.01.019.01.04.013.045.01.052.008h.006l.003.003h.002v.12h-.013zm-1.31-1.168.056-.002.052-.004.05-.008.047-.01.04-.014.038-.018.036-.021.016-.013.016-.012.013-.016.013-.016.015-.015.011-.018.01-.018.01-.02.015-.044.014-.05.01-.055.006-.06.002-.066-.002-.05-.007-.048-.01-.045-.013-.043-.017-.04-.02-.037-.024-.034-.028-.03-.03-.03-.034-.021-.035-.021-.04-.019-.043-.013-.046-.01-.047-.006-.05-.002-.055.002-.044.002-.035.005-.03.002v.918h.14zM21.269 22.964h-.065l-.031-.002-.402-.45-.397-.445-.398-.45-.401-.446v1.269l.002.048.003.045.004.04.005.038.007.033.008.027.012.027.013.021.018.02.018.016.023.012.026.01.03.008.034.006.038.003.042.002h.066v.123h-.014l-.101-.003-.101-.004-.101-.005-.102-.002-.105.002-.109.005-.105.004-.108.003h-.014v-.123h.06l.035-.002.033-.005.032-.007.027-.01.025-.017.023-.015.017-.021.019-.023.013-.027.01-.027.013-.031.006-.037.007-.036.005-.041.002-.043v-1.41l-.005-.03-.009-.026-.009-.028-.027-.045-.018-.02-.018-.019-.02-.018-.02-.013-.023-.014-.022-.009-.025-.009-.025-.005-.024-.004h-.082v-.123h.014l.09.003.092.002.09.005.09.002.07-.002.07-.003.072-.004.076.002.346.39.347.392.344.392.347.392v-1.164l-.002-.046-.007-.039-.01-.036-.01-.03-.014-.027-.016-.022-.018-.02-.02-.017-.02-.013-.023-.012-.02-.006-.022-.007-.02-.005-.02-.002-.04-.002h-.083v-.123h.014l.113.003.11.002.108.005.11.002.097-.002.097-.005.097-.002.096-.003h.014v.123h-.061l-.047.002-.025.002-.025.005-.023.007-.02.009-.022.013-.018.016-.018.02-.016.028-.016.032-.011.036-.012.043-.006.05-.005.059-.002.065v1.524l.002.081.007.08.01.074v.01l.002.002v.004h-.012l-.036-.002M25.166 22.919l-.108-.003-.13-.004-.14-.005-.133-.002-.146.002-.144.005-.132.004-.11.003h-.014v-.123h.074l.06-.002.05-.005.022-.004.02-.005.018-.009.017-.011.013-.014.01-.016.012-.02.01-.023.006-.029.005-.032.002-.039.003-.043v-1.677h-.543l-.036.002-.032.005-.026.005-.023.006-.02.01-.016.01-.016.015-.011.015-.009.02-.009.021-.009.027-.015.062-.016.079-.003.002v.009h-.12v-.011l.001-.005.01-.065.01-.068.01-.068.008-.069.007-.065.006-.066.003-.068.002-.068v-.013h.1v.002l.001.002v.007l.005.014.007.01.005.012.006.009.01.007.008.006.018.012.023.005.024.004.054.002h1.64l.03-.002h.029l.027-.004.023-.007.008-.005.01-.005.006-.006.007-.01.007-.008.004-.011.003-.012.002-.016v-.015l.004.002h.007l.005.002.021.002.02.005.024.002.022.005v.007l-.002.002v.004l-.018.127-.01.066-.006.063-.004.064-.003.063v.139h-.004l-.002.002h-.003l-.026.01-.03.01-.027.011-.027.01v-.005l-.002-.005v-.008l-.002-.046-.007-.05-.004-.025-.008-.025-.007-.022-.01-.023-.012-.02-.013-.02-.018-.017-.02-.015-.025-.012-.027-.009-.03-.005-.036-.002h-.5v1.671l.001.043.002.036.007.032.007.029.011.025.012.02.013.019.013.013.019.012.018.009.02.006.022.005.023.004.025.003.054.002h.072v.123h-.014M26.797 22.905l.007.014-.12-.003-.128-.004-.126-.005-.123-.002-.12.002-.124.005-.116.004-.102.003h-.013v-.123h.056l.043-.002.04-.003.018-.004.019-.005.017-.004.016-.007.013-.011.014-.01.01-.013.01-.016.01-.018.004-.023.004-.024v-1.714l-.004-.022-.004-.023-.01-.018-.01-.016-.01-.014-.014-.011-.013-.01-.016-.006-.017-.005-.019-.004-.018-.005-.04-.004h-.099v-.123h.013l.104.003.117.002.123.005.12.002.123-.002.129-.005.126-.002.117-.003h.013v.123h-.099l-.04.004-.02.005-.018.004-.016.005-.016.007-.016.009-.011.011-.01.014-.012.016-.007.018-.007.023-.002.022-.003.027v1.66l.003.027.002.024.007.023.007.018.011.016.01.013.012.01.016.011.016.007.016.004.017.005.021.004.04.003.043.002h.056v.123h-.013l-.007-.014M31.562 22.966l-.031-.002h-.034l-.031-.002h-.035l-.398-.45-.398-.445-.398-.45-.4-.446v1.269l.001.048.003.045.005.04.004.038.007.033.008.027.012.027.013.021.016.02.02.016.023.012.027.01.03.008.033.006.038.003.04.002h.07v.123h-.015l-.102-.003-.1-.004-.102-.005-.101-.002-.106.002-.108.005-.106.004-.107.003h-.014v-.123h.058l.036-.002.034-.005.032-.009.026-.009.025-.016.023-.015.018-.021.018-.023.013-.027.012-.027.01-.031.008-.037.006-.036.005-.041.002-.043.003-.046v-1.334l-.003-.03-.004-.03-.009-.026-.01-.028-.013-.022-.014-.023-.015-.02-.02-.019-.019-.018-.022-.013-.022-.014-.023-.009-.025-.009-.024-.005-.025-.004h-.08v-.123h.013l.09.003.092.002.09.005.09.002.07-.002.069-.003.074-.002h.077l.344.392.346.39.345.392.346.392v-1.164l-.002-.046-.007-.039-.009-.036-.011-.03-.013-.027-.016-.022-.018-.02-.02-.017-.02-.013-.023-.01-.02-.008-.024-.007-.02-.005-.02-.002-.038-.002h-.083v-.123h.016l.11.003.108.002.11.005.11.002.097-.002.097-.005.097-.002.097-.003h.013v.123h-.06l-.05.002-.023.002-.025.005-.022.007-.02.009-.023.013-.018.016-.018.023-.016.025-.016.032-.011.036-.01.043-.008.052-.004.057-.002.065v1.524l.002.081.006.08.01.074v.01l.002.002v.004h-.016M35.815 22.905l.006.014-.21-.003-.206-.004-.207-.005-.208-.002-.206.002-.207.005-.21.004-.206.003h-.014v-.123h.056l.043-.002.04-.005.02-.002.019-.005.018-.006.015-.01.014-.01.013-.014.012-.016.01-.018.008-.023.006-.025.005-.03v-1.688l-.005-.022-.006-.023-.007-.018-.011-.016-.012-.014-.013-.011-.014-.01-.015-.006-.018-.007-.018-.002-.02-.005-.041-.004h-.1v-.123h.015l.123.003.126.002.124.005.124.002.119-.002.12-.005.119-.002.119-.003h.013v.123h-.134l-.04.002-.032.007-.017.004-.027.014-.009.011-.01.011-.007.016-.007.019-.005.02-.002.025-.002.027v1.634l.002.02.002.021.005.018.005.016.009.014.008.011.01.012.01.009.014.009.014.009.029.01.034.01.034.004.042.005h.043l.045.003h.103l.059-.003.06-.005.06-.004.024-.004.024-.005.045-.014.041-.018.04-.02.036-.023.032-.027.03-.027.022-.028.016-.027.015-.027.014-.03.014-.026.02-.06.016-.053v-.003l.002-.002v-.007h.119v.005l-.002.004v.01l-.03.132-.03.136-.028.134-.03.134-.001.003v.006l-.003.003h-.01l-.005-.014"/>
        <path fill="#26376E" d="m20.048 12.339-.004-.002h-.002l-.005-.002-.003-.003h-.004l-.002-.002h-.004l-.005-.003-.002-.001h-.005l-.002-.003-.004-.002h-.003L20 12.319h-.002l-.005-.002-.002-.003h-.004l-.005-.003-.002-.002h-.005l-.002-.002h-.005l-.002-.002-.005-.002h-.002l-.004-.002-.002-.003h-.005l-.002-.002-.004-.002h-.002l-.005-.003-.005-.002h-.002l-.005-.002-.002-.002h-.004l-.002-.003-.005-.002h-.002l-.005-.002-.002-.002h-.005l-.002-.003-.004-.002h-.002l-.005-.002-.002-.003h-.004l-.003-.002-.004-.002h-.002l-.005-.002-.002-.002h-.005l-.002-.002-.004-.003-.002-.002h-.005l-.002-.002-.005-.003h-.002l-.005-.002-.002-.002h-.005l-.002-.002-.004-.003-.003-.002h-.004l-.002-.002-.004-.003-.003-.002h-.004l-.003-.002-.004-.002h-.002l-.005-.003-.002-.002-.004-.002h-.002l-.005-.002-.002-.003-.005-.002h-.002l-.005-.002-.002-.003-.005-.002h-.002l-.002-.002-.004-.002-.002-.002h-.005l-.002-.003-.005-.002-.002-.002h-.005l-.002-.003-.004-.002-.002-.002h-.005l-.002-.002-.004-.002-.002-.003-.003-.002h-.005l-.002-.002-.004-.002-.003-.003h-.004l-.002-.002-.005-.002-.002-.002-.005-.003h-.002l-.002-.002-.004-.002-.003-.002-.005-.003h-.002l-.004-.002-.002-.003-.004-.002-.003-.002h-.002l-.005-.002-.001-.003-.006-.001-.002-.003-.004-.002h-.003l-.002-.002-.004-.003-.003-.002-.004-.002h-.002l-.005-.002-.002-.003-.002-.002-.005-.002-.002-.002h-.004l-.003-.003-.002-.002-.004-.002-.002-.003-.005-.002-.002-.002h-.005l-.002-.003-.002-.002-.005-.002-.002-.002-.004-.003h-.002l-.003-.002-.004-.002-.002-.002-.005-.002-.003-.002-.001-.003-.005-.002h-.003l-.004-.003-.004-.004-.005-.002-.002-.002-.004-.003-.003-.002h-.002l-.005-.002-.002-.002-.002-.003-.004-.002-.003-.002-.004-.003-.002-.002-.003-.002h-.004l-.002-.002-.005-.003-.002-.002-.002-.002-.005-.003-.003-.002-.002-.002-.004-.002-.002-.002h-.002l-.005-.003-.002-.002-.004-.002-.003-.003-.002-.002-.005-.002-.002-.002-.002-.002-.005-.003-.002-.003-.002-.001-.004-.003h-.002l-.005-.002-.002-.002-.002-.002-.005-.003-.003-.002-.002-.002-.004-.002-.003-.002-.002-.003-.004-.002-.002-.002-.002-.003-.005-.002-.003-.002-.001-.002-.005-.003-.002-.002-.003-.002h-.004l-.002-.002-.002-.003-.004-.002-.003-.002-.002-.002-.004-.003-.003-.002-.002-.002-.005-.003-.003-.002-.002-.002-.002-.002-.004-.003-.003-.002-.002-.002-.004-.002-.002-.003-.002-.002-.005-.002-.002-.002-.003-.003-.004-.002-.002-.002-.002-.002-.005-.003-.002-.002-.002-.002-.002-.003-.005-.001-.002-.003-.002-.002-.005-.002-.002-.003-.003-.002-.002-.002-.004-.002-.003-.003-.002-.002-.004-.002-.002-.003-.002-.002-.003-.002-.004-.002-.003-.003-.002-.002-.005-.002-.002-.002-.002-.003-.002-.002-.005-.002-.002-.002-.002-.002-.002-.006-.005-.001-.002-.003-.002-.002-.005-.002-.002-.003-.003-.002-.002-.002-.004-.002-.003-.003-.002-.002-.002-.002-.004-.002-.003-.003-.002-.002-.002-.002-.005-.002-.002-.003-.002-.002-.003-.004-.004-.002-.002-.003-.002-.002-.002-.002-.002-.002-.005-.003-.002-.002-.003-.002-.002-.003-.005-.002-.002-.002-.002-.002-.003-.005-.004-.002-.002-.003-.002-.002-.002-.002-.003-.002-.004-.003-.002-.002-.003-.002-.002-.002-.005-.002-.002-.005-.002-.003-.002-.002-.002-.002-.005-.002-.002-.002-.002-.003-.002-.002-.002-.002-.005-.003-.002-.004-.003-.002-.002-.003-.002-.002-.005-.002-.002-.002-.002-.003-.002-.001-.002-.005-.005-.003-.002-.002-.003-.002-.002-.002-.002-.002-.005-.003-.002-.002-.003-.005-.002-.002-.002-.002-.002-.002-.004-.003-.003-.002-.002-.002-.002-.005-.002-.002-.002-.002-.005-.003-.003-.002-.001-.002-.003-.002-.002-.005-.002-.002-.004-.002-.003-.003-.002-.002-.003-.002-.002-.005-.002-.002-.002-.002-.004-.002-.003-.003-.002-.002-.002-.004-.003-.003-.002-.002-.005-.002-.002-.002-.002-.003-.002-.004-.002-.003-.002-.002-.003-.002-.002-.002-.005-.005-.002-.002-.002-.002-.003-.003-.002-.002-.002-.002-.002-.004-.002-.003-.005-.002-.002-.003-.002-.002-.002-.004-.002-.002-.003-.003-.002-.002-.002-.002-.003-.005-.004-.002-.002-.002-.003-.002-.002-.003-.003-.004-.002-.003-.002-.002-.002-.002-.002-.005-.004-.002-.003-.002-.002-.002-.003-.002-.001-.005-.003-.003-.002-.002-.002-.002-.003-.004-.002-.003-.002-.002-.002-.002-.004-.002-.002-.005-.003-.002-.002-.003-.003-.002-.002-.004-.002-.002-.002-.003-.003-.002-.002-.005-.003-.002-.002-.002-.002-.002-.002-.005-.002-.002-.005-.002-.002-.003-.002-.004-.002-.002-.002-.003-.002-.002-.003-.004-.002-.003-.003-.002-.002-.002-.002-.005-.002-.002-.003-.002-.002-.002-.002-.005-.002-.002-.002-.003-.003-.004-.002-.002-.002-.003-.002-.002-.002-.004-.003-.003-.002-.002-.003-.002-.004-.005-.002-.002-.002-.002-.003-.005-.002-.002-.002-.002-.002-.003-.002-.004-.003-.003-.002-.002-.002-.004-.002-.002-.003-.003-.002-.004-.003-.002-.002-.002-.002-.003-.002-.004-.002-.003-.002-.002-.003-.004-.002-.003-.002-.002-.002-.004-.002-.003-.003-.002-.002-.002-.003-.005-.002-.002v-.002l-.002-.005-.002-.002-.003-.003-.002-.004-.002-.002-.003-.002-.002-.005-.002-.002-.002-.002-.002-.005-.002-.002-.003-.002-.002-.005-.002-.002-.002-.002-.003-.005-.002-.002-.002-.002-.003-.005-.004-.004-.002-.005-.002-.003-.002-.002v-.004l-.002-.002-.003-.002-.002-.005-.002-.002-.003-.003-.002-.004-.002-.002-.003-.005-.002-.002-.002-.003-.002-.004-.003-.003-.002-.002v-.004l-.002-.002-.002-.002-.002-.005-.002-.002-.003-.002-.002-.005-.002-.002-.003-.005-.002-.002-.002-.003-.003-.004v-.002l-.002-.002-.002-.005-.002-.002-.002-.004-.003-.003-.002-.002-.002-.005-.002-.002v-.005l-.002-.002-.002-.002-.003-.005-.002-.002-.002-.002-.002-.004-.003-.003v-.005l-.002-.002-.002-.002-.003-.005-.002-.002-.002-.004-.002-.002-.002-.003v-.005l-.003-.002-.002-.004-.003-.002-.002-.002-.002-.005-.002-.003V11l-.002-.002-.003-.002-.002-.005-.002-.002-.003-.005v-.002l-.002-.004-.002-.003-.002-.002-.002-.005-.003-.002-.002-.004v-.003l-.002-.002-.002-.004-.002-.002-.002-.005v-.002l-.003-.005-.002-.002-.002-.003-.003-.004-.002-.002v-.005l-.003-.002v-.005l-.004-.002-.002-.004v-.002l-.002-.003-.002-.004-.003-.002-.002-.005v-.002l-.002-.005-.002-.002-.002-.004-.002-.003v-.002l-.003-.004-.002-.003-.003-.005v-.002l-.002-.004-.002-.003-.003-.004-.002-.002v-.005l-.002-.002-.002-.002-.002-.005v-.002l-.002-.005-.003-.002-.002-.004-.002-.002v-.005l-.002-.002-.002-.005-.003-.002V10.8l-.003-.002-.002-.004-.002-.003v-.002l-.002-.004-.002-.003v-.004l-.002-.002-.002-.005-.003-.002v-.005l-.002-.002-.002-.005-.002-.002v-.004l-.002-.003-.003-.004-.002-.003v-.004l-.003-.002-.002-.005v-.002l-.002-.005-.003-.002-.002-.004v-.003l-.002-.004-.003-.002v-.005l-.002-.002-.002-.005v-.002l-.002-.005-.002-.001-.002-.005v-.002l-.002-.005-.003-.002v-.005l-.002-.002-.002-.005v-.002l-.003-.005-.002-.002v-.004l-.002-.002-.002-.005v-.002l-.003-.005-.002-.002v-.004l-.002-.003-.002-.005v-.004l-.003-.002-.001-.004v-.003l-.003-.004-.002-.002v-.005l-.002-.002-.003-.005v-.002l-.002-.004-.002-.003v-.004l-.002-.003v-.004l-.003-.002-.002-.005v-.004l-.003-.002-.002-.005v-.003l-.002-.004v-.003l-.002-.003-.002-.003v-.004l-.002-.003-.003-.004v-.005l-.002-.002v-.005l-.002-.002-.002-.004v-.002l-.002-.005v-.002l-.002-.005-.003-.005v-.002l-.002-.004v-.002l-.003-.005-.002-.003v-.004l-.002-.002v-.005l-.002-.004v-.003l-.003-.004-.002-.002v-.005l-.002-.002v-.004l-.002-.005v-.002l-.002-.005-.002-.002v-.004l-.003-.003v-.004l-.002-.005v-.002l-.002-.005v-.002l-.002-.004-.003-.005v-.002l-.002-.005v-.002l-.003-.005v-.002l-.002-.005v-.004l-.002-.002v-.005l-.002-.002v-.004l-.003-.005v-.002l-.002-.004v-.003l-.002-.004-.002-.005v-.002l-.002-.005v-.002l-.003-.005v-.004l-.002-.002v-.005l-.002-.002v-.005l-.002-.004v-.002l-.002-.005v-.002l-.003-.004v-.007l-.002-.005v-.002l-.003-.005v-.004l-.002-.002v-.005l-.002-.002v-.005l-.002-.004v-.002l-.002-.005v-.005l-.002-.002v-.004l-.003-.002v-.01l-.002-.002v-.004l-.002-.005v-.002l-.002-.005v-.002l-.002-.005v-.006l-.002-.005v-.004l-.003-.003v-.004l-.002-.002v-.01l-.003-.002v-.004l-.002-.005v-.002l-.002-.004v-.007l-.003-.005v-.002l-.002-.004v-.007l-.002-.005v-.004l-.002-.002v-.01l-.003-.002v-.01l-.002-.001v-.005l-.002-.004v-.007l-.002-.004v-.007l-.002-.002v-.005l-.002-.005v-.006l-.003-.005v-.007l-.002-.004v-.007L18.075 10v-.006l-.003-.005v-.007l-.002-.004v-.007l-.002-.004V9.96l-.003-.005v-.007l-.002-.004v-.007l-.002-.004v-.007l-.002-.005V9.91l-.002-.004v-.007l-.002-.005v-.006l-.002-.004v-.012l-.003-.003v-.013l-.002-.002v-.01l-.002-.002v-.011l-.002-.004v-.012l-.003-.004v-.012l-.002-.004V9.78l-.002-.002v-.011l-.003-.005v-.015l-.002-.005v-.014l-.002-.004v-.016l-.002-.005v-.015l-.003-.003v-.02l-.002-.004v-.018l-.002-.005v-.023l-.002-.004v-.025l-.002-.003v-.026l-.003-.005v-.04l-.002-.003V9.46l-.002-.005v-.208l.002-.002v-.048l.002-.004v-.04l.003-.003v-.027l.002-.004v-.025l.002-.003v-.025l.002-.002v-.02l.002-.005v-.018l.003-.004v-.016l.002-.005v-.015l.002-.002v-.017l.002-.004v-.016l.003-.002v-.013l.002-.003V8.91l.002-.004v-.011l.003-.005v-.011l.002-.003v-.01l.002-.006v-.008l.002-.003v-.01l.003-.006v-.01l.002-.006V8.81l.002-.005v-.007l.002-.004v-.011l.002-.005v-.007l.002-.004V8.76l.002-.005V8.75l.003-.005v-.006l.002-.005v-.007l.002-.004v-.007l.003-.004v-.007l.002-.004v-.008l.002-.004v-.007l.003-.004V8.67l.002-.005v-.002l.002-.004v-.007l.002-.005V8.64l.002-.004v-.002l.002-.005v-.007l.003-.004V8.61l.002-.004v-.005L18.1 8.6v-.01l.002-.002v-.004l.003-.004v-.007l.002-.003v-.004l.002-.004v-.003l.003-.004v-.007l.002-.005V8.54l.003-.003v-.004l.002-.002v-.01l.002-.001v-.005l.002-.005v-.002l.002-.004V8.5l.002-.005v-.007l.003-.004V8.48l.002-.002v-.005l.002-.002v-.005l.002-.004V8.46l.002-.005v-.002l.002-.005v-.004l.003-.002v-.005l.002-.005v-.006l.003-.003V8.42l.002-.004v-.003l.002-.004v-.003l.002-.004v-.004l.002-.003V8.39l.003-.002v-.005l.002-.005v-.002l.002-.005.002-.002v-.004l.002-.005v-.002l.003-.005v-.002l.002-.004v-.005l.002-.002v-.004l.002-.003V8.33l.003-.003v-.004l.002-.004v-.003l.003-.004.002-.002v-.005l.002-.005v-.002l.002-.005V8.29l.003-.004v-.003l.002-.004.002-.004v-.003l.002-.005v-.002l.002-.004v-.002l.002-.005.003-.005v-.002l.002-.004V8.24l.002-.004v-.002l.002-.005.003-.002v-.005l.002-.004v-.002l.003-.005.002-.002v-.005l.002-.002v-.004l.002-.005.002-.002v-.005l.002-.002V8.18l.003-.002.002-.004V8.17l.002-.005.002-.003V8.16l.002-.004v-.003l.002-.004.003-.002V8.14l.002-.002.003-.004v-.003l.002-.004v-.003l.002-.004.002-.003v-.004l.003-.004.002-.003v-.004l.002-.002.003-.005v-.002l.001-.005.003-.002v-.005l.002-.002.002-.004v-.003l.002-.004.003-.002v-.005l.002-.002.002-.005v-.002l.002-.005.003-.002v-.005l.002-.002.002-.004v-.002l.003-.005.002-.004V8.02l.002-.004.002-.002.002-.005v-.002l.002-.004.002-.003v-.004l.003-.003.002-.004v-.002l.002-.005.003-.003.002-.004v-.002l.002-.004.003-.003v-.002l.002-.005.003-.002.002-.004V7.95l.002-.004.002-.003.002-.004v-.002l.003-.005.002-.002.002-.004v-.002l.002-.005.002-.003v-.004l.002-.002.002-.005.003-.002v-.005l.003-.002.002-.004.002-.003v-.004l.002-.002.002-.002.003-.005.002-.003V7.87l.002-.003.002-.004.002-.002v-.005l.002-.002.003-.004.002-.002.002-.005v-.002l.003-.002.002-.005.003-.002v-.005l.002-.002.002-.004.002-.003.002-.005v-.002l.002-.002.003-.004.002-.002.002-.005v-.003l.002-.004.003-.002.001-.005.003-.002V7.78l.002-.005.003-.002.002-.005.002-.002.003-.005V7.76l.002-.002.002-.004.002-.003.002-.004v-.002l.002-.005.003-.002.002-.003.002-.004.002-.002.002-.005v-.002l.003-.002.002-.005.002-.002.003-.005.002-.002v-.004l.002-.003.002-.002.002-.005.003-.002.002-.004.003-.003V7.68l.002-.005.002-.001.002-.005.002-.002.003-.002.002-.005.002-.003v-.004l.003-.002.002-.002.002-.005.002-.002.003-.002.002-.005.002-.002v-.005l.002-.002.002-.002.002-.005.003-.002.002-.004.002-.003.002-.002.002-.005v-.002l.003-.002.002-.005.002-.002.003-.004.002-.003.002-.002.003-.005.002-.002.002-.002.002-.005.002-.002v-.002l.002-.004.003-.003.002-.005.002-.001.002-.003.003-.004.002-.002.002-.003.003-.005.002-.002.002-.002.003-.005.002-.002v-.002l.002-.005.002-.002.002-.002.002-.004.002-.003.003-.002.002-.004.002-.002.003-.003.002-.005.002-.002.002-.002.003-.004.002-.003.002-.002.002-.005.002-.002.002-.002.003-.005.002-.002.002-.002.003-.004.002-.003.002-.002v-.005l.002-.002.003-.002.002-.004.003-.003.002-.002.002-.005.002-.002.002-.002.003-.002.002-.005.002-.002.002-.003.002-.004.002-.002.003-.003.002-.004.003-.002.002-.003.002-.002.002-.005.003-.002.002-.002.002-.004.002-.003.002-.002.003-.003.002-.004.002-.002.004-.002.003-.005.002-.002.003-.002.002-.002.002-.005.002-.003.002-.002.003-.004.002-.002.002-.002.002-.003.002-.004.003-.003.002-.002.002-.002.002-.005.003-.002.002-.002.003-.003.002-.004.002-.002.002-.003.002-.004.002-.002.005-.003.002-.002.002-.005.002-.002.002-.002.003-.002.002-.002.003-.005.002-.002.002-.003.002-.002.003-.004.002-.002.003-.002.002-.003.004-.005.002-.002.002-.002.002-.002.003-.005.002-.002.002-.002.003-.002.001-.003.003-.004.002-.003.003-.002.004-.002.002-.004.002-.003.002-.002.002-.003.003-.002.002-.004.003-.003.002-.002.004-.002.003-.002.002-.005.002-.002.003-.002.002-.003.002-.002.002-.004.002-.003.005-.002.002-.002.002-.003.002-.004.002-.002.003-.002.002-.003.002-.002.005-.005.002-.002.003-.002.002-.002.002-.002.002-.003.002-.004.002-.003.005-.002.002-.002.003-.002.002-.003.002-.004.003-.002.004-.003.002-.002.002-.002.002-.003.003-.004.002-.002.003-.003.004-.002.002-.002.002-.002.003-.005.001-.002.003-.002.005-.002.002-.003.002-.002.002-.002.002-.005.003-.002.004-.002.002-.003.002-.002.002-.002.003-.002.002-.005.005-.003.002-.001.002-.003.003-.002.002-.002.005-.003.002-.002.002-.004.002-.003.002-.002.005-.002.002-.002.002-.002.003-.003.002-.002.005-.005.002-.002.002-.002.002-.002.002-.003.005-.002.002-.002.002-.002.002-.003.002-.002.005-.005.002-.002.003-.002.002-.002.004-.002.003-.003.002-.002.002-.002.002-.002.004-.003.003-.002.002-.004.002-.003.005-.002.002-.002.003-.002.002-.003.005-.002.002-.003.002-.002.002-.002.002-.002.004-.002.003-.003.002-.004.002-.003.005-.002.002-.002.002-.002.003-.003.004-.002.002-.002.002-.002.003-.003.004-.002.002-.002.003-.002.002-.002.005-.003.002-.002.002-.003.005-.002.002-.002.002-.002.002-.005.005-.002.002-.002.002-.002.002-.003.005-.001.002-.003.003-.003.004-.002.003-.002.002-.002.002-.002.004-.002.002-.003.003-.002.004-.002.002-.003.003-.002.002-.002.005-.002.002-.003.002-.002.005-.002.002-.002.002-.003.002-.002.005-.002.002-.003.002-.002.004-.002.003-.003.002-.002.005-.002.002-.002.002-.002.004-.003.002-.002.003-.002.004-.002.002-.003.002-.002.003-.003.005-.002.002-.002.003-.002.004-.002.002-.002.003-.003.004-.002h.002l.002-.002.004-.002.003-.003.002-.002.005-.003.001-.002.003-.002.005-.002.002-.002.002-.003.004-.002.002-.002.003-.002.004-.003.002-.002.003-.002.005-.002.002-.003.002-.002h.005l.002-.003.004-.002.002-.002.002-.002.005-.002.002-.002.002-.003.005-.002.002-.003.003-.002.004-.002.002-.002h.005l.002-.003.002-.001.004-.003.002-.002.003-.002.005-.002.002-.003.002-.002.005-.002.002-.003h.004l.003-.002.002-.002.004-.002.003-.002.004-.003.002-.002.002-.002.005-.003h.002l.003-.002.004-.002.002-.003.005-.002.002-.002.002-.002.004-.003h.003l.005-.002.001-.002.003-.002.005-.003.002-.002.004-.002h.003l.002-.002.004-.003.002-.002.005-.002.002-.003.002-.002h.005l.002-.002.005-.002.002-.003.004-.001.002-.003.003-.002h.004l.002-.003.005-.002.002-.002.002-.002.005-.002h.002l.004-.003.003-.002.004-.002.002-.002h.003l.004-.003.002-.002.006-.002.001-.003.005-.002h.002l.003-.002.004-.002.002-.003.004-.002h.002l.005-.002.003-.002.004-.003.002-.002h.002l.005-.002.002-.002.005-.003.002-.002h.004l.003-.003.004-.002.002-.002h.005l.003-.002.002-.002.004-.003.002-.002h.005l.002-.002.004-.002.002-.003h.005l.002-.002.005-.002.002-.002h.005l.002-.003.004-.002.002-.002h.002l.005-.002.002-.003.005-.002h.002l.005-.002.002-.002.005-.003h.002l.004-.002.002-.002.005-.002h.002l.004-.002.003-.003.004-.002h.003l.004-.003.002-.002h.004l.003-.002.004-.002.002-.003h.005l.002-.002.005-.002h.002l.005-.002.002-.002h.005l.002-.003.004-.002.002-.002h.005l.002-.003.005-.002h.002l.004-.002.003-.002h.004l.002-.002.005-.002h.002l.004-.003.002-.003h.005l.002-.002.005-.002.002-.002h.005l.002-.002.004-.003h.002l.005-.002h.002l.005-.002.005-.002h.002l.004-.003.002-.002h.005l.002-.002.004-.003h.002l.005-.002.002-.002h.005l.002-.002.005-.002h.002l.005-.003h.004l.002-.002.005-.002H20l.004-.003.003-.002h.004l.002-.002h.005l.002-.002.005-.002h.004l.002-.002h.004l.003-.003.005-.002h.002l.004-.003v5.974"/>
        <path d="m10.036 18.74.002.04.002.039.005.036.007.033.006.035.01.03.01.026.012.027.013.025.016.023.016.02.018.021.018.018.018.016.02.015.023.014.02.012.025.01.047.02.05.013.051.01.052.008.054.004.054.002.051.003.06-.003h.056l.056-.004.054-.004.054-.007.052-.007.048-.01.05-.008.05-.011.047-.012.045-.013.045-.014.045-.016.042-.018.042-.016.042-.02.038-.019.039-.02.074-.045.07-.048.064-.052.063-.054.057-.057.057-.061.05-.064.046-.066.042-.07.04-.07.035-.072.034-.073.03-.077.026-.077.023-.08.02-.079.018-.08.013-.08.012-.082.008-.082.008-.081.004-.082v-.082l-.003-.101-.004-.1-.01-.097-.015-.096-.018-.093-.02-.09-.027-.089-.03-.086-.03-.084-.037-.082-.04-.077-.043-.076-.048-.073-.051-.07-.052-.066-.058-.066-.06-.059-.064-.059-.066-.054-.069-.05-.074-.048-.075-.043-.078-.038-.084-.036-.082-.033-.088-.029-.09-.023-.095-.02-.095-.015-.098-.012-.1-.007-.103-.002h-.083l-.074.002-.12.007-.094.009-.081.005v3.166zm-.565-2.73-.002-.048-.003-.045-.002-.04-.006-.04-.007-.036-.006-.03-.01-.03-.011-.028-.011-.027-.014-.022-.013-.021-.017-.018-.015-.019-.016-.013-.017-.014-.019-.011-.02-.011-.018-.007-.042-.014-.043-.009-.047-.007-.048-.002-.047-.002-.096-.002v-.15l.168.007.171.002.17.002h.172l.197-.002.233-.004.265-.003.304-.002h.07l.067.002.067.005.068.004.065.007.065.007.064.009.062.011.061.012.061.013.061.014.058.016.057.016.056.018.055.018.055.02.055.023.05.02.05.026.052.024.047.025.05.028.047.027.045.027.045.029.043.032.085.061.08.068.075.07.062.073.067.075.063.08.056.078.054.084.05.086.042.087.04.088.035.09.03.094.028.092.02.094.016.094.013.096.007.097.002.096-.002.056-.003.061-.006.066-.007.07-.01.073-.016.075-.019.079-.022.08-.025.083-.03.082-.035.086-.038.084-.045.084-.05.086-.053.081-.03.044-.031.04-.034.039-.034.04-.036.041-.036.04-.031.037-.04.037-.041.036-.045.036-.046.037-.046.033-.05.034-.052.032-.052.032-.056.03-.057.029-.057.027-.061.027-.063.025-.066.025-.067.02-.07.023-.07.018-.074.018-.077.016-.076.014-.08.013-.084.012-.083.009-.089.007-.089.004-.092.005h-.094l-.217-.003-.21-.004-.208-.002-.203-.003h-.196l-.19.005-.194.002-.193.005v-.152l.12-.011.055-.007.049-.01.047-.01.044-.012.038-.016.036-.02.015-.012.014-.011.013-.013.014-.014.013-.018.012-.016.009-.02.008-.02.01-.024.007-.022.013-.055.013-.131V16.01zM28.187 20.806l.043.011.04.014.04.016.037.018.037.02.035.025.034.025.031.028.03.029.029.031.027.033.027.034.022.036.025.038.02.037.021.04.018.041.015.04.016.044.014.043.013.043.011.043.01.045.005.044.015.088.002.045.003.044.001.043-.001.087-.005.087-.01.089-.01.086-.01.042-.009.044-.009.04-.013.042-.011.038-.016.038-.016.039-.018.036-.02.034-.023.034-.022.032-.027.031-.028.028-.029.027-.03.025-.035.023-.036.018-.04.018-.04.015-.046.014-.045.01-.049.008-.051.005h-.102l-.045-.007-.043-.007-.04-.009-.041-.014-.04-.015-.036-.018-.037-.02-.036-.026-.03-.025-.032-.027-.032-.03-.029-.031-.027-.034-.025-.036-.024-.037-.023-.04-.022-.04-.021-.042-.018-.043-.018-.045-.013-.046-.016-.047-.011-.048-.01-.047-.013-.05-.006-.052-.008-.05-.006-.053-.002-.051-.002-.053-.003-.052.003-.082.006-.079.012-.082.013-.076.011-.041.01-.039.012-.036.014-.039.014-.036.018-.034.018-.034.017-.033.023-.032.023-.033.022-.026.027-.03.027-.025.03-.025.031-.022.034-.02.036-.02.036-.015.038-.014.042-.01.043-.01.045-.007a.926.926 0 0 1 .234.007zm-.193-.179-.06.005-.06.006-.058.012-.058.013-.057.014-.054.02-.054.02-.051.023-.052.025-.05.03-.047.03-.045.033-.045.035-.043.036-.04.038-.038.04-.036.044-.034.045-.034.045-.03.048-.028.05-.025.052-.023.052-.02.054-.02.055-.016.057-.011.059-.011.059-.007.059-.005.06-.002.064.002.064.005.061.007.06.01.062.015.057.016.057.017.056.02.052.026.053.024.05.03.047.028.048.034.045.035.04.037.041.038.041.04.036.044.035.045.034.047.029.047.03.05.024.051.025.055.02.054.019.056.018.056.013.059.012.058.01.06.006.064.004.063.003.063-.003.06-.004.06-.007.062-.01.058-.013.06-.013.055-.019.054-.02.054-.022.052-.027.05-.028.05-.03.046-.03.045-.038.043-.036.043-.038.038-.043.038-.043.036-.046.031-.047.032-.05.03-.05.026-.055.023-.054.02-.056.02-.06.016-.06.013-.062.01-.065.008-.064.006-.068v-.131l-.006-.062-.008-.06-.012-.06-.013-.056-.016-.054-.02-.055-.02-.052-.025-.05-.027-.048-.03-.045-.03-.046-.035-.043-.036-.04-.038-.039-.04-.036-.043-.036-.043-.032-.047-.032-.047-.03-.05-.024-.052-.025-.051-.023-.055-.02-.056-.018-.056-.014-.058-.014-.059-.011-.06-.01-.062-.003-.062-.005h-.124zM14.268 19.274h-.06l-.055-.002-.025-.003-.024-.004-.023-.007-.02-.007-.018-.011-.018-.011-.013-.016-.012-.021-.01-.02-.008-.028-.004-.028v-2.28l-.005-.032-.002-.014-.005-.014-.004-.009-.007-.007-.01-.004-.01-.002-.022.002-.025.004-.027.01-.03.013-.022.011-.045.018-.149.053-.195.063-.21.066v.093l.075.04.063.036.027.019.024.018.023.018.02.02.016.023.016.023.011.027.009.03.009.031.004.039.005.04v1.63l-.002.035-.003.028-.006.028-.01.02-.01.02-.014.017-.016.01-.018.012-.018.007-.022.007-.023.004-.025.003-.054.002h-.168v.152l.319-.007.158-.002.155-.003.158.003.153.004.15.005h.148v-.152h-.096M34.033 22.796l-.037-.002-.031-.005-.029-.009-.025-.011-.023-.016-.02-.02-.016-.025-.015-.03-.03-.075-.029-.079-.056-.167-.578-1.655-.016-.04-.014-.04-.01-.01-.007-.005-.01-.002h-.006l-.018.002-.012.004-.058.032-.072.036-.079.036-.04.016-.038.016-.012.048-.014.05-.03.106-.034.102-.034.096-.502 1.452-.009.023-.011.023-.012.02-.013.018-.014.018-.013.016-.016.014-.015.013-.019.011-.017.012-.02.007-.018.009-.021.004-.02.005-.023.002h-.051v.125l.013-.002.168-.007.086-.005h.178l.095.005.19.007.014.002v-.125h-.087l-.039-.005-.038-.004-.034-.01-.015-.006-.014-.006-.011-.008-.011-.008-.01-.012-.004-.011-.005-.011-.002-.017.002-.02.005-.022.016-.057.022-.066.025-.077.097-.32h.693l.119.359.024.072.021.064.014.052.002.02.002.016-.002.011-.002.01-.008.009-.006.008-.009.008-.012.006-.024.01-.03.006-.029.007-.031.002h-.076v.125l.013-.002.239-.007.117-.005h.226l.109.005.213.007.014.002v-.125h-.031zm-.928-.863h-.55l.276-.848.274.848zM14.03 15.568l-.003.03-.005.027-.006.027-.01.027-.01.025-.014.023-.018.022-.018.021-.02.018-.02.016-.025.013-.022.012-.028.011-.027.007-.027.004h-.058l-.03-.004-.026-.007-.025-.011-.025-.012-.023-.013-.022-.016-.02-.018-.018-.02-.016-.023-.013-.023-.014-.025-.009-.027-.006-.027-.005-.027-.002-.03.002-.03.005-.026.006-.028.01-.027.013-.025.013-.023.016-.022.018-.02.02-.019.022-.015.023-.014.025-.014.025-.009.027-.007.029-.004h.058l.027.004.027.007.028.01.022.013.025.014.02.015.02.018.018.021.018.022.013.023.012.025.009.027.006.028.005.027v.029h.002" fill="#1A1919"/>
        <path fill="#26376E" d="M22.322 12.337V6.365l.11.046.108.05.108.051.102.06.103.058.1.065.096.068.094.072.092.075.088.077.084.08.084.087.078.086.076.09.072.095.07.095.067.1.063.099.057.104.055.106.051.108.047.111.043.113.04.113.034.117.031.118.025.12.022.122.016.122.014.126.006.124.003.13-.003.126-.006.126-.014.124-.016.122-.022.123-.025.12-.031.119-.034.115-.04.115-.043.114-.047.108-.051.108-.055.107-.057.103-.063.102-.067.097-.07.097-.072.093-.076.09-.078.088-.084.084-.084.081-.088.08-.092.074-.094.07-.097.068-.099.066-.103.06-.102.057-.108.054-.108.047-.108.046h-.002"/>
        <path d="m23.763 22.796-.036-.002-.032-.005-.029-.009-.025-.011-.022-.016-.02-.02-.016-.025-.016-.03-.029-.075-.03-.079-.055-.167-.579-1.655-.015-.04-.014-.04-.01-.01-.008-.005-.01-.002h-.006l-.017.002-.012.004-.058.032-.073.036-.078.036-.041.016-.038.016-.011.048-.014.05-.031.106-.034.102-.034.096-.501 1.452-.01.023-.01.023-.012.02-.014.018-.013.018-.014.016-.015.014-.016.013-.018.011-.018.012-.02.007-.018.009-.02.004-.02.005-.023.002h-.052v.125l.014-.002.168-.007.086-.005h.177l.095.005.191.007.014.002v-.125h-.088l-.038-.005-.039-.004-.033-.01-.016-.006-.013-.006-.012-.008-.01-.008-.01-.012-.004-.011-.005-.011-.002-.017.002-.02.005-.022.015-.057.023-.066.025-.077.096-.32h.693l.12.359.024.072.02.064.014.052.002.02.002.016-.002.011-.002.01-.013.017-.01.008-.01.006-.026.01-.029.006-.03.007-.03.002h-.077v.125l.013-.002.239-.007.117-.005h.227l.108.005.214.007.014.002v-.125h-.032zm-.928-.863h-.55l.276-.848.274.848zM35.868 20.9a.665.665 0 0 1 .05.006c.011.002.02.006.023.011.005.005.007.013.007.024.001.011.001.027 0 .047V21.441c0 .01-.002.018-.007.023-.004.005-.012.008-.023.01a.873.873 0 0 1-.05.006v.037h.276v-.037a1.023 1.023 0 0 1-.051-.006c-.012-.002-.02-.005-.026-.01-.005-.005-.008-.013-.008-.023a.489.489 0 0 1-.001-.046v-.16h.092c.03.042.055.08.076.115l.056.09a.32.32 0 0 0 .045.057c.014.014.028.02.043.02h.105v-.016a.347.347 0 0 1-.043-.035.98.98 0 0 1-.098-.112l-.101-.14a.244.244 0 0 0 .074-.038.194.194 0 0 0 .052-.061.167.167 0 0 0 .02-.08.14.14 0 0 0-.065-.121.286.286 0 0 0-.144-.04h-.302v.025zm.19.012h.077c.024 0 .046.004.067.011.02.008.036.022.05.04a.14.14 0 0 1 .018.077c0 .05-.01.088-.032.116-.022.027-.054.042-.097.042h-.083v-.286zm.09.89a.618.618 0 0 0 .352-.116.61.61 0 0 0 .21-.293.607.607 0 0 0-.374-.757.596.596 0 0 0-.667.215.602.602 0 0 0 .29.92c.06.02.123.03.189.03zm0-.094a.465.465 0 0 1-.29-.1.515.515 0 0 1-.2-.403.5.5 0 0 1 .093-.293.512.512 0 0 1 .241-.183.477.477 0 0 1 .552.183.507.507 0 0 1-.24.77.464.464 0 0 1-.156.026z" fill="#1A1919"/>
        <path d="M9.04 1.5h26.92c.697 0 1.332.289 1.793.753v.001c.461.466.747 1.107.747 1.811v18.87a2.57 2.57 0 0 1-.746 1.81v.001h-.001a2.522 2.522 0 0 1-1.794.754H9.041a2.522 2.522 0 0 1-1.794-.753l-.001-.001a2.571 2.571 0 0 1-.746-1.811V4.065c0-.704.286-1.345.746-1.81v-.001h.001A2.522 2.522 0 0 1 9.041 1.5zm26.92.484H9.04c-.567 0-1.082.234-1.455.61l-.001.001a2.085 2.085 0 0 0-.605 1.47v18.87c0 .573.232 1.093.605 1.47.374.377.89.611 1.457.611h26.918c.568 0 1.083-.234 1.456-.61l.001-.001c.373-.377.605-.897.605-1.47V4.065c0-.573-.232-1.093-.605-1.47a2.045 2.045 0 0 0-1.457-.611z" fill="#26376E"/>
    </g>
</svg>
