<?xml version="1.0" encoding="UTF-8"?>
<svg width="45px" height="27px" viewBox="0 0 45 27" version="1.1" xmlns="http://www.w3.org/2000/svg" xmlns:xlink="http://www.w3.org/1999/xlink">
    <title>534C8EA5-D361-4C25-8341-F5054FF10A04</title>
    <defs>
        <rect id="path-1" x="0" y="0" width="45" height="27" rx="4"></rect>
        <linearGradient x1="75.5551195%" y1="88.9979909%" x2="40.9921502%" y2="36.2538195%" id="linearGradient-3">
            <stop stop-color="#F89F20" offset="0%"></stop>
            <stop stop-color="#F79A20" offset="25.02%"></stop>
            <stop stop-color="#F68D20" offset="53.31%"></stop>
            <stop stop-color="#F58720" offset="61.96%"></stop>
            <stop stop-color="#F48120" offset="72.32%"></stop>
            <stop stop-color="#F37521" offset="100%"></stop>
        </linearGradient>
        <linearGradient x1="70.0984642%" y1="88.28812%" x2="19.5836177%" y2="-7.94395895%" id="linearGradient-4">
            <stop stop-color="#F58720" offset="0%"></stop>
            <stop stop-color="#E16F27" offset="35.87%"></stop>
            <stop stop-color="#D4602C" offset="70.3%"></stop>
            <stop stop-color="#D05B2E" offset="98.16%"></stop>
        </linearGradient>
    </defs>
    <g id="Symbols" stroke="none" stroke-width="1" fill="none" fill-rule="evenodd">
        <g id="Graphics/Card/Discover">
            <g id="Discover" transform="translate(0.000000, -0.000000)">
                <mask id="mask-2" fill="white">
                    <use xlink:href="#path-1"></use>
                </mask>
                <rect stroke="#BFBFBF" stroke-width="0.5" x="0.25" y="0.25" width="44.5" height="26.5" rx="4"></rect>
            </g>
            <g id="Discover-Card-01" transform="translate(3.500000, 1.500000)" fill-rule="nonzero">
                <polygon id="XMLID_428_" fill="#FFFFFF" points="0.13 0.148087207 37.86 0.148087207 37.86 23.8617853 0.14 23.8617853"></polygon>
                <path d="M37.73,13.3377211 C37.73,13.3377211 27.42,20.5150144 8.54,23.733443 L37.73,23.733443 L37.73,13.3377211 Z" id="XMLID_427_" fill="#F48120"></path>
                <path d="M37.86,0.00987248046 L0,0.00987248046 L0,24 L38,24 L38,0 L37.86,0 L37.86,0.00987248046 Z M37.73,0.276429453 C37.73,0.542986425 37.73,23.4570136 37.73,23.7235705 C37.46,23.7235705 0.55,23.7235705 0.28,23.7235705 C0.28,23.4570136 0.28,0.542986425 0.28,0.276429453 C0.55,0.276429453 37.45,0.276429453 37.73,0.276429453 Z" id="XMLID_2_" fill="#231F20"></path>
                <path d="M3.32,7.34512546 L1.75,7.34512546 L1.75,12.7749897 L3.32,12.7749897 C4.15,12.7749897 4.75,12.5775401 5.28,12.1530234 C5.91,11.6396545 6.28,10.869601 6.28,10.0699301 C6.27,8.46071575 5.06,7.34512546 3.32,7.34512546 Z M4.58,11.4323324 C4.24,11.7285068 3.81,11.8667215 3.11,11.8667215 L2.82,11.8667215 L2.82,8.27313863 L3.11,8.27313863 C3.8,8.27313863 4.22,8.39160839 4.58,8.70752777 C4.95,9.03331962 5.17,9.53681613 5.17,10.0600576 C5.17,10.5832991 4.95,11.1065405 4.58,11.4323324 Z" id="Shape" fill="#231F20"></path>
                <rect id="XMLID_422_" fill="#231F20" x="6.77" y="7.34512546" width="1.07" height="5.42986425"></rect>
                <path d="M10.46,9.42821884 C9.82,9.19127931 9.63,9.03331962 9.63,8.74701769 C9.63,8.40148087 9.97,8.14479638 10.43,8.14479638 C10.75,8.14479638 11.02,8.27313863 11.29,8.589058 L11.85,7.86836693 C11.39,7.47346771 10.84,7.26614562 10.23,7.26614562 C9.26,7.26614562 8.51,7.93747429 8.51,8.82599753 C8.51,9.57630605 8.86,9.96133278 9.86,10.3167421 C10.28,10.4648293 10.49,10.5635541 10.6,10.622789 C10.81,10.7610037 10.92,10.9584533 10.92,11.1855204 C10.92,11.629782 10.57,11.9555738 10.09,11.9555738 C9.58,11.9555738 9.17,11.6988893 8.92,11.2348828 L8.23,11.896339 C8.72,12.61703 9.32,12.9329494 10.13,12.9329494 C11.24,12.9329494 12.03,12.2023858 12.03,11.1460304 C12.05,10.2673797 11.68,9.87248046 10.46,9.42821884 Z" id="XMLID_421_" fill="#231F20"></path>
                <path d="M12.38,10.0699301 C12.38,11.6692719 13.65,12.903332 15.28,12.903332 C15.74,12.903332 16.14,12.8144796 16.62,12.5874126 L16.62,11.34348 C16.19,11.7679967 15.81,11.9358289 15.33,11.9358289 C14.25,11.9358289 13.48,11.1657754 13.48,10.0600576 C13.48,9.01357466 14.27,8.19415878 15.28,8.19415878 C15.79,8.19415878 16.18,8.37186343 16.62,8.80625257 L16.62,7.56232003 C16.15,7.3253805 15.76,7.2266557 15.3,7.2266557 C13.69,7.2266557 12.38,8.4903332 12.38,10.0699301 Z" id="XMLID_420_" fill="#231F20"></path>
                <polygon id="XMLID_419_" fill="#231F20" points="25.14 10.9979432 23.67 7.34512546 22.5 7.34512546 24.83 12.9132044 25.41 12.9132044 27.78 7.34512546 26.62 7.34512546"></polygon>
                <polygon id="XMLID_418_" fill="#231F20" points="28.27 12.7749897 31.31 12.7749897 31.31 11.856849 29.34 11.856849 29.34 10.3957219 31.24 10.3957219 31.24 9.47758124 29.34 9.47758124 29.34 8.27313863 31.31 8.27313863 31.31 7.34512546 28.27 7.34512546"></polygon>
                <path d="M35.56,8.95433978 C35.56,7.93747429 34.85,7.35499794 33.61,7.35499794 L32.02,7.35499794 L32.02,12.7848622 L33.09,12.7848622 L33.09,10.603044 L33.23,10.603044 L34.71,12.7848622 L36.03,12.7848622 L34.3,10.4944467 C35.11,10.3266146 35.56,9.78362814 35.56,8.95433978 Z M33.4,9.8527355 L33.09,9.8527355 L33.09,8.20403126 L33.42,8.20403126 C34.09,8.20403126 34.45,8.48046072 34.45,9.01357466 C34.45,9.55656109 34.09,9.8527355 33.4,9.8527355 Z" id="Shape" fill="#231F20"></path>
                <ellipse id="XMLID_415_" fill="url(#linearGradient-3)" cx="19.91" cy="10.0798026" rx="2.93" ry="2.89263677"></ellipse>
                <ellipse id="XMLID_414_" fill="url(#linearGradient-4)" opacity="0.65" cx="19.91" cy="10.0798026" rx="2.93" ry="2.89263677"></ellipse>
                <g id="XMLID_436_" transform="translate(35.660000, 7.226656)" fill="#231F20">
                    <path d="M0.58,0.327704648 C0.58,0.227704648 0.51,0.177704648 0.4,0.177704648 L0.24,0.177704648 L0.24,0.657704648 L0.36,0.657704648 L0.36,0.467704648 L0.5,0.657704648 L0.64,0.657704648 L0.48,0.457704648 C0.54,0.447704648 0.58,0.397704648 0.58,0.327704648 Z M0.38,0.397704648 L0.36,0.397704648 L0.36,0.267704648 L0.38,0.267704648 C0.44,0.267704648 0.47,0.287704648 0.47,0.327704648 C0.47,0.377704648 0.44,0.397704648 0.38,0.397704648 Z" id="Shape"></path>
                    <path d="M0.42,0 C0.19,0 0,0.19 0,0.42 C0,0.65 0.19,0.84 0.42,0.84 C0.65,0.84 0.84,0.65 0.84,0.42 C0.84,0.19 0.65,0 0.42,0 Z M0.42,0.77 C0.24,0.77 0.08,0.62 0.08,0.42 C0.08,0.23 0.23,0.07 0.42,0.07 C0.6,0.07 0.75,0.23 0.75,0.42 C0.75,0.61 0.6,0.77 0.42,0.77 Z" id="Shape"></path>
                </g>
            </g>
        </g>
    </g>
</svg>