<svg width="45" height="27" xmlns="http://www.w3.org/2000/svg">
    <g fill="none" fill-rule="evenodd">
        <rect fill="#0072CE" width="45" height="27" rx="4"/>
        <path d="M37.983 15.6h-1.59c-.158 0-.264.005-.353.065-.092.06-.127.147-.127.262 0 .137.078.23.19.271.093.032.192.041.337.041l.473.013c.477.012.795.094.99.293.035.028.056.059.08.09V15.6zm0 2.399c-.212.309-.624.465-1.183.465h-1.685v-.78h1.678c.166 0 .283-.022.353-.09a.32.32 0 0 0 .103-.237.298.298 0 0 0-.107-.241c-.063-.056-.155-.08-.307-.08-.82-.029-1.841.024-1.841-1.127 0-.528.336-1.084 1.252-1.084h1.737v-.724H36.37c-.487 0-.841.116-1.092.297v-.297h-2.388c-.382 0-.83.094-1.042.297v-.297h-4.264v.297c-.34-.244-.912-.297-1.177-.297h-2.812v.297c-.269-.259-.866-.297-1.23-.297h-3.148l-.72.777-.675-.777H13.12v5.078h4.614l.742-.79.7.79 2.843.003v-1.195h.28c.377.006.822-.01 1.215-.178v1.37h2.346v-1.323h.113c.144 0 .158.006.158.15v1.173h7.127c.452 0 .925-.115 1.187-.325v.325h2.26c.47 0 .93-.066 1.28-.234v-.946zm-3.48-1.454c.17.175.261.397.261.771 0 .783-.49 1.148-1.37 1.148h-1.699v-.78h1.692c.166 0 .283-.022.357-.09a.322.322 0 0 0 .103-.237.312.312 0 0 0-.107-.241c-.066-.056-.159-.08-.31-.08-.816-.029-1.838.024-1.838-1.127 0-.528.333-1.084 1.247-1.084h1.75v.775h-1.601c-.159 0-.262.006-.35.065-.095.06-.13.147-.13.262 0 .138.08.231.19.271.092.032.191.042.34.042l.47.012c.473.012.798.093.996.293zm-7.87-.225c-.118.07-.262.075-.432.075h-1.06v-.817h1.075c.155 0 .31.003.416.066.113.058.18.171.18.327a.392.392 0 0 1-.18.35zm.526.453c.194.072.353.2.427.306.123.177.141.343.145.664v.721h-.876v-.455c0-.219.021-.543-.141-.712-.127-.13-.322-.162-.64-.162h-.932v1.33h-.877v-3.64h2.014c.442 0 .763.02 1.05.172.275.166.448.393.448.808 0 .58-.388.877-.618.968zm1.102-1.948h2.911v.753H29.13v.661h1.993v.743H29.13v.724l2.042.003v.755h-2.911v-3.639zm-5.886 1.68h-1.127v-.927h1.137c.315 0 .534.128.534.446 0 .315-.208.48-.544.48zm-1.996 1.628-1.34-1.482 1.34-1.435v2.917zm-3.459-.427h-2.144v-.724h1.915v-.743h-1.915v-.661h2.187l.954 1.06-.997 1.068zm6.936-1.682c0 1.011-.757 1.22-1.52 1.22h-1.088v1.22h-1.696l-1.074-1.204-1.116 1.204h-3.455v-3.639h3.508l1.073 1.193 1.11-1.193h2.787c.693 0 1.47.191 1.47 1.199zM9.745 10.63l-.597-1.45-.594 1.45h1.19zm13.153-.577c-.12.073-.262.075-.432.075h-1.06V9.32h1.075c.152 0 .31.007.414.066.113.053.183.166.183.321 0 .16-.067.287-.18.346zm7.56.578-.604-1.45-.6 1.45h1.204zM16.366 12.2h-.895l-.003-2.85-1.265 2.85h-.766L12.17 9.349V12.2h-1.774l-.335-.812H8.243l-.338.812h-.948L8.52 8.562h1.296l1.484 3.445V8.562h1.424l1.141 2.469 1.05-2.469h1.452v3.639zm3.564 0h-2.914V8.562h2.914v.758h-2.042v.656h1.993v.746h-1.993v.726h2.042v.753zm4.109-2.659c0 .58-.389.88-.615.97.19.073.354.2.432.307.123.18.144.342.144.667v.715h-.88l-.003-.459c0-.219.02-.534-.138-.709-.127-.128-.322-.155-.636-.155h-.936V12.2h-.872V8.562h2.006c.446 0 .774.012 1.056.175.276.162.442.4.442.805zm1.396 2.659h-.89V8.562h.89v3.639zm10.326 0h-1.236L32.87 9.47v2.731h-1.776l-.34-.812h-1.812l-.33.812h-1.02c-.424 0-.96-.094-1.265-.402-.306-.31-.466-.728-.466-1.39 0-.54.095-1.033.47-1.422.282-.29.724-.425 1.325-.425h.845v.78h-.827c-.318 0-.498.047-.671.216-.15.153-.251.442-.251.824 0 .39.078.67.24.854.134.144.378.188.608.188h.391l1.23-2.862h1.307l1.477 3.442V8.562h1.328l1.534 2.535V8.562h.893v3.639zm-28.814.715h1.49l.337-.809h.752l.335.809h2.933v-.618l.262.62h1.522l.262-.63v.628h7.288l-.004-1.327h.141c.1.003.128.013.128.175v1.152h3.77v-.31c.304.163.776.31 1.399.31h1.586l.339-.809h.752l.332.809h3.056v-.768l.463.768h2.449V7.84h-2.424v.6l-.34-.6H31.29v.6l-.312-.6h-3.359c-.562 0-1.056.078-1.456.296v-.296h-2.318v.296c-.254-.225-.6-.296-.985-.296h-8.468l-.569 1.31-.583-1.31H10.57v.6l-.293-.6H8.003l-1.056 2.413v2.662z" fill="#FFF"/>
    </g>
</svg>
