<svg width="45" height="27" xmlns="http://www.w3.org/2000/svg">
    <g fill="none" fill-rule="evenodd">
        <rect fill="#006" width="45" height="27" rx="4"/>
        <path d="M25.258 13.718a8.781 8.781 0 0 1-8.782 8.782 8.782 8.782 0 1 1 0-17.563 8.782 8.782 0 0 1 8.782 8.781" fill="#C00"/>
        <path d="M28.266 4.937a8.75 8.75 0 0 0-6.782 3.202h1.775c.242.295.465.606.67.93h-3.114a8.823 8.823 0 0 0-.506.93h4.125c.14.302.265.612.372.93h-4.87a8.743 8.743 0 0 0-.254.93h5.379a8.846 8.846 0 0 1-.255 4.65h-4.87c.108.318.232.628.372.93h4.126c-.15.32-.32.63-.507.93h-3.112c.203.323.426.634.67.929h1.773a8.776 8.776 0 0 1-.887.93 8.75 8.75 0 0 0 5.895 2.272 8.782 8.782 0 0 0 0-17.563" fill="#F90"/>
        <path d="M14.426 14.68a1.64 1.64 0 0 0-.213-.015c-.54 0-.814.185-.814.552 0 .225.133.368.342.368.388 0 .668-.37.685-.905zm.693 1.614h-.79l.018-.375c-.24.296-.562.438-1 .438-.516 0-.87-.404-.87-.99 0-.882.616-1.396 1.674-1.396.108 0 .247.01.388.027.03-.12.038-.17.038-.234 0-.24-.166-.33-.612-.33a3.179 3.179 0 0 0-1.009.163l.132-.815c.475-.14.789-.191 1.141-.191.819 0 1.253.367 1.252 1.062.001.186-.03.415-.077.718-.083.524-.26 1.65-.285 1.923zM12.078 16.294h-.954l.547-3.424-1.22 3.424h-.65l-.08-3.405-.574 3.405h-.892L9 11.84h1.371l.083 2.493.837-2.493h1.524l-.737 4.454M29.444 14.68a1.632 1.632 0 0 0-.212-.015c-.54 0-.814.185-.814.552 0 .225.133.368.342.368.388 0 .668-.37.684-.905zm.694 1.614h-.79l.018-.375c-.24.296-.562.438-.999.438-.517 0-.87-.404-.87-.99 0-.882.616-1.396 1.673-1.396.108 0 .246.01.388.027.03-.12.038-.17.038-.234 0-.24-.166-.33-.612-.33a3.185 3.185 0 0 0-1.01.163c.011-.06.134-.815.134-.815.474-.14.788-.191 1.14-.191.82 0 1.253.367 1.252 1.062a4.61 4.61 0 0 1-.077.718c-.083.524-.26 1.65-.285 1.923zM19.356 16.239a2.179 2.179 0 0 1-.685.118c-.487 0-.753-.28-.753-.796-.007-.16.07-.582.13-.966l.414-2.472h.947l-.11.548h.572l-.13.871h-.573c-.11.689-.267 1.547-.27 1.661 0 .187.1.268.327.268a.776.776 0 0 0 .257-.034l-.126.802M22.261 16.21c-.325.1-.639.148-.972.147-1.06-.002-1.614-.555-1.614-1.616 0-1.239.704-2.15 1.659-2.15.781 0 1.28.51 1.28 1.31 0 .266-.034.525-.117.891H20.61c-.064.526.273.745.824.745.339 0 .645-.07.985-.228l-.158.9zm-.532-2.148c.005-.075.1-.647-.441-.647-.302 0-.518.23-.606.647h1.047zM15.69 13.817c0 .458.223.774.727 1.011.386.182.446.235.446.4 0 .225-.17.328-.548.328-.284 0-.549-.045-.854-.143l-.131.836c.216.047.41.091.992.108 1.006 0 1.47-.383 1.47-1.211 0-.498-.194-.79-.671-1.01-.4-.183-.446-.224-.446-.393 0-.196.158-.296.466-.296.188 0 .443.02.685.054l.136-.84a6.437 6.437 0 0 0-.839-.07c-1.066 0-1.436.556-1.432 1.226M26.898 12.686c.265 0 .512.069.852.24l.156-.966c-.14-.055-.631-.377-1.048-.377-.637 0-1.177.317-1.556.839-.554-.183-.781.187-1.06.556l-.248.058a1.85 1.85 0 0 0 .03-.365h-.875c-.12 1.122-.332 2.257-.498 3.38l-.043.243h.954c.159-1.034.246-1.697.3-2.145l.358-.2c.054-.2.222-.266.559-.258a4.058 4.058 0 0 0-.068.742c0 1.186.64 1.924 1.666 1.924.264 0 .491-.035.843-.13l.167-1.016c-.316.155-.575.229-.81.229-.554 0-.89-.41-.89-1.086 0-.98.5-1.668 1.211-1.668M34.97 11.84l-.212 1.287c-.26-.343-.54-.592-.91-.592-.48 0-.919.365-1.206.902-.399-.083-.811-.224-.811-.224v.004c.031-.3.045-.483.041-.546h-.875c-.12 1.122-.332 2.257-.497 3.38l-.044.243h.954c.129-.836.227-1.531.3-2.081.326-.295.49-.551.818-.535-.146.353-.231.759-.231 1.176 0 .905.458 1.503 1.151 1.503.35 0 .618-.121.879-.4l-.045.337h.902l.726-4.454h-.94zm-1.192 3.617c-.325 0-.49-.24-.49-.714 0-.712.308-1.217.74-1.217.328 0 .506.25.506.71 0 .718-.313 1.221-.756 1.221z" fill="#006"/>
        <path fill="#FFF" d="M12.352 16.03H11.4l.546-3.424-1.22 3.424h-.65l-.08-3.404-.573 3.404h-.893l.746-4.454h1.37l.039 2.757.925-2.757h1.48l-.737 4.454M14.7 14.416a1.585 1.585 0 0 0-.213-.015c-.54 0-.814.185-.814.551 0 .226.134.37.342.37.388 0 .668-.37.685-.906zm.693 1.614h-.79l.019-.375c-.241.296-.563.438-1 .438-.516 0-.87-.404-.87-.99 0-.883.616-1.396 1.673-1.396.108 0 .247.01.389.028.03-.12.037-.171.037-.236 0-.24-.166-.329-.611-.329a3.167 3.167 0 0 0-1.01.163l.133-.815c.475-.14.788-.192 1.14-.192.82 0 1.253.368 1.252 1.063.002.186-.029.416-.077.717-.083.524-.26 1.65-.285 1.924zM28.18 11.696l-.156.966c-.34-.17-.587-.24-.851-.24-.712 0-1.211.688-1.211 1.669 0 .676.335 1.084.89 1.084.234 0 .494-.072.81-.228l-.168 1.015c-.351.096-.578.13-.843.13-1.026 0-1.666-.737-1.666-1.923 0-1.592.884-2.705 2.148-2.705.416 0 .908.177 1.048.232M29.719 14.416a1.573 1.573 0 0 0-.213-.015c-.54 0-.813.185-.813.551 0 .226.133.37.341.37.388 0 .669-.37.685-.906zm.693 1.614h-.79l.019-.375c-.241.296-.563.438-1 .438-.516 0-.87-.404-.87-.99 0-.883.615-1.396 1.673-1.396.108 0 .247.01.388.028.03-.12.038-.171.038-.236 0-.24-.166-.329-.611-.329-.467-.005-.851.11-1.01.163l.133-.815c.475-.14.788-.192 1.14-.192.82 0 1.253.368 1.252 1.063.002.186-.029.416-.077.717-.082.524-.26 1.65-.285 1.924zM19.63 15.975c-.26.082-.464.118-.685.118-.487 0-.753-.28-.753-.796-.007-.16.07-.581.13-.966l.414-2.472h.948l-.111.548h.487l-.13.87h-.488c-.11.69-.267 1.548-.27 1.662 0 .187.101.268.328.268.108 0 .192-.01.257-.034l-.127.802M22.536 15.946c-.325.1-.64.147-.972.147-1.062-.001-1.614-.556-1.614-1.616 0-1.239.703-2.15 1.658-2.15.782 0 1.28.51 1.28 1.31 0 .266-.034.525-.116.891h-1.887c-.064.526.272.745.823.745.34 0 .645-.07.986-.228l-.158.901zm-.533-2.148c.006-.076.101-.647-.44-.647-.302 0-.518.23-.606.647h1.046zM15.965 13.552c0 .46.222.774.726 1.012.386.182.446.235.446.4 0 .226-.17.328-.548.328-.284 0-.549-.044-.854-.143l-.13.836c.216.047.41.09.991.108 1.006 0 1.471-.383 1.471-1.211 0-.498-.195-.79-.672-1.01-.4-.183-.446-.224-.446-.393 0-.196.159-.297.467-.297.187 0 .443.021.685.055l.136-.84a6.49 6.49 0 0 0-.84-.07c-1.066 0-1.435.556-1.432 1.225M35.458 16.03h-.901l.044-.337c-.261.279-.53.4-.879.4-.692 0-1.15-.597-1.15-1.504 0-1.205.71-2.22 1.55-2.22.37 0 .65.15.91.494l.212-1.287h.94l-.726 4.454zm-1.406-.837c.444 0 .756-.503.756-1.22 0-.461-.178-.711-.505-.711-.433 0-.74.505-.74 1.217 0 .474.165.714.489.714zM31.271 12.407c-.119 1.122-.331 2.257-.497 3.38l-.043.243h.953c.341-2.216.423-2.648.958-2.594.086-.453.244-.85.362-1.05-.399-.084-.622.142-.914.57.023-.185.065-.365.057-.549h-.876M23.423 12.407c-.12 1.122-.332 2.257-.497 3.38l-.044.243h.954c.341-2.216.423-2.648.958-2.594.085-.453.244-.85.362-1.05-.399-.084-.622.142-.914.57.023-.185.065-.365.057-.549h-.876"/>
    </g>
</svg>
