<svg width="56" height="56" xmlns="http://www.w3.org/2000/svg">
    <path d="M10.734 26.924c0 11.586.114 20.565.268 21.102.285.993.787 1.93 1.753 2.086.967.156 3.809.288 10.847.288h10.462c.858-.058 1.442-.306 1.752-.745.464-.658.306-4.707-.134-5.146-.096-.096-2.149-.552-4.735-1.767-.763-.357-1.912-1.07-3.449-2.136H13.911v-28.52h9.365c5.151 0 9.571.08 9.822.176.394.15.457.907.457 5.473v5.298h.736c.404 0 1.054-.318 1.444-.707l.71-.707V14.26c0-4.713-.035-7.52-.207-8.562-.171-1.042-.905-1.334-2.174-1.697-1.27-.363-5.294-.268-10.618-.268-8.637 0-9.788.055-10.69.504-2.103 1.048-2.022.137-2.022 22.687zM20.854 7.61c-.635.764-.02 1.02 2.44 1.02 2.627 0 3.328-.15 3.328-.72 0-.561-.696-.72-3.166-.72-1.62 0-2.35.118-2.601.42m3.474 15.804c-.071.617.284 1.222.56 1.637.275.414 6.615 9.278 6.933 9.506.318.229.578.596.578.817 0 .453-.547.373-2.583-.379-1.762-.65-2.617-.402-2.617.758 0 1.726 1.825 2.168 2.617 2.685.792.518 3.914 2.157 5.844 2.771 3.67 1.17 6.74.31 9.904-2.77 1.422-1.385 1.8-1.933 1.8-3.065 0-2.338-1.707-5.096-2.097-5.805-.346-.627-2.23-3.294-2.468-3.646-.992-1.461-1.165-1.918-2.051-1.918-.578 0-1.042.131-1.416.47-.373.338-.556.103-1.156.103-.76 0-1.067.185-1.345.742-.278.558-.742.224-1.502.224-.9 0-1.197.473-1.197.947 0 .427-.192.576-.742.576-.837 0-1.569.596-1.569 1.276 0 .25-.423.326-.578-.008-.155-.334-2.995-4.33-3.466-4.717-.472-.386-1.155-1.267-2.025-1.267-.87 0-1.353.445-1.424 1.063zm-1.462 19.413c-1.032.375-1.734 1.346-1.734 2.395 0 1.516.779 2.298 2.286 2.298 1.58 0 2.625-.969 2.625-2.435 0-.562-.13-1.022-.289-1.022-.158 0-.288-.173-.288-.385 0-.691-1.602-1.215-2.6-.851" fill="#000" fill-rule="evenodd"/>
</svg>
