<svg width="45" height="27" xmlns="http://www.w3.org/2000/svg">
    <g fill="none" fill-rule="evenodd">
        <rect fill="#26337A" width="45" height="27" rx="4"/>
        <path fill="#FFFFFE" d="M18.45 17.55 19.835 9h2.215l-1.385 8.55H18.45M28.8 9.366A5.568 5.568 0 0 0 26.784 9c-2.224 0-3.79 1.183-3.802 2.877-.015 1.254 1.117 1.953 1.97 2.37.876.426 1.17.7 1.167 1.081-.006.584-.7.852-1.346.852-.9 0-1.38-.132-2.12-.458l-.288-.138-.315 1.951c.525.243 1.497.454 2.506.465 2.364 0 3.9-1.169 3.918-2.978.008-.994-.592-1.747-1.89-2.37-.786-.403-1.268-.671-1.263-1.08 0-.363.408-.75 1.289-.75a3.95 3.95 0 0 1 1.683.334l.202.1.305-1.89M31.842 14.514c.187-.492.899-2.392.899-2.392-.014.023.186-.495.3-.816l.152.738.522 2.47h-1.873zM34.625 9h-1.743c-.541 0-.946.151-1.183.71l-3.349 7.84h2.369s.386-1.055.474-1.286l2.889.004c.068.299.275 1.282.275 1.282h2.093L34.625 9zM16.603 9l-2.122 5.839-.228-1.187c-.395-1.367-1.626-2.85-3.003-3.592l1.941 7.49 2.295-.001L18.9 9h-2.297"/>
        <path d="M12.614 9H9.029L9 9.171c2.789.686 4.634 2.34 5.4 4.329l-.779-3.802c-.134-.524-.525-.68-1.007-.698" fill="#EC982D"/>
    </g>
</svg>
