<svg xmlns="http://www.w3.org/2000/svg" width="229" height="175" viewBox="0 0 229 175">
    <defs>
        <linearGradient id="o0cxmhv42a" x1="50%" x2="50%" y1="0%" y2="100%">
            <stop offset="0%" stop-color="#F40086"/>
            <stop offset="100%" stop-color="#E5004E"/>
        </linearGradient>
        <linearGradient id="5zwzj15eib" x1="50%" x2="50%" y1="0%" y2="100%">
            <stop offset="0%" stop-color="#F40086"/>
            <stop offset="100%" stop-color="#E5004E"/>
        </linearGradient>
    </defs>
    <g fill="none" fill-rule="evenodd">
        <g>
            <g>
                <g>
                    <path fill="#C2C8CC" fill-rule="nonzero" d="M32.56 87.44c7.68 0 14.14-1.26 19.38-3.78 5.24-2.52 9.14-5.88 11.7-10.08 2.56-4.2 3.84-8.86 3.84-13.98 0-7.92-2.82-14.24-8.46-18.96-5.64-4.72-14.38-7.08-26.22-7.08h-6.84l1.32-15.96h35.04V2H11.08L6.76 49.28h21.48c7.2 0 12.26.92 15.18 2.76 2.92 1.84 4.38 4.56 4.38 8.16 0 3.44-1.4 6.12-4.2 8.04-2.8 1.92-6.64 2.88-11.52 2.88-4.4 0-8.68-.66-12.84-1.98-4.16-1.32-7.84-3.18-11.04-5.58L.52 78.44c4 2.88 8.86 5.1 14.58 6.66 5.72 1.56 11.54 2.34 17.46 2.34zm78.84 0c6.96 0 13.16-1.72 18.6-5.16 5.44-3.44 9.7-8.42 12.78-14.94s4.62-14.3 4.62-23.34-1.54-16.82-4.62-23.34S135.44 9.16 130 5.72C124.56 2.28 118.36.56 111.4.56c-6.96 0-13.16 1.72-18.6 5.16-5.44 3.44-9.7 8.42-12.78 14.94S75.4 34.96 75.4 44s1.54 16.82 4.62 23.34 7.34 11.5 12.78 14.94c5.44 3.44 11.64 5.16 18.6 5.16zm0-16.44c-5.04 0-9.02-2.2-11.94-6.6-2.92-4.4-4.38-11.2-4.38-20.4s1.46-16 4.38-20.4c2.92-4.4 6.9-6.6 11.94-6.6 5.12 0 9.14 2.2 12.06 6.6 2.92 4.4 4.38 11.2 4.38 20.4s-1.46 16-4.38 20.4c-2.92 4.4-6.94 6.6-12.06 6.6zm81.48 16.44c6.96 0 13.16-1.72 18.6-5.16 5.44-3.44 9.7-8.42 12.78-14.94s4.62-14.3 4.62-23.34-1.54-16.82-4.62-23.34-7.34-11.5-12.78-14.94c-5.44-3.44-11.64-5.16-18.6-5.16-6.96 0-13.16 1.72-18.6 5.16-5.44 3.44-9.7 8.42-12.78 14.94s-4.62 14.3-4.62 23.34 1.54 16.82 4.62 23.34 7.34 11.5 12.78 14.94c5.44 3.44 11.64 5.16 18.6 5.16zm0-16.44c-5.04 0-9.02-2.2-11.94-6.6-2.92-4.4-4.38-11.2-4.38-20.4s1.46-16 4.38-20.4c2.92-4.4 6.9-6.6 11.94-6.6 5.12 0 9.14 2.2 12.06 6.6 2.92 4.4 4.38 11.2 4.38 20.4s-1.46 16-4.38 20.4c-2.92 4.4-6.94 6.6-12.06 6.6z" transform="translate(-604 -280) translate(550 280) translate(54)"/>
                    <g stroke="#FFF">
                        <g stroke-width=".6">
                            <g>
                                <path fill="#EEF1F3" d="M95.55 36.816L67.796 53.37s-14.778-.15-19.608-4.818l2.4-1.596 5.136-3.426.408-.27c2.964-2.208 2.718-7.548-.546-11.934-3.048-4.086-7.638-5.898-10.644-4.338l-.852.57-.036.03-2.604 1.746-2.796 1.872s.99-14.982 1.674-15.468C41.011 15.252 69.457 0 69.457 0S84.493 1.176 93.89 7.722c0 0 3.522 10.296 1.662 29.094z" transform="translate(-604 -280) translate(550 280) translate(54) translate(20 71) matrix(-1 0 0 1 125.7 15.282)"/>
                                <path fill="url(#o0cxmhv42a)" d="M87.925 32.16s-.936 7.23-20.55 17.886c0 0-5.166 2.226-16.788-3.09l5.136-3.426.408-.27c2.964-2.208 2.718-7.548-.546-11.934-3.048-4.086-7.638-5.898-10.644-4.338-.222.108-.432.246-.636.396-.078.054-.144.108-.216.174l-.036.03-2.604 1.746s.348-11.448 1.422-12.03c0 0 11.532-8.796 22.968-12.906 0 0 1.662-.876 5.574 0 3.906.882 10.848 4.398 12.996 6.846 0 0 2.934 2.346 3.516 7.134 0 0 .396 7.428 0 13.782z" transform="translate(-604 -280) translate(550 280) translate(54) translate(20 71) matrix(-1 0 0 1 125.7 15.282)"/>
                                <path fill="#EEF1F3" d="M56.131 43.26l-.408.27-5.136 3.426-2.4 1.596-2.856 1.908c2.442-1.818 2.706-5.772.888-9.558-.384-.81-.864-1.608-1.434-2.376-.432-.576-.894-1.11-1.374-1.59-2.85-2.856-6.474-4.02-9.042-2.856l4.284-2.874 2.796-1.872 2.604-1.746.036-.03.852-.57c3.006-1.56 7.596.252 10.644 4.338 3.264 4.386 3.51 9.726.546 11.934z" transform="translate(-604 -280) translate(550 280) translate(54) translate(20 71) matrix(-1 0 0 1 125.7 15.282)"/>
                                <path fill="#EEF1F3" d="M45.331 50.46c-2.958 2.208-8.01.444-11.28-3.942-3.264-4.38-3.51-9.726-.546-11.934.27-.204.558-.372.864-.504 2.568-1.164 6.192 0 9.042 2.856.48.48.942 1.014 1.374 1.59.57.768 1.05 1.566 1.434 2.376 1.818 3.786 1.554 7.74-.888 9.558z" transform="translate(-604 -280) translate(550 280) translate(54) translate(20 71) matrix(-1 0 0 1 125.7 15.282)"/>
                                <path fill="url(#5zwzj15eib)" d="M26.689 64.302c-13.5-.9-32.72.128-22.235 5.755 2.135 1.145 10.984 3.46 3.635 4.446-28.303 3.792 25.98 20.357 35.873 7.736.642-.819.5-2.027-.331-2.653-1.152-.867-3.55-1.927-8.542-2.684 0 0-9.3-1.5 3-3s24.9-6.9 10.651-11.588c-.777-.255-1.479-.773-1.745-1.547-.9-2.62-7.788-2.9-4.705-11.466 2.699-7.499-3.901-13.499-6.301-9.299-.834 1.46-.088 3.23.614 4.756 1.17 2.544 2.214 7.31 2.48 10.47.123 1.465-1.032 2.719-2.501 2.726-3.255.014-9.593.196-9.593 2.448 0 1.2 3.6 4.2-.3 3.9z" transform="translate(-604 -280) translate(550 280) translate(54) translate(20 71) matrix(-1 0 0 1 125.7 15.282)"/>
                            </g>
                        </g>
                        <g stroke-width=".5">
                            <path fill="#EEF1F3" d="M31.51 32.597c0 1.803-4.748 3.261-10.61 3.261-5.855 0-10.609-1.458-10.609-3.261 0-1.798 4.754-3.256 10.61-3.256 5.861 0 10.61 1.458 10.61 3.256z" transform="translate(-604 -280) translate(550 280) translate(54) translate(20 71) translate(109.8 6) rotate(-159 20.9 32.6)"/>
                            <path fill="#EEF1F3" d="M26.079 34.852v27.05c0-1.798-4.748-3.256-10.61-3.256-5.856 0-10.609 1.458-10.609 3.256v-27.05c0-1.799 4.753-3.257 10.61-3.257 5.86 0 10.609 1.458 10.609 3.257z" transform="translate(-604 -280) translate(550 280) translate(54) translate(20 71) translate(109.8 6) rotate(-159 15.47 46.749)"/>
                            <path fill="#E3E7EA" d="M25.573 12.618v23.77h-.04c0-.267-.7-.481-1.564-.481-.86 0-1.565.214-1.565.48v-23.77h3.169z" transform="translate(-604 -280) translate(550 280) translate(54) translate(20 71) translate(109.8 6) rotate(-159 23.988 24.503)"/>
                            <path fill="#EA0061" d="M32.19.736h1.494v12.821c0 .301-.134.566-.344.743-.209.178-.492.268-.789.219h0l-1.832-.302c-.268-.044-.493-.195-.638-.401-.145-.206-.21-.469-.162-.737h0L32.19.736z" transform="translate(-604 -280) translate(550 280) translate(54) translate(20 71) translate(109.8 6) rotate(-159 31.794 7.634)"/>
                        </g>
                    </g>
                </g>
            </g>
        </g>
    </g>
</svg>
