<?xml version="1.0" encoding="UTF-8"?>
<svg width="122px" height="40px" viewBox="0 0 122 40" version="1.1" xmlns="http://www.w3.org/2000/svg" xmlns:xlink="http://www.w3.org/1999/xlink">
    <!-- Generator: Sketch 59.1 (86144) - https://sketch.com -->
    <title>AppDownload/Android</title>
    <desc>Created with Sketch.</desc>
    <defs>
        <polygon id="path-1" points="0 0 122 0 122 40 0 40"></polygon>
        <polygon id="path-3" points="0 0 122 0 122 40 0 40"></polygon>
        <linearGradient x1="61.0453132%" y1="4.94615078%" x2="26.512955%" y2="71.8787395%" id="linearGradient-5">
            <stop stop-color="#00A0FF" offset="0%"></stop>
            <stop stop-color="#00A1FF" offset="1%"></stop>
            <stop stop-color="#00BEFF" offset="26%"></stop>
            <stop stop-color="#00D2FF" offset="51%"></stop>
            <stop stop-color="#00DFFF" offset="76%"></stop>
            <stop stop-color="#00E3FF" offset="100%"></stop>
        </linearGradient>
        <linearGradient x1="107.684729%" y1="50%" x2="-130.640394%" y2="50%" id="linearGradient-6">
            <stop stop-color="#FFE000" offset="0%"></stop>
            <stop stop-color="#FFBD00" offset="41%"></stop>
            <stop stop-color="#FFA500" offset="78%"></stop>
            <stop stop-color="#FF9C00" offset="100%"></stop>
        </linearGradient>
        <linearGradient x1="86.2709832%" y1="30.8725537%" x2="-50.1798561%" y2="136.108936%" id="linearGradient-7">
            <stop stop-color="#FF3A44" offset="0%"></stop>
            <stop stop-color="#C31162" offset="100%"></stop>
        </linearGradient>
        <linearGradient x1="-18.82494%" y1="-11.9103989%" x2="42.0863309%" y2="35.0790955%" id="linearGradient-8">
            <stop stop-color="#32A071" offset="0%"></stop>
            <stop stop-color="#2DA771" offset="7%"></stop>
            <stop stop-color="#15CF74" offset="48%"></stop>
            <stop stop-color="#06E775" offset="80%"></stop>
            <stop stop-color="#00F076" offset="100%"></stop>
        </linearGradient>
    </defs>
    <g id="AppDownload/Android" stroke="none" stroke-width="1" fill="none" fill-rule="evenodd">
        <g id="Group-3">
            <mask id="mask-2" fill="white">
                <use xlink:href="#path-1"></use>
            </mask>
            <g id="Clip-2"></g>
            <path d="M117.481481,40 L4.51851852,40 C2.03333333,40 0,37.75 0,35 L0,5 C0,2.25 2.03333333,0 4.51851852,0 L117.481481,0 C119.966667,0 122,2.25 122,5 L122,35 C122,37.75 119.966667,40 117.481481,40" id="Fill-1" fill="#000000" mask="url(#mask-2)"></path>
        </g>
        <g id="Group-6">
            <mask id="mask-4" fill="white">
                <use xlink:href="#path-3"></use>
            </mask>
            <g id="Clip-5"></g>
            <g id="Group" mask="url(#mask-4)" fill-rule="nonzero">
                <g transform="translate(10.000000, 7.000000)" id="Path">
                    <path d="M0.672868513,0.407647533 C0.343337864,0.797267022 0.175197596,1.29811037 0.202868513,1.80764753 L0.202868513,23.9276475 C0.168842483,24.4380268 0.337762016,24.9411913 0.672868513,25.3276475 L0.742868513,25.4076475 L13.1328685,13.0176475 L13.1328685,12.7176475 L0.742868513,0.337647533 L0.672868513,0.407647533 Z" fill="url(#linearGradient-5)"></path>
                    <path d="M17.2328685,17.1476475 L13.1328685,13.0176475 L13.1328685,12.7176475 L17.2328685,8.58764753 L17.3228685,8.64764753 L22.2328685,11.4276475 C23.6328685,12.2176475 23.6328685,13.5176475 22.2328685,14.3176475 L17.3428685,17.0976475 L17.2328685,17.1476475 Z" fill="url(#linearGradient-6)"></path>
                    <path d="M17.3528685,17.0876475 L13.1328685,12.8676475 L0.672868513,25.3276475 C1.25590109,25.8466184 2.12610849,25.8760457 2.74286851,25.3976475 L17.3528685,17.0876475" fill="url(#linearGradient-7)"></path>
                    <path d="M17.3528685,8.64764753 L2.74286851,0.347647533 C2.12983308,-0.137630962 1.25676624,-0.112324677 0.672868513,0.407647533 L13.1328685,12.8676475 L17.3528685,8.64764753 Z" fill="url(#linearGradient-8)"></path>
                    <path d="M17.2328685,16.9976475 L2.74286851,25.2476475 C2.15102273,25.6943268 1.3347143,25.6943268 0.742868513,25.2476475 L0.742868513,25.2476475 L0.672868513,25.3176475 L0.672868513,25.3176475 L0.742868513,25.3976475 L0.742868513,25.3976475 C1.3347143,25.8443268 2.15102273,25.8443268 2.74286851,25.3976475 L17.3528685,17.0876475 L17.2328685,16.9976475 Z" fill="#000000" opacity="0.2"></path>
                    <path d="M0.672868513,25.1876475 C0.351662588,24.7910075 0.194250438,24.2865731 0.232868513,23.7776475 L0.232868513,23.9276475 C0.198842483,24.4380268 0.367762016,24.9411913 0.702868513,25.3276475 L0.772868513,25.2576475 L0.672868513,25.1876475 Z" fill="#000000" opacity="0.12"></path>
                    <path d="M22.2328685,14.1676475 L17.2328685,16.9976475 L17.3228685,17.0876475 L22.2328685,14.3076475 C22.823264,14.0580058 23.2299289,13.5055554 23.2928685,12.8676475 L23.2928685,12.8676475 C23.1660767,13.4447478 22.7726302,13.9272765 22.2328685,14.1676475 Z" fill="#000000" opacity="0.12"></path>
                    <path d="M2.74286851,0.487647533 L22.2328685,11.5676475 C22.7726302,11.8080185 23.1660767,12.2905473 23.2928685,12.8676475 L23.2928685,12.8676475 C23.2299289,12.2297397 22.823264,11.6772893 22.2328685,11.4276475 L2.74286851,0.347647533 C1.35286851,-0.452352467 0.202868513,0.207647533 0.202868513,1.80764753 L0.202868513,1.95764753 C0.232868513,0.357647533 1.35286851,-0.302352467 2.74286851,0.487647533 Z" fill="#FFFFFF" opacity="0.25"></path>
                </g>
            </g>
            <g id="Group-32" mask="url(#mask-4)">
                <g transform="translate(39.000000, 7.000000)">
                    <path d="M57.742,11.3217 L59.373,11.3217 L59.373,0.3947 L57.742,0.3947 L57.742,11.3217 Z M72.432,4.3307 L70.563,9.0687 L70.506,9.0687 L68.567,4.3307 L66.809,4.3307 L69.719,10.9517 L68.06,14.6357 L69.761,14.6357 L74.246,4.3307 L72.432,4.3307 Z M63.182,10.0807 C62.648,10.0807 61.903,9.8137 61.903,9.1527 C61.903,8.3087 62.831,7.9857 63.632,7.9857 C64.349,7.9857 64.687,8.1407 65.123,8.3517 C64.996,9.3637 64.125,10.0807 63.182,10.0807 L63.182,10.0807 Z M63.38,4.0917 C62.199,4.0917 60.975,4.6117 60.469,5.7647 L61.918,6.3687 C62.226,5.7647 62.803,5.5677 63.408,5.5677 C64.251,5.5677 65.108,6.0747 65.123,6.9737 L65.123,7.0857 C64.827,6.9177 64.195,6.6647 63.422,6.6647 C61.861,6.6647 60.272,7.5217 60.272,9.1247 C60.272,10.5867 61.551,11.5287 62.986,11.5287 C64.083,11.5287 64.687,11.0367 65.066,10.4597 L65.123,10.4597 L65.123,11.3037 L66.697,11.3037 L66.697,7.1147 C66.697,5.1747 65.249,4.0917 63.38,4.0917 L63.38,4.0917 Z M53.299,5.6607 L50.98,5.6607 L50.98,1.9157 L53.299,1.9157 C54.519,1.9157 55.212,2.9257 55.212,3.7877 C55.212,4.6357 54.519,5.6607 53.299,5.6607 L53.299,5.6607 Z M53.257,0.3947 L49.349,0.3947 L49.349,11.3217 L50.98,11.3217 L50.98,7.1817 L53.257,7.1817 C55.065,7.1817 56.842,5.8727 56.842,3.7877 C56.842,1.7027 55.065,0.3947 53.257,0.3947 L53.257,0.3947 Z M31.946,10.0827 C30.82,10.0827 29.876,9.1397 29.876,7.8437 C29.876,6.5347 30.82,5.5767 31.946,5.5767 C33.058,5.5767 33.931,6.5347 33.931,7.8437 C33.931,9.1397 33.058,10.0827 31.946,10.0827 L31.946,10.0827 Z M33.819,4.9427 L33.762,4.9427 C33.396,4.5067 32.692,4.1117 31.805,4.1117 C29.947,4.1117 28.243,5.7457 28.243,7.8437 C28.243,9.9277 29.947,11.5477 31.805,11.5477 C32.692,11.5477 33.396,11.1527 33.762,10.7017 L33.819,10.7017 L33.819,11.2377 C33.819,12.6597 33.058,13.4207 31.834,13.4207 C30.834,13.4207 30.214,12.7017 29.961,12.0967 L28.539,12.6877 C28.947,13.6737 30.031,14.8847 31.834,14.8847 C33.749,14.8847 35.368,13.7587 35.368,11.0127 L35.368,4.3377 L33.819,4.3377 L33.819,4.9427 Z M36.495,11.3217 L38.129,11.3217 L38.129,0.3937 L36.495,0.3937 L36.495,11.3217 Z M40.536,7.7167 C40.494,6.2807 41.649,5.5487 42.479,5.5487 C43.128,5.5487 43.676,5.8717 43.859,6.3367 L40.536,7.7167 Z M45.606,6.4777 C45.296,5.6467 44.352,4.1117 42.423,4.1117 C40.508,4.1117 38.917,5.6187 38.917,7.8297 C38.917,9.9137 40.494,11.5477 42.606,11.5477 C44.31,11.5477 45.296,10.5057 45.704,9.8997 L44.437,9.0547 C44.014,9.6747 43.437,10.0827 42.606,10.0827 C41.775,10.0827 41.184,9.7027 40.803,8.9557 L45.775,6.9007 L45.606,6.4777 Z M6.002,5.2527 L6.002,6.8297 L9.776,6.8297 C9.664,7.7167 9.368,8.3647 8.917,8.8157 C8.368,9.3647 7.509,9.9707 6.002,9.9707 C3.678,9.9707 1.862,8.0977 1.862,5.7737 C1.862,3.4507 3.678,1.5767 6.002,1.5767 C7.255,1.5767 8.171,2.0697 8.847,2.7037 L9.959,1.5917 C9.016,0.6897 7.762,-0.0003 6.002,-0.0003 C2.819,-0.0003 0.144,2.5917 0.144,5.7737 C0.144,8.9557 2.819,11.5477 6.002,11.5477 C7.72,11.5477 9.016,10.9837 10.029,9.9277 C11.072,8.8857 11.396,7.4217 11.396,6.2387 C11.396,5.8717 11.367,5.5347 11.311,5.2527 L6.002,5.2527 Z M15.686,10.0827 C14.559,10.0827 13.588,9.1537 13.588,7.8297 C13.588,6.4917 14.559,5.5767 15.686,5.5767 C16.813,5.5767 17.784,6.4917 17.784,7.8297 C17.784,9.1537 16.813,10.0827 15.686,10.0827 L15.686,10.0827 Z M15.686,4.1117 C13.63,4.1117 11.954,5.6747 11.954,7.8297 C11.954,9.9707 13.63,11.5477 15.686,11.5477 C17.742,11.5477 19.418,9.9707 19.418,7.8297 C19.418,5.6747 17.742,4.1117 15.686,4.1117 L15.686,4.1117 Z M23.827,10.0827 C22.7,10.0827 21.729,9.1537 21.729,7.8297 C21.729,6.4917 22.7,5.5767 23.827,5.5767 C24.953,5.5767 25.925,6.4917 25.925,7.8297 C25.925,9.1537 24.953,10.0827 23.827,10.0827 L23.827,10.0827 Z M23.827,4.1117 C21.771,4.1117 20.095,5.6747 20.095,7.8297 C20.095,9.9707 21.771,11.5477 23.827,11.5477 C25.882,11.5477 27.558,9.9707 27.558,7.8297 C27.558,5.6747 25.882,4.1117 23.827,4.1117 L23.827,4.1117 Z" id="Fill-1" fill="#FFFFFF"></path>
                    <g id="Group-31" stroke-width="1" fill="none" transform="translate(0.000000, 16.111700)">
                        <path d="M7.7179,4.3996 L7.2499,4.6156 C7.0339,4.1826 6.7729,3.7426 6.4849,3.3646 L6.9349,3.1576 C7.1509,3.4546 7.5019,4.0036 7.7179,4.3996 M6.6919,4.7866 L6.2329,5.0026 C6.0259,4.5706 5.7639,4.1026 5.4939,3.7336 L5.9529,3.5356 C6.1599,3.8326 6.5029,4.3906 6.6919,4.7866 M0.9029,2.2386 C1.4879,2.1846 3.1719,2.0226 4.8099,1.8786 C5.7819,1.7976 6.6199,1.7526 7.2139,1.7256 L7.2139,2.4456 C6.7009,2.4456 5.9259,2.4546 5.4679,2.5896 C4.1979,2.9956 3.4329,4.3546 3.4329,5.4076 C3.4329,7.1446 5.0529,7.6946 6.5029,7.7486 L6.2409,8.5036 C4.5939,8.4326 2.7129,7.5496 2.7129,5.5606 C2.7129,4.1736 3.5499,3.0406 4.3689,2.5536 C3.5859,2.6436 1.1549,2.8786 0.1919,3.0766 L0.1109,2.2836 C0.4529,2.2746 0.7319,2.2566 0.9029,2.2386" id="Fill-3" fill="#FFFFFF"></path>
                        <path d="M7.7179,4.3996 L7.2499,4.6156 C7.0339,4.1826 6.7729,3.7426 6.4849,3.3646 L6.9349,3.1576 C7.1509,3.4546 7.5019,4.0036 7.7179,4.3996 Z M6.6919,4.7866 L6.2329,5.0026 C6.0259,4.5706 5.7639,4.1026 5.4939,3.7336 L5.9529,3.5356 C6.1599,3.8326 6.5029,4.3906 6.6919,4.7866 Z M0.9029,2.2386 C1.4879,2.1846 3.1719,2.0226 4.8099,1.8786 C5.7819,1.7976 6.6199,1.7526 7.2139,1.7256 L7.2139,2.4456 C6.7009,2.4456 5.9259,2.4546 5.4679,2.5896 C4.1979,2.9956 3.4329,4.3546 3.4329,5.4076 C3.4329,7.1446 5.0529,7.6946 6.5029,7.7486 L6.2409,8.5036 C4.5939,8.4326 2.7129,7.5496 2.7129,5.5606 C2.7129,4.1736 3.5499,3.0406 4.3689,2.5536 C3.5859,2.6436 1.1549,2.8786 0.1919,3.0766 L0.1109,2.2836 C0.4529,2.2746 0.7319,2.2566 0.9029,2.2386 Z" id="Stroke-5" stroke="#FFFFFF" stroke-width="0.2"></path>
                        <path d="M16.6573,5.966 L12.9663,5.966 L12.9663,7.964 C12.9663,8.442 12.8223,8.64 12.4893,8.747 C12.1563,8.856 11.5793,8.873 10.6353,8.864 C10.5803,8.676 10.4543,8.378 10.3463,8.198 C11.1023,8.226 11.8043,8.216 12.0113,8.207 C12.2103,8.207 12.2913,8.145 12.2913,7.955 L12.2913,5.966 L8.5913,5.966 L8.5913,5.309 L12.2913,5.309 L12.2913,3.85 L9.1943,3.85 L9.1943,3.211 L12.2913,3.211 L12.2913,1.824 C11.3013,1.933 10.2833,1.995 9.3563,2.04 C9.3293,1.861 9.2483,1.6 9.1853,1.446 C11.3093,1.348 13.9203,1.113 15.2713,0.691 L15.7753,1.222 C15.0103,1.455 14.0283,1.626 12.9663,1.752 L12.9663,3.211 L16.1533,3.211 L16.1533,3.85 L12.9663,3.85 L12.9663,5.309 L16.6573,5.309 L16.6573,5.966 Z" id="Fill-7" fill="#FFFFFF"></path>
                        <path d="M16.6573,5.966 L12.9663,5.966 L12.9663,7.964 C12.9663,8.442 12.8223,8.64 12.4893,8.747 C12.1563,8.856 11.5793,8.873 10.6353,8.864 C10.5803,8.676 10.4543,8.378 10.3463,8.198 C11.1023,8.226 11.8043,8.216 12.0113,8.207 C12.2103,8.207 12.2913,8.145 12.2913,7.955 L12.2913,5.966 L8.5913,5.966 L8.5913,5.309 L12.2913,5.309 L12.2913,3.85 L9.1943,3.85 L9.1943,3.211 L12.2913,3.211 L12.2913,1.824 C11.3013,1.933 10.2833,1.995 9.3563,2.04 C9.3293,1.861 9.2483,1.6 9.1853,1.446 C11.3093,1.348 13.9203,1.113 15.2713,0.691 L15.7753,1.222 C15.0103,1.455 14.0283,1.626 12.9663,1.752 L12.9663,3.211 L16.1533,3.211 L16.1533,3.85 L12.9663,3.85 L12.9663,5.309 L16.6573,5.309 L16.6573,5.966 Z" id="Stroke-9" stroke="#FFFFFF" stroke-width="0.2"></path>
                        <path d="M21.0861,2.1398 C22.0591,2.3018 23.8591,2.2658 24.7511,2.1398 L24.7511,2.8778 C23.7961,2.9768 22.0671,2.9768 21.0951,2.8778 L21.0861,2.1398 Z M21.4381,5.7768 C21.3571,6.1008 21.3201,6.3528 21.3201,6.5958 C21.3201,7.0008 21.5901,7.3978 22.8151,7.3978 C23.6161,7.3978 24.3001,7.3258 25.0211,7.1628 L25.0291,7.9188 C24.4801,8.0278 23.7331,8.0998 22.8061,8.0998 C21.3111,8.0998 20.6451,7.6048 20.6451,6.7668 C20.6451,6.4428 20.7081,6.0918 20.7891,5.7138 L21.4381,5.7768 Z M19.4031,1.4548 C19.3491,1.6088 19.2681,1.8968 19.2321,2.0588 C19.0611,2.8778 18.7991,4.4708 18.7991,5.4708 C18.7991,5.9028 18.8171,6.2628 18.8721,6.6958 C19.0241,6.2898 19.2231,5.7678 19.3671,5.4158 L19.7541,5.7038 C19.5291,6.3348 19.2051,7.2808 19.1241,7.7028 C19.0971,7.8288 19.0791,7.9998 19.0791,8.0998 L19.1061,8.4138 L18.4581,8.4588 C18.2771,7.8288 18.1331,6.8028 18.1331,5.5968 C18.1331,4.2828 18.4211,2.7518 18.5291,2.0228 C18.5571,1.8158 18.5921,1.5808 18.5921,1.3928 L19.4031,1.4548 Z" id="Fill-11" fill="#FFFFFF"></path>
                        <path d="M21.0861,2.1398 C22.0591,2.3018 23.8591,2.2658 24.7511,2.1398 L24.7511,2.8778 C23.7961,2.9768 22.0671,2.9768 21.0951,2.8778 L21.0861,2.1398 Z M21.4381,5.7768 C21.3571,6.1008 21.3201,6.3528 21.3201,6.5958 C21.3201,7.0008 21.5901,7.3978 22.8151,7.3978 C23.6161,7.3978 24.3001,7.3258 25.0211,7.1628 L25.0291,7.9188 C24.4801,8.0278 23.7331,8.0998 22.8061,8.0998 C21.3111,8.0998 20.6451,7.6048 20.6451,6.7668 C20.6451,6.4428 20.7081,6.0918 20.7891,5.7138 L21.4381,5.7768 Z M19.4031,1.4548 C19.3491,1.6088 19.2681,1.8968 19.2321,2.0588 C19.0611,2.8778 18.7991,4.4708 18.7991,5.4708 C18.7991,5.9028 18.8171,6.2628 18.8721,6.6958 C19.0241,6.2898 19.2231,5.7678 19.3671,5.4158 L19.7541,5.7038 C19.5291,6.3348 19.2051,7.2808 19.1241,7.7028 C19.0971,7.8288 19.0791,7.9998 19.0791,8.0998 L19.1061,8.4138 L18.4581,8.4588 C18.2771,7.8288 18.1331,6.8028 18.1331,5.5968 C18.1331,4.2828 18.4211,2.7518 18.5291,2.0228 C18.5571,1.8158 18.5921,1.5808 18.5921,1.3928 L19.4031,1.4548 Z" id="Stroke-13" stroke="#FFFFFF" stroke-width="0.2"></path>
                        <path d="M30.7692,1.2218 C30.7692,2.8148 30.9762,6.2088 34.5042,8.3068 C34.3522,8.4138 34.0822,8.7018 33.9642,8.8648 C31.7492,7.5238 30.7952,5.5518 30.3902,3.8498 C29.7242,6.1818 28.5902,7.8208 26.7982,8.8728 C26.6722,8.7388 26.3752,8.4588 26.1952,8.3428 C28.1852,7.3068 29.2922,5.4968 29.8412,2.9768 L30.2382,3.0398 C30.1742,2.6258 30.1382,2.2298 30.1212,1.8878 L27.9062,1.8878 L27.9062,1.2218 L30.7692,1.2218 Z" id="Fill-15" fill="#FFFFFF"></path>
                        <path d="M30.7692,1.2218 C30.7692,2.8148 30.9762,6.2088 34.5042,8.3068 C34.3522,8.4138 34.0822,8.7018 33.9642,8.8648 C31.7492,7.5238 30.7952,5.5518 30.3902,3.8498 C29.7242,6.1818 28.5902,7.8208 26.7982,8.8728 C26.6722,8.7388 26.3752,8.4588 26.1952,8.3428 C28.1852,7.3068 29.2922,5.4968 29.8412,2.9768 L30.2382,3.0398 C30.1742,2.6258 30.1382,2.2298 30.1212,1.8878 L27.9062,1.8878 L27.9062,1.2218 L30.7692,1.2218 Z" id="Stroke-17" stroke="#FFFFFF" stroke-width="0.2"></path>
                        <path d="M43.2721,7.4875 C42.8041,7.9645 42.2461,8.2345 41.6331,8.2345 C41.0481,8.2345 40.6431,7.8385 40.6431,7.0995 C40.6431,6.1095 40.9761,4.6425 40.9761,3.7785 C40.9761,3.2645 40.7151,3.0495 40.2651,3.0495 C39.5441,3.0495 38.4641,3.8855 37.6451,4.7685 C37.6271,5.1465 37.6191,5.4975 37.6191,5.8125 C37.6191,6.6235 37.6191,7.1635 37.6541,7.9645 C37.6641,8.1175 37.6811,8.3425 37.7001,8.5045 L36.9171,8.5045 C36.9251,8.3785 36.9431,8.1175 36.9431,7.9735 C36.9521,7.1185 36.9521,6.6765 36.9701,5.6865 C36.9701,5.5965 36.9791,5.4795 36.9791,5.3445 C36.5461,6.0025 35.9611,6.8565 35.5301,7.4515 L35.0801,6.8305 C35.5751,6.2095 36.6011,4.8225 37.0511,4.1205 C37.0691,3.8325 37.0871,3.5445 37.1051,3.2645 C36.7001,3.3095 35.9251,3.4185 35.3681,3.4905 L35.2951,2.7425 C35.4941,2.7525 35.6651,2.7525 35.8801,2.7335 C36.1681,2.7165 36.6911,2.6625 37.1501,2.5905 C37.1771,2.1665 37.1951,1.8515 37.1951,1.7525 C37.1951,1.5455 37.2051,1.3115 37.1591,1.0865 L38.0141,1.1135 C37.9691,1.3295 37.8971,1.8335 37.8351,2.4545 L37.8791,2.4365 L38.1401,2.7525 C38.0331,2.9145 37.8791,3.1575 37.7451,3.3735 C37.7261,3.5355 37.7171,3.7065 37.7001,3.8775 C38.3921,3.2385 39.5361,2.3835 40.4271,2.3835 C41.2641,2.3835 41.6871,2.8505 41.6871,3.5805 C41.6871,4.4705 41.3541,6.0105 41.3541,6.9115 C41.3541,7.2165 41.4991,7.4515 41.8141,7.4515 C42.2631,7.4515 42.7411,7.1635 43.1551,6.7135 L43.2721,7.4875 Z" id="Fill-19" fill="#FFFFFF"></path>
                        <path d="M43.2721,7.4875 C42.8041,7.9645 42.2461,8.2345 41.6331,8.2345 C41.0481,8.2345 40.6431,7.8385 40.6431,7.0995 C40.6431,6.1095 40.9761,4.6425 40.9761,3.7785 C40.9761,3.2645 40.7151,3.0495 40.2651,3.0495 C39.5441,3.0495 38.4641,3.8855 37.6451,4.7685 C37.6271,5.1465 37.6191,5.4975 37.6191,5.8125 C37.6191,6.6235 37.6191,7.1635 37.6541,7.9645 C37.6641,8.1175 37.6811,8.3425 37.7001,8.5045 L36.9171,8.5045 C36.9251,8.3785 36.9431,8.1175 36.9431,7.9735 C36.9521,7.1185 36.9521,6.6765 36.9701,5.6865 C36.9701,5.5965 36.9791,5.4795 36.9791,5.3445 C36.5461,6.0025 35.9611,6.8565 35.5301,7.4515 L35.0801,6.8305 C35.5751,6.2095 36.6011,4.8225 37.0511,4.1205 C37.0691,3.8325 37.0871,3.5445 37.1051,3.2645 C36.7001,3.3095 35.9251,3.4185 35.3681,3.4905 L35.2951,2.7425 C35.4941,2.7525 35.6651,2.7525 35.8801,2.7335 C36.1681,2.7165 36.6911,2.6625 37.1501,2.5905 C37.1771,2.1665 37.1951,1.8515 37.1951,1.7525 C37.1951,1.5455 37.2051,1.3115 37.1591,1.0865 L38.0141,1.1135 C37.9691,1.3295 37.8971,1.8335 37.8351,2.4545 L37.8791,2.4365 L38.1401,2.7525 C38.0331,2.9145 37.8791,3.1575 37.7451,3.3735 C37.7261,3.5355 37.7171,3.7065 37.7001,3.8775 C38.3921,3.2385 39.5361,2.3835 40.4271,2.3835 C41.2641,2.3835 41.6871,2.8505 41.6871,3.5805 C41.6871,4.4705 41.3541,6.0105 41.3541,6.9115 C41.3541,7.2165 41.4991,7.4515 41.8141,7.4515 C42.2631,7.4515 42.7411,7.1635 43.1551,6.7135 L43.2721,7.4875 Z" id="Stroke-21" stroke="#FFFFFF" stroke-width="0.2"></path>
                        <path d="M47.6823,6.425 C47.3943,6.362 47.1063,6.335 46.8093,6.335 C45.8903,6.335 45.3693,6.65 45.3693,7.136 C45.3693,7.631 45.8643,7.902 46.7193,7.902 C47.3753,7.902 47.6913,7.595 47.6913,6.984 C47.6913,6.839 47.6823,6.65 47.6823,6.425 L47.6823,6.425 Z M48.2943,3.679 C48.2943,4.264 48.3393,5.128 48.3843,5.903 C49.5283,6.218 50.5093,6.839 51.1573,7.424 L50.7253,8.09 C50.1583,7.514 49.3383,6.947 48.4113,6.623 C48.4203,6.857 48.4293,7.055 48.4293,7.217 C48.4293,7.946 47.9793,8.576 46.7903,8.576 C45.5673,8.576 44.6573,8.181 44.6573,7.163 C44.6573,6.362 45.3603,5.696 46.8993,5.696 C47.1513,5.696 47.4033,5.714 47.6553,5.75 C47.6193,5.029 47.5833,4.21 47.5833,3.679 C47.5833,3.166 47.5833,2.428 47.5743,2.05 C47.5653,1.726 47.5373,1.338 47.5023,1.167 L48.3673,1.167 C48.3303,1.357 48.3033,1.779 48.2943,2.05 C48.2863,2.293 48.2943,2.608 48.2943,2.959 C49.0053,2.941 50.1303,2.896 50.9323,2.788 L50.9593,3.472 C50.1663,3.544 49.0243,3.598 48.2943,3.616 L48.2943,3.679 Z" id="Fill-23" fill="#FFFFFF"></path>
                        <path d="M47.6823,6.425 C47.3943,6.362 47.1063,6.335 46.8093,6.335 C45.8903,6.335 45.3693,6.65 45.3693,7.136 C45.3693,7.631 45.8643,7.902 46.7193,7.902 C47.3753,7.902 47.6913,7.595 47.6913,6.984 C47.6913,6.839 47.6823,6.65 47.6823,6.425 Z M48.2943,3.679 C48.2943,4.264 48.3393,5.128 48.3843,5.903 C49.5283,6.218 50.5093,6.839 51.1573,7.424 L50.7253,8.09 C50.1583,7.514 49.3383,6.947 48.4113,6.623 C48.4203,6.857 48.4293,7.055 48.4293,7.217 C48.4293,7.946 47.9793,8.576 46.7903,8.576 C45.5673,8.576 44.6573,8.181 44.6573,7.163 C44.6573,6.362 45.3603,5.696 46.8993,5.696 C47.1513,5.696 47.4033,5.714 47.6553,5.75 C47.6193,5.029 47.5833,4.21 47.5833,3.679 C47.5833,3.166 47.5833,2.428 47.5743,2.05 C47.5653,1.726 47.5373,1.338 47.5023,1.167 L48.3673,1.167 C48.3303,1.357 48.3033,1.779 48.2943,2.05 C48.2863,2.293 48.2943,2.608 48.2943,2.959 C49.0053,2.941 50.1303,2.896 50.9323,2.788 L50.9593,3.472 C50.1663,3.544 49.0243,3.598 48.2943,3.616 L48.2943,3.679 Z" id="Stroke-25" stroke="#FFFFFF" stroke-width="0.2"></path>
                        <path d="M58.0885,1.59 L57.9815,2.283 C56.9895,2.221 55.1905,2.04 54.1815,1.861 L54.2985,1.176 C55.2795,1.402 57.2155,1.581 58.0885,1.59 M56.5135,3.913 C55.4865,3.913 54.6135,4.219 54.0825,4.372 C53.8125,4.444 53.5515,4.552 53.3355,4.633 L53.1095,3.805 C53.3535,3.778 53.6595,3.724 53.9205,3.67 C54.5505,3.527 55.5675,3.238 56.5855,3.238 C57.8545,3.238 58.7995,3.949 58.7995,5.219 C58.7995,7.154 57.0805,8.252 54.7665,8.595 L54.3435,7.91 C56.5045,7.64 58.0345,6.794 58.0345,5.192 C58.0345,4.444 57.4315,3.913 56.5135,3.913" id="Fill-27" fill="#FFFFFF"></path>
                        <path d="M58.0885,1.59 L57.9815,2.283 C56.9895,2.221 55.1905,2.04 54.1815,1.861 L54.2985,1.176 C55.2795,1.402 57.2155,1.581 58.0885,1.59 Z M56.5135,3.913 C55.4865,3.913 54.6135,4.219 54.0825,4.372 C53.8125,4.444 53.5515,4.552 53.3355,4.633 L53.1095,3.805 C53.3535,3.778 53.6595,3.724 53.9205,3.67 C54.5505,3.527 55.5675,3.238 56.5855,3.238 C57.8545,3.238 58.7995,3.949 58.7995,5.219 C58.7995,7.154 57.0805,8.252 54.7665,8.595 L54.3435,7.91 C56.5045,7.64 58.0345,6.794 58.0345,5.192 C58.0345,4.444 57.4315,3.913 56.5135,3.913 Z" id="Stroke-29" stroke="#FFFFFF" stroke-width="0.2"></path>
                    </g>
                </g>
            </g>
            <path d="M117.481481,0 L4.51851852,0 C2.03333333,0 0,2.25 0,5 L0,35 C0,37.75 2.03333333,40 4.51851852,40 L117.481481,40 C119.966667,40 122,37.75 122,35 L122,5 C122,2.25 119.966667,0 117.481481,0 M117.481481,0.8 C119.574459,0.8 121.277037,2.684 121.277037,5 L121.277037,35 C121.277037,37.316 119.574459,39.2 117.481481,39.2 L4.51851852,39.2 C2.42554074,39.2 0.722962963,37.316 0.722962963,35 L0.722962963,5 C0.722962963,2.684 2.42554074,0.8 4.51851852,0.8 L117.481481,0.8" id="Fill-4" fill="#A6A6A6" mask="url(#mask-4)"></path>
        </g>
    </g>
</svg>