<?xml version="1.0" encoding="UTF-8"?>
<svg width="69px" height="69px" viewBox="0 0 69 69" version="1.1" xmlns="http://www.w3.org/2000/svg" xmlns:xlink="http://www.w3.org/1999/xlink">
    <title>Graphics/Avatar</title>
    <g id="Graphics/Avatar" stroke="none" stroke-width="1" fill="none" fill-rule="evenodd">
        <path d="M34.5,0 C53.5529057,0 69,15.4459825 69,34.5 C69,53.5540175 53.5529057,69 34.5,69 C15.4459825,69 -2.20268248e-13,53.5540175 -2.20268248e-13,34.5 C-2.20268248e-13,15.4459825 15.4459825,0 34.5,0 Z M34.5,1 C15.9982673,1 1,15.9982673 1,34.5 C1,44.2259241 5.14455623,52.9837158 11.7638977,59.103604 L11.7622256,59.355443 C11.7622256,50.04655 19.3077756,42.501 28.6155556,42.501 L41.7077756,42.501 C50.5164645,42.501 57.7468501,49.2590472 58.4969223,57.8740919 C64.3774837,51.8387942 68,43.592377 68,34.5 C68,15.9986562 53.0010099,1 34.5,1 Z M34.3819956,14.64655 C40.3264456,14.64655 45.1453356,20.04433 45.1453356,26.70211 C45.1453356,33.35989 40.3264456,38.75767 34.3819956,38.75767 C28.4375556,38.75767 23.6175556,33.35989 23.6175556,26.70211 C23.6175556,20.04433 28.4375556,14.64655 34.3819956,14.64655 Z" id="Combined-Shape" fill="#000000"></path>
    </g>
</svg>