<?xml version="1.0" encoding="UTF-8"?>
<svg width="80px" height="80px" viewBox="0 0 80 80" version="1.1" xmlns="http://www.w3.org/2000/svg" xmlns:xlink="http://www.w3.org/1999/xlink">
    <title>Artboard</title>
    <g id="Artboard" stroke="none" stroke-width="1" fill="none" fill-rule="evenodd">
        <rect fill="#FFFFFF" x="0" y="0" width="80" height="80"></rect>
        <path d="M79.4,0.6 L79.4,79.4 L0.6,79.4 L0.6,0.6 L79.4,0.6 Z M45.5,33.3771467 C43.0832864,33.3771467 38.6438854,36.7501266 34.8878651,41.3417735 C33.1296888,39.7862282 31.4792851,38.87288 30.3752444,38.87288 C28.4855297,38.87288 24.9163286,42.4244201 21.9911447,47.0401202 C19.2766483,51.3233727 17.1429504,56.356633 17.4250911,59.6 L17.4250911,59.6 L62.5793628,59.6 L62.594892,59.3033727 C62.7354734,55.1983259 59.9563939,49.0206047 56.4707659,43.7345223 C52.6416606,37.9275442 47.9930124,33.3771467 45.5,33.3771467 Z M22.8888889,21.4 C21.3725156,21.4 19.9994873,22.019765 19.005715,23.0225717 C18.0138989,24.0234042 17.4,25.4059289 17.4,26.9333333 C17.4,28.4607378 18.0138989,29.8432624 19.005715,30.844095 C19.9994873,31.8469017 21.3725156,32.4666667 22.8888889,32.4666667 C24.4052622,32.4666667 25.7782904,31.8469017 26.7720628,30.844095 C27.7638788,29.8432624 28.3777778,28.4607378 28.3777778,26.9333333 C28.3777778,25.4059289 27.7638788,24.0234042 26.7720628,23.0225717 C25.7782904,22.019765 24.4052622,21.4 22.8888889,21.4 Z" id="Combined-Shape" stroke="#EEEEEE" stroke-width="1.2" fill="#EEEEEE"></path>
    </g>
</svg>