<svg xmlns="http://www.w3.org/2000/svg" width="80" height="80" viewBox="0 0 80 80">
    <g fill="none" fill-rule="evenodd">
        <circle cx="40" cy="40" r="39" fill="#FFF" stroke="#E5004E" stroke-width="2"/>
        <path fill="#000" d="M47.918 28.517a7.257 7.257 0 0 0-7.257-7.203h-.117a7.255 7.255 0 0 0-7.255 7.203c0 .019-.003.037-.003.056v12.895a3.628 3.628 0 0 0 3.628 3.63h7.377a3.63 3.63 0 0 0 3.63-3.63V28.573c0-.02-.003-.037-.003-.056"/>
        <path stroke="#000" stroke-linecap="round" d="M47.918 28.517a7.257 7.257 0 0 0-7.257-7.203h-.117a7.255 7.255 0 0 0-7.255 7.203c0 .019-.003.037-.003.056v12.895a3.628 3.628 0 0 0 3.628 3.63h7.377a3.63 3.63 0 0 0 3.63-3.63V28.573c0-.02-.003-.037-.003-.056z"/>
        <path stroke="#E5004E" stroke-linecap="round" d="M47.918 28.517l.002.056v12.895a3.63 3.63 0 0 1-3.629 3.63h-7.377a3.628 3.628 0 0 1-3.628-3.63V28.573c0-.02.003-.037.003-.056-2.684 1.594-4.487 4.513-4.487 7.86v18.97c0 1.01.818 1.829 1.83 1.829h19.942a1.83 1.83 0 0 0 1.83-1.83V36.378c0-3.347-1.804-6.266-4.486-7.86z"/>
        <path fill="#E5004E" d="M47.918 28.517a7.257 7.257 0 0 0-7.257-7.203h-.117a7.255 7.255 0 0 0-7.255 7.203c0 .019-.003.037-.003.056v12.895a3.628 3.628 0 0 0 3.628 3.63h7.377a3.63 3.63 0 0 0 3.63-3.63V28.573c0-.02-.003-.037-.003-.056"/>
        <path stroke="#E5004E" stroke-linecap="round" d="M47.918 28.517a7.257 7.257 0 0 0-7.257-7.203h-.117a7.255 7.255 0 0 0-7.255 7.203c0 .019-.003.037-.003.056v12.895a3.628 3.628 0 0 0 3.628 3.63h7.377a3.63 3.63 0 0 0 3.63-3.63V28.573c0-.02-.003-.037-.003-.056z"/>
    </g>
</svg>
