<svg width="192" height="103" viewBox="0 0 192 103" xmlns="http://www.w3.org/2000/svg">
    <defs>
        <linearGradient x1="50%" y1="0%" x2="50%" y2="100%" id="igi2yuu4ga">
            <stop stop-color="#F40086" offset="0%"/>
            <stop stop-color="#E5004E" offset="100%"/>
        </linearGradient>
        <linearGradient x1="50%" y1="0%" x2="50%" y2="100%" id="nlq5ym7tlb">
            <stop stop-color="#F40086" offset="0%"/>
            <stop stop-color="#E5004E" offset="100%"/>
        </linearGradient>
    </defs>
    <g stroke="#FFF" fill="none" fill-rule="evenodd">
        <g stroke-width=".6">
            <path d="m30.15 52.098 27.755 16.554s14.778-.15 19.608-4.818l-2.4-1.596-5.136-3.426-.408-.27c-2.964-2.208-2.718-7.548.546-11.934 3.048-4.086 7.638-5.898 10.644-4.338l.852.57.036.03 2.604 1.746 2.796 1.872s-.99-14.982-1.674-15.468c-.684-.486-29.13-15.738-29.13-15.738s-15.036 1.176-24.432 7.722c0 0-3.522 10.296-1.662 29.094z" fill="#EEF1F3"/>
            <path d="M87.925 32.16s-.936 7.23-20.55 17.886c0 0-5.166 2.226-16.788-3.09l5.136-3.426.408-.27c2.964-2.208 2.718-7.548-.546-11.934-3.048-4.086-7.638-5.898-10.644-4.338a4.145 4.145 0 0 0-.636.396 2.022 2.022 0 0 0-.216.174l-.036.03-2.604 1.746s.348-11.448 1.422-12.03c0 0 11.532-8.796 22.968-12.906 0 0 1.662-.876 5.574 0 3.906.882 10.848 4.398 12.996 6.846 0 0 2.934 2.346 3.516 7.134 0 0 .396 7.428 0 13.782z" fill="url(#igi2yuu4ga)" transform="matrix(-1 0 0 1 125.7 15.282)"/>
            <path d="m69.569 58.541.409.27 5.135 3.426 2.4 1.596 2.856 1.908c-2.441-1.817-2.706-5.772-.887-9.558.383-.81.863-1.608 1.433-2.376a14.87 14.87 0 0 1 1.374-1.59c2.85-2.856 6.474-4.02 9.043-2.856l-4.285-2.874-2.795-1.872-2.605-1.746-.036-.03-.852-.57c-3.005-1.56-7.596.252-10.644 4.338-3.263 4.386-3.51 9.726-.546 11.934z" fill="#EEF1F3"/>
            <path d="M80.369 65.741c2.959 2.209 8.01.444 11.28-3.941 3.264-4.38 3.51-9.727.546-11.935a4.162 4.162 0 0 0-.863-.504c-2.57-1.164-6.193 0-9.043 2.856a14.87 14.87 0 0 0-1.374 1.59c-.57.768-1.05 1.566-1.433 2.376-1.82 3.786-1.554 7.741.887 9.558z" fill="#EEF1F3"/>
            <path d="M26.689 64.302c-13.5-.9-32.72.128-22.235 5.755 2.135 1.145 10.984 3.46 3.635 4.446-28.303 3.792 25.98 20.357 35.873 7.736.642-.819.5-2.027-.331-2.653-1.152-.867-3.55-1.927-8.542-2.684 0 0-9.3-1.5 3-3s24.9-6.9 10.651-11.588c-.777-.255-1.479-.773-1.745-1.547-.9-2.62-7.788-2.9-4.705-11.466 2.699-7.499-3.901-13.499-6.301-9.299-.834 1.46-.088 3.23.614 4.756 1.17 2.544 2.214 7.31 2.48 10.47a2.517 2.517 0 0 1-2.501 2.726c-3.255.014-9.593.196-9.593 2.448 0 1.2 3.6 4.2-.3 3.9z" fill="url(#nlq5ym7tlb)" transform="matrix(-1 0 0 1 125.7 15.282)"/>
        </g>
        <g stroke-width=".5">
            <path d="M120.795 34.8c.646-1.684 5.602-1.343 11.074.757 5.467 2.099 9.382 5.164 8.736 6.847-.645 1.679-5.605 1.336-11.072-.762-5.472-2.1-9.382-5.164-8.738-6.842z" fill="#EEF1F3"/>
            <path d="m111.101 60.054 9.694-25.254c-.644 1.679 3.266 4.741 8.738 6.842 5.467 2.098 10.427 2.44 11.072.762l-9.695 25.254c-.644 1.679-5.604 1.337-11.071-.762-5.472-2.1-9.382-5.163-8.738-6.842z" fill="#EEF1F3"/>
            <path d="m128.05 41.03 8.518-22.19.037.013c-.096.25.48.7 1.288 1.01.803.308 1.538.361 1.634.112l-8.519 22.191-2.958-1.135z" fill="#E3E7EA"/>
            <path d="m137.357 19.396 4.595-11.97a.97.97 0 0 1 .587-.57.97.97 0 0 1 .815.079l1.602.938a.972.972 0 0 1 .34 1.35l-6.544 10.71-1.395-.537z" fill="#EA0061"/>
        </g>
    </g>
</svg>
