<svg width="10" height="10" viewBox="0 0 10 10" xmlns="http://www.w3.org/2000/svg">
    <g fill="#E5004E" fill-rule="nonzero">
        <path d="m4.411 7.504-.566.571a1.328 1.328 0 0 1-.445.301 1.363 1.363 0 0 1-1.468-.288 1.382 1.382 0 0 1-.3-.446 1.368 1.368 0 0 1-.078-.77c.048-.256.168-.498.367-.698L3.347 4.73a1.357 1.357 0 0 1 1.214-.379c.258.05.5.17.7.369.112.109.198.231.262.361l.015.004a.792.792 0 0 0 .71-.217l.578-.578a2.858 2.858 0 0 0-1.45-1.279 2.865 2.865 0 0 0-3.111.65L.84 5.102a2.85 2.85 0 0 0-.627.956 2.892 2.892 0 0 0-.149 1.63c.108.543.377 1.064.8 1.48a2.88 2.88 0 0 0 4.066-.023l1.426-1.443c.008-.007.014-.015.021-.023-.01.002-.02.005-.031.006a3.44 3.44 0 0 1-1.934-.182z"/>
        <path d="M9.947 2.327a2.863 2.863 0 0 0-.79-1.485 2.881 2.881 0 0 0-4.066 0L3.656 2.277c-.01.011-.02.023-.032.034l.012-.001a3.428 3.428 0 0 1 1.95.177c.003 0 .006.003.01.004l.572-.572a1.341 1.341 0 0 1 1.216-.372c.256.05.497.171.698.372.133.133.23.284.297.446.099.244.124.513.074.77-.05.256-.172.497-.371.697L6.646 5.267a1.344 1.344 0 0 1-1.216.372 1.34 1.34 0 0 1-.697-.372 1.346 1.346 0 0 1-.256-.357l-.02-.004a.794.794 0 0 0-.708.22l-.573.58a2.875 2.875 0 0 0 4.547.637l1.435-1.435a2.875 2.875 0 0 0 .79-2.581z"/>
    </g>
</svg>
