<?xml version="1.0" encoding="UTF-8"?>
<svg width="122px" height="40px" viewBox="0 0 122 40" version="1.1" xmlns="http://www.w3.org/2000/svg" xmlns:xlink="http://www.w3.org/1999/xlink">
    <!-- Generator: Sketch 59.1 (86144) - https://sketch.com -->
    <title>AppDownload/IOS</title>
    <desc>Created with Sketch.</desc>
    <defs>
        <polygon id="path-1" points="0 0 122 0 122 40 0 40"></polygon>
        <polygon id="path-3" points="0 0 122 0 122 40 0 40"></polygon>
    </defs>
    <g id="AppDownload/IOS" stroke="none" stroke-width="1" fill="none" fill-rule="evenodd">
        <g id="Group-3">
            <mask id="mask-2" fill="white">
                <use xlink:href="#path-1"></use>
            </mask>
            <g id="Clip-2"></g>
            <path d="M117.481481,40 L4.51851852,40 C2.03333333,40 0,37.75 0,35 L0,5 C0,2.25 2.03333333,0 4.51851852,0 L117.481481,0 C119.966667,0 122,2.25 122,5 L122,35 C122,37.75 119.966667,40 117.481481,40" id="Fill-1" fill="#000000" mask="url(#mask-2)"></path>
        </g>
        <g id="Group-6">
            <mask id="mask-4" fill="white">
                <use xlink:href="#path-3"></use>
            </mask>
            <g id="Clip-5"></g>
            <path d="M117.481481,0 L4.51851852,0 C2.03333333,0 0,2.25 0,5 L0,35 C0,37.75 2.03333333,40 4.51851852,40 L117.481481,40 C119.966667,40 122,37.75 122,35 L122,5 C122,2.25 119.966667,0 117.481481,0 M117.481481,0.8 C119.574459,0.8 121.277037,2.684 121.277037,5 L121.277037,35 C121.277037,37.316 119.574459,39.2 117.481481,39.2 L4.51851852,39.2 C2.42554074,39.2 0.722962963,37.316 0.722962963,35 L0.722962963,5 C0.722962963,2.684 2.42554074,0.8 4.51851852,0.8 L117.481481,0.8" id="Fill-4" fill="#A6A6A6" mask="url(#mask-4)"></path>
        </g>
        <g id="Download_on_the_App_Store_Badge_JP_RGB_blk_100317" transform="translate(9.000000, 8.000000)" fill="#FFFFFF" fill-rule="nonzero">
            <g id="Group" transform="translate(25.000000, 0.000000)">
                <path d="M7.16742,8.55462 L3.11585,8.55462 L2.14285,11.42762 L0.42678,11.42762 L4.26437,0.79837 L6.04737,0.79837 L9.88496,11.42762 L8.13957,11.42762 L7.16742,8.55462 Z M3.53542,7.22889 L6.747,7.22889 L5.16382,2.56628 L5.11952,2.56628 L3.53542,7.22889 Z" id="Shape"></path>
                <path d="M18.1728,7.55322 C18.1728,9.96143 16.88385,11.50867 14.93873,11.50867 C13.9333155,11.5612649 12.9862685,11.0346581 12.50043,10.15285 L12.46365,10.15285 L12.46365,13.99127 L10.87294,13.99127 L10.87294,3.678 L12.41266,3.678 L12.41266,4.967 L12.44192,4.967 C12.9493462,4.09072523 13.8974163,3.56435262 14.90948,3.597 C16.87633,3.59694 18.1728,5.1517 18.1728,7.55322 Z M16.5378,7.55322 C16.5378,5.98422 15.72698,4.95276 14.48986,4.95276 C13.27447,4.95276 12.45697,6.00599 12.45697,7.55322 C12.45697,9.11467 13.27447,10.16037 14.48986,10.16037 C15.727,10.16037 16.5378,9.1364 16.5378,7.55322 L16.5378,7.55322 Z" id="Shape"></path>
                <path d="M26.70267,7.55322 C26.70267,9.96143 25.4133,11.50867 23.46818,11.50867 C22.4627655,11.5612649 21.5157185,11.0346581 21.02988,10.15285 L20.9931,10.15285 L20.9931,13.99127 L19.4024,13.99127 L19.4024,3.678 L20.94212,3.678 L20.94212,4.967 L20.97138,4.967 C21.4788062,4.09072523 22.4268763,3.56435262 23.43894,3.597 C25.40578,3.59694 26.70267,5.1517 26.70267,7.55322 Z M25.06725,7.55322 C25.06725,5.98422 24.25642,4.95276 23.0193,4.95276 C21.80391,4.95276 20.98641,6.00599 20.98641,7.55322 C20.98641,9.11467 21.80391,10.16037 23.0193,10.16037 C24.25643,10.16037 25.06725,9.1364 25.06725,7.55322 L25.06725,7.55322 Z" id="Shape"></path>
                <path d="M32.3391,8.466 C32.45696,9.52006 33.48093,10.21218 34.88022,10.21218 C36.22099,10.21218 37.18561,9.52006 37.18561,8.56965 C37.18561,7.74465 36.60383,7.25065 35.22628,6.91207 L33.84873,6.58022 C31.89692,6.10878 30.99081,5.19598 30.99081,3.71478 C30.99081,1.88078 32.58904,0.62114 34.85765,0.62114 C37.10453,0.62114 38.64425,1.88083 38.69607,3.71478 L37.09032,3.71478 C36.99419,2.65403 36.11732,2.01378 34.83592,2.01378 C33.55452,2.01378 32.67764,2.6616 32.67764,3.60449 C32.67764,4.35596 33.23764,4.79815 34.60772,5.13668 L35.77881,5.42423 C37.95966,5.93998 38.86493,6.81599 38.86493,8.37075 C38.86493,10.35934 37.28175,11.60482 34.76236,11.60482 C32.40514,11.60482 30.8136,10.38859 30.71078,8.46604 L32.3391,8.466 Z" id="Path"></path>
                <path d="M42.29961,1.844 L42.29961,3.67807 L43.77329,3.67807 L43.77329,4.93776 L42.29961,4.93776 L42.29961,9.21 C42.29961,9.8737 42.59468,10.183 43.2425,10.183 C43.4174491,10.1799579 43.5921155,10.1676808 43.76577,10.14622 L43.76577,11.39839 C43.4745135,11.4528108 43.1784759,11.4774577 42.88223,11.47195 C41.31323,11.47195 40.70138,10.88265 40.70138,9.37971 L40.70138,4.93771 L39.5746,4.93771 L39.5746,3.678 L40.70138,3.678 L40.70138,1.844 L42.29961,1.844 Z" id="Path"></path>
                <path d="M44.6259,7.55322 C44.6259,5.11492 46.06197,3.58273 48.30132,3.58273 C50.5482,3.58273 51.97758,5.11492 51.97758,7.55322 C51.97758,9.99822 50.55573,11.52371 48.30132,11.52371 C46.04776,11.52371 44.6259,9.99821 44.6259,7.55322 Z M50.35679,7.55322 C50.35679,5.8806 49.59028,4.89341 48.30133,4.89341 C47.01238,4.89341 46.24587,5.88812 46.24587,7.55322 C46.24587,9.23253 47.01238,10.21222 48.30133,10.21222 C49.59028,10.21222 50.35679,9.23253 50.35679,7.55322 Z" id="Shape"></path>
                <path d="M53.2891,3.678 L54.80625,3.678 L54.80625,4.997 L54.843,4.997 C55.0545688,4.14789759 55.8325729,3.56350966 56.707,3.59688 C56.8903135,3.59623955 57.0731212,3.61614715 57.252,3.65623 L57.252,5.14412 C57.020587,5.07340523 56.7791835,5.04093505 56.53731,5.04799 C56.069648,5.02901596 55.6170548,5.2153967 55.2983719,5.55819258 C54.979689,5.90098846 54.8267561,6.36595069 54.87973,6.83099 L54.87973,11.42757 L53.2891,11.42757 L53.2891,3.678 Z" id="Path"></path>
                <path d="M64.5862,9.15145 C64.2246219,10.6660623 62.7986389,11.6798256 61.24931,11.52372 C58.99491,11.52372 57.59562,10.01326 57.59562,7.59 C57.59562,5.15922 59.00243,3.58273 61.18244,3.58273 C63.32651,3.58273 64.6748,5.05557 64.6748,7.40527 L64.6748,7.95027 L59.20138,7.95027 L59.20138,8.0464 C59.1502848,8.62333932 59.3495055,9.19442667 59.7483684,9.61440057 C60.1472313,10.0343745 60.7072943,10.2627581 61.2861,10.24146 C62.058035,10.3137889 62.78582,9.87052591 63.07575,9.15146 L64.5862,9.15145 Z M59.2088936,6.83853 L63.08327,6.83853 C63.1121388,6.32010931 62.9234278,5.81314778 62.5626027,5.43978652 C62.2017775,5.06642526 61.7015541,4.86051673 61.18245,4.87167 C60.6592438,4.86855601 60.156469,5.07456278 59.7858722,5.44390333 C59.4152754,5.81324388 59.2075626,6.31531623 59.2088936,6.83853 L59.2088936,6.83853 Z" id="Shape"></path>
            </g>
            <g id="Group" transform="translate(25.000000, 15.000000)">
                <path d="M2.43654,7.81152 L2.50246,6.99218 C2.80966097,7.0913195 3.13034021,7.14237897 3.45314,7.14355 C3.74514,7.14355 3.85793,7.11523 3.99953,6.91699 C4.3438004,6.19631286 4.49297281,5.39792564 4.43215,4.60156 C4.43215,3.7539 4.16897,3.50879 3.50051,3.50879 C3.34963,3.50879 3.1802,3.51856 2.99172,3.52832 C2.63198779,4.99039951 2.03416087,6.38333457 1.22219,7.65132 L0.44045,7.22749 C1.20309732,6.13160752 1.76123513,4.90681509 2.08791,3.61226 C1.57209618,3.6680516 1.05987492,3.75314914 0.55373,3.86714 L0.3843,3.03804 C0.95852,2.93452 1.64553,2.84077 2.28567,2.78413 C2.41725959,2.1590334 2.51473703,1.52723941 2.57767,0.89155 L3.50052,0.99507 C3.41552,1.56929 3.31204,2.14448 3.18021,2.70894 L3.5474,2.70894 C4.7432,2.70894 5.3174,3.30171 5.3174,4.56343 C5.36927682,5.52618876 5.1817182,6.48679538 4.7715,7.35933 C4.55057312,7.76937987 4.10521887,8.00687744 3.64162,7.96187 C3.23542192,7.95916357 2.83095118,7.90870038 2.43654,7.81152 L2.43654,7.81152 Z M5.46779,2.7373 L6.15529,2.27539 C7.10850615,3.19484593 7.68284097,4.43793587 7.76515,5.75977 L6.86134,5.9004 C6.84791729,4.70004643 6.34447681,3.55732994 5.46779,2.7373 Z" id="Shape"></path>
                <path d="M10.88674,7.94336 L10.69874,7.0957 C10.93409,7.11523 11.24464,7.12402 11.43312,7.12402 C13.29689,7.12402 14.00294,6.59765 14.00294,5.81543 C14.00294,5.19434 13.59815,4.83691 12.69435,4.83691 C11.7089522,4.92726085 10.7910163,5.37623841 10.11476,6.09863 L9.38966,5.77832 C9.25233506,4.54505541 9.53426093,3.30147328 10.19,2.248 L11.02789,2.52046 C10.5058077,3.22546535 10.2521812,4.09351038 10.31256,4.9687 C11.0675836,4.43623189 11.9598169,4.13214545 12.88287,4.0927 C14.14459,4.0927 14.92587,4.74211 14.92587,5.7968 C14.92587,7.13371 13.87118,7.95305049 11.33896,7.95305049 C11.21633,7.95313 11.03762,7.94336 10.88674,7.94336 Z M10.01125,1.69236 L10.2466,0.86326 C11.4990838,1.05487178 12.7358084,1.33818674 13.9468,1.71092 L13.72073,2.53026 C12.5119172,2.14010074 11.2704027,1.85967325 10.01125,1.69238 L10.01125,1.69236 Z" id="Shape"></path>
                <path d="M17.65236,7.29395 C18.6232168,6.97438064 19.4953366,6.41000986 20.18459,5.65528 C19.6385984,5.20271264 19.0489459,4.80557445 18.42434,4.46973 L18.94192,3.82032 C19.5716769,4.14061082 20.1704228,4.51852743 20.73049,4.94923 C21.180292,4.29321987 21.4940854,3.5537304 21.65334,2.77443 L19.25246,2.77443 C18.7007916,3.66807068 18.007691,4.46621457 17.20021,5.13771 L16.51271,4.54494 C17.6748934,3.5862399 18.5754332,2.34890235 19.13039,0.94826 L20.0342,1.16506 C19.93068,1.42873 19.8272,1.70119 19.70461,1.95606 L22.03961,1.95606 L22.70807,2.26661 C22.3776714,4.86992463 20.6460335,7.08227979 18.1983,8.02833 L17.65236,7.29395 Z M21.625,0.72266 L22.15234,0.46778 C22.4200094,0.826164444 22.6443856,1.21492736 22.8208,1.62598 L22.22754,1.89942 C22.0782413,1.48284091 21.8757164,1.08730986 21.625,0.72266 Z M22.80176,0.62793 L23.33838,0.37402 C23.6096653,0.743576175 23.8401731,1.14139749 24.02588,1.56054 L23.43262,1.81445 C23.2748715,1.39317551 23.0627994,0.99429821 22.80178,0.62793 L22.80176,0.62793 Z" id="Shape"></path>
                <path d="M26.92141,7.99023 L26.44141,7.22753 C28.4520862,6.90668857 29.8880011,5.10795171 29.75541,3.07616 L25.80131,3.07616 L25.80131,4.96874 L24.85014,4.96874 L24.85014,2.27539 L27.2134,2.27539 L27.2134,0.8916 L28.16408,0.8916 L28.16408,2.27539 L29.92482,2.27539 L30.79103,2.52051 C30.67775,5.19434 29.78371,7.2373 26.92141,7.99023 Z" id="Path"></path>
                <path d="M32.62258,2.3418 L33.14992,1.56934 C33.9735056,1.94580149 34.7505317,2.41673617 35.46535,2.97266 L34.86281,3.78223 C34.1768538,3.21354761 33.4246514,2.72989419 32.62258,2.3418 L32.62258,2.3418 Z M32.80129,6.9834 C35.1384799,6.63170575 37.1618879,5.17279843 38.23391,3.0664 L38.855,3.76367 C37.6923047,5.9362014 35.5893872,7.44812601 33.15969,7.8584 L32.80129,6.9834 Z" id="Shape"></path>
                <path d="M46.57083,7.43555 L40.64895,7.43555 L40.64895,1.833 L46.57083,1.833 L46.57083,7.43555 Z M41.58156,2.69922 L41.58156,6.56934 L45.62941,6.56934 L45.62941,2.69922 L41.58156,2.69922 Z" id="Shape"></path>
                <polygon id="Path" points="55.04934 4.9209 48.39309 4.9209 48.39309 3.9609 55.04934 3.9609"></polygon>
                <path d="M57.314,0.91992 L58.24564,0.91992 L58.24564,3.33008 C59.4846956,3.84578025 60.6864751,4.4468337 61.84232,5.12891 L61.315,5.957 C60.3355477,5.33011982 59.3094201,4.77934859 58.24566,4.30954 L58.24566,7.94333 L57.314,7.94333 L57.314,0.91992 Z M59.5259,1.42871 L60.08157,1.16504 C60.3537217,1.56424658 60.5782313,1.9939243 60.75052,2.44531 L60.13822,2.71875 C59.9908695,2.26402274 59.7850386,1.83037679 59.5259,1.42871 L59.5259,1.42871 Z M60.59914,1.02344 L61.16458,0.75977 C61.4503616,1.15669098 61.6874109,1.58651552 61.87063,2.04 L61.25833,2.31344 C61.0903845,1.85888604 60.8691084,1.42586026 60.59914,1.02344 L60.59914,1.02344 Z" id="Shape"></path>
            </g>
            <g id="_Group_">
                <g id="_Group_2">
                    <path d="M15.76888,12.30068 C15.790737,10.6042091 16.6801229,9.03718611 18.12544,8.14862 C17.2095126,6.84051277 15.730392,6.04087835 14.13428,5.99094 C12.45504,5.81468 10.82709,6.99577 9.97138,6.99577 C9.09911,6.99577 7.78161,6.00844 6.36288,6.03763 C4.49620126,6.09793842 2.79813717,7.13352548 1.88996,8.7655 C-0.04404,12.11392 1.39855,17.03497 3.25116,19.74158 C4.17806,21.06693 5.26134,22.54738 6.67879,22.49488 C8.06585,22.43735 8.58389,21.6104 10.25819,21.6104 C11.91695,21.6104 12.40298,22.49488 13.84919,22.4615 C15.33757,22.43734 16.27532,21.13026 17.1697,19.79236 C17.8356761,18.8479997 18.3481437,17.8042759 18.68812,16.69985 C16.9203766,15.9521813 15.7709432,14.2200343 15.76888,12.30068 L15.76888,12.30068 Z" id="_Path_"></path>
                    <path d="M13.03725,4.21089 C13.8487766,3.23668191 14.248585,1.98450245 14.15177,0.72027 C12.9119378,0.850490487 11.7666802,1.44304968 10.94419,2.37988 C10.1320187,3.30418903 9.72057463,4.51343268 9.80048,5.74127 C11.0569368,5.75420677 12.2499161,5.19015322 13.03725,4.21089 L13.03725,4.21089 Z" id="_Path_2"></path>
                </g>
            </g>
        </g>
    </g>
</svg>