<svg xmlns="http://www.w3.org/2000/svg" width="84" height="40" viewBox="0 0 84 40">
    <path fill="#111" fill-rule="evenodd" d="M32.52 29.169v1.537h2.553v.467a10.026 10.026 0 0 1-2.361 2.077c.948.238 2.005.613 2.67.952.095.044.27.13.383.19l.07.039-.808 1.08c-.323-.419-1.448-1.268-2.323-1.766l-.184-.101v3.276h-1.166v-2.883c-.975.485-1.76.778-2.744 1.007-.143.03-.237.053-.335.074l-.1.022-.139-.325c1.429-.176 4.104-1.985 5.313-3.555l.138-.188h-4.74v-.366h2.589V29.17h1.184zm18.605.265v3.46c0 2.296-.957 3.349-3.573 3.935-.134.028-.362.07-.425.08l-.016.004-.133-.332a3.546 3.546 0 0 0 2.25-1.235c.469-.555.651-1.135.673-2.221l.003-.24v-3.45h1.22zm-8.396-.055l1.029.917-.024.023c-.045.046-.158.16-.322.332-.507.51-1.062.973-1.607 1.337l-.27.173v4.695H40.35v-4.082c-.976.485-1.76.778-2.744 1.007-.143.03-.237.053-.335.075l-.1.02-.139-.324c.91-.112 2.327-.889 3.548-1.843.886-.691 1.864-1.794 2.149-2.33zm4.248.129v4.594H45.83v-4.594h1.148zm12.39 3.12v.586h-6.326v-.586h6.326zm9.974-22.338c3.24 0 4.92 2.139 4.92 5.392v1.054h-8.58c.24 3.313 2.28 5.15 5.01 5.15 1.26 0 2.64-.451 3.57-1.023l.21.572c-1.02 1.054-2.7 1.928-5.1 1.928-3.9 0-6.66-2.56-6.66-6.476 0-4.368 3.33-6.597 6.63-6.597zM52.049 2.76v17.62c0 1.808.33 2.169 1.68 2.169h.12l-.24.633c-.42.12-.81.18-1.62.18-1.77 0-2.79-.873-2.79-3.072V2.76h2.85zM33.27 10.29c3.48 0 5.13 1.446 5.13 5.392v6.566c-1.14.512-3.27 1.115-5.43 1.115-2.4 0-5.37-.603-5.37-3.404 0-2.108 1.77-3.072 7.11-4.217l.84-.18v-.453c0-2.62-.72-4.065-2.55-4.065-1.92 0-2.37 1.596-2.37 4.096-1.35 0-2.4-.693-2.4-1.808 0-1.837 2.04-3.042 5.04-3.042zM12.23 2.76l10.5 14.76V2.76h1.2v20.452h-.99L10.82 6.284v16.778h-1.2V4.597L8.3 2.76h3.93zm47.094 7.802v12.5h-2.85v-12.5h2.85zm-14.174 0v12.5H42.3v-12.5h2.85zm-9.6 5.873l-.72.15c-2.94.603-4.17 1.567-4.17 3.254 0 1.777 1.08 2.59 2.64 2.59.69 0 1.65-.12 2.25-.362v-5.632zm33.281-5.271c-1.92 0-3.12 1.897-3.18 4.608h5.7v-.12c0-2.59-.66-4.488-2.52-4.488zM57.899 4.323c.93 0 1.684.756 1.684 1.69 0 .934-.754 1.69-1.684 1.69-.93 0-1.684-.756-1.684-1.69 0-.934.754-1.69 1.684-1.69zm-14.174 0c.93 0 1.683.756 1.683 1.69 0 .934-.754 1.69-1.683 1.69-.93 0-1.685-.756-1.685-1.69 0-.934.754-1.69 1.685-1.69z"/>
</svg>
