<svg xmlns="http://www.w3.org/2000/svg" width="192" height="100" viewBox="0 0 192 100">
    <path fill="#FFF" fill-rule="evenodd" d="M70.035 76.86v4.42h7.38v1.342c-1.872 2.262-4.138 4.262-6.826 5.972 2.74.685 5.797 1.763 7.722 2.736.3.138.874.42 1.191.593l.119.066-2.339 3.104c-.966-1.245-4.414-3.814-6.976-5.22l-.27-.147v9.418h-3.374v-8.287c-2.82 1.395-5.087 2.237-7.933 2.894-.475.1-.762.171-1.091.241l-.17.035-.4-.933c4.214-.516 12.179-5.917 15.567-10.493l.194-.268H59.124V81.28h7.485v-4.42h3.426zm53.795.763v9.945c0 6.604-2.766 9.63-10.33 11.314-.42.09-1.16.221-1.263.24l-.012.002-.386-.953c2.45-.289 4.876-1.605 6.51-3.551 1.4-1.652 1.915-3.377 1.949-6.714l.001-.364v-9.919h3.531zm-24.277-.157l2.975 2.634s-.366.365-.999 1.022c-1.57 1.569-3.295 2.981-4.973 4.057l-.456.284v13.498h-3.426V87.226c-2.82 1.395-5.087 2.237-7.933 2.894-.474.1-.762.172-1.091.241l-.169.035-.4-.933c2.633-.324 6.728-2.555 10.26-5.3 2.56-1.986 5.389-5.157 6.212-6.697zm12.285.368v13.208h-3.32V77.834h3.32zm35.826 8.971v1.684h-18.291v-1.684h18.29zm28.84-64.22c9.368 0 14.227 6.148 14.227 15.5v3.031h-24.81c.694 9.526 6.594 14.808 14.487 14.808 3.643 0 7.633-1.299 10.323-2.944l.608 1.645c-2.95 3.03-7.808 5.543-14.748 5.543-11.277 0-19.257-7.361-19.257-18.619 0-12.556 9.63-18.965 19.17-18.965zm-50-21.65v50.66c0 5.196.954 6.233 4.859 6.233h.346l-.694 1.819c-1.214.347-2.342.521-4.684.521-5.118 0-8.067-2.513-8.067-8.834V.936h8.24zm-54.301 21.65c10.062 0 14.833 4.157 14.833 15.5v18.878c-3.296 1.472-9.455 3.205-15.7 3.205-6.94 0-15.528-1.733-15.528-9.786 0-6.062 5.118-8.833 20.559-12.124l2.428-.519v-1.3c0-7.532-2.082-11.689-7.373-11.689-5.551 0-6.853 4.589-6.853 11.776-3.903 0-6.94-1.991-6.94-5.196 0-5.282 5.9-8.746 14.574-8.746zM11.363.934l30.361 42.433V.936h3.47v58.799h-2.862L7.287 11.068v48.234h-3.47V6.218L0 .936h11.363zm136.177 22.43v35.937h-8.242V23.365h8.242zm-40.987 0v35.937H98.31V23.365h8.242zM78.795 40.25l-2.082.433c-8.5 1.732-12.057 4.503-12.057 9.353 0 5.11 3.123 7.447 7.634 7.447 1.995 0 4.77-.346 6.505-1.04V40.25zm96.234-15.154c-5.551 0-9.021 5.455-9.195 13.249h16.482v-.346c0-7.448-1.908-12.903-7.287-12.903zM143.42 5.428a4.864 4.864 0 0 1 4.868 4.86c0 2.684-2.18 4.86-4.868 4.86a4.864 4.864 0 0 1-4.869-4.86c0-2.684 2.18-4.86 4.87-4.86zm-40.987 0a4.864 4.864 0 0 1 4.869 4.86c0 2.684-2.18 4.86-4.869 4.86a4.865 4.865 0 0 1-4.87-4.86c0-2.684 2.18-4.86 4.87-4.86z"/>
</svg>
