<svg xmlns="http://www.w3.org/2000/svg" xmlns:xlink="http://www.w3.org/1999/xlink" width="311" height="273" viewBox="0 0 311 273">
    <defs>
        <path id="98jcz86q2a" d="M75.143.475c5.978 0 10.869 4.933 10.869 10.962v35.251c0 6.03-4.891 10.963-10.869 10.963H36.275c-.16-.006-2.511-.071-3.616 1.105-1.01 1.075-1.38 2.716-1.508 3.537-.04.268-.061.536-.061.806 0 4.718-3.826 8.577-8.503 8.577H8.978c-4.676 0-8.503-3.86-8.503-8.577V11.437C.475 5.408 5.365.475 11.344.475h63.8z"/>
        <path id="351gmjibac" d="M14.69 0c2.997 0 5.449 3.006 5.449 6.68v23.787c0 3.675-2.452 6.68-5.448 6.68H5.448C2.452 37.148 0 34.143 0 30.468V6.68C0 3.006 2.452 0 5.448 0h9.243z"/>
        <path id="81qgdplite" d="M51.177 0c3.127 0 5.686 2.435 5.686 5.41v21.856c0 2.976-2.559 5.41-5.686 5.41H5.687C2.558 32.677 0 30.243 0 27.267V5.411C0 2.435 2.559 0 5.686 0h45.49z"/>
        <path id="l3mz5m5rsg" d="M192.182 0c4.42 0 8.035 3.582 8.035 7.96V163.98c0 6.625-5.472 12.047-12.159 12.047h-8.044-.08c-.36-.003-1.856-.064-2.696-.896-.883-.875-.903-2.658-.9-2.937v-4.852c0-5.55-4.583-10.09-10.184-10.09h-11.122c-8.573 0-7.544 7.644-7.544 11.365v3.742c0 2.025-1.657 3.668-3.701 3.668H71.622c-3.612 0-6.54-2.902-6.54-6.48v-22.83c0-6.707-5.54-12.194-12.309-12.194H6.54c-3.612 0-6.54-2.901-6.54-6.48v-30.39c0-6.625 5.471-12.046 12.159-12.046h59.824c.186.005 1.635-.016 3.212-1.578 1.463-1.45 1.586-2.782 1.593-3.111V76.527c0-5.422 4.477-9.858 9.95-9.858h2.574c5.472 0 9.95 4.436 9.95 9.858v3.526s-.131 2.85 1.388 4.355c1.405 1.392 5.086 1.198 5.086 1.198h18.46c.13.01 2.095.132 3.531-1.29 1.485-1.472 1.302-3.178 1.302-3.178V28.017c0-5.97 4.93-10.854 10.955-10.854h24.899c.436-.005 1.81-.09 2.617-.889.969-.96.878-2.279.878-2.279V7.96c0-4.378 3.616-7.96 8.035-7.96h15.77z"/>
        <path id="wq1mc728ji" d="M11.52 0c2.533 0 4.607 2.07 4.607 4.598v6.035c0 2.53-2.074 4.598-4.608 4.598H4.608C2.074 15.231 0 13.162 0 10.633V4.598C0 2.07 2.074 0 4.608 0h6.911z"/>
        <path id="ucus70jogk" d="M43.438 0c7.647 0 13.903 6 13.903 13.333v51.275c0 9.422-2.677 13.333-12.528 13.333h-1.226c-2.511 0-4.148.89-4.148 5.962v6.11c0 3.944-3.363 7.17-7.474 7.17H7.949c-4.111 0-7.475-3.226-7.475-7.17l.065-76.68C.539 6 6.795 0 14.44 0h28.997z"/>
    </defs>
    <g fill="none" fill-rule="evenodd">
        <g>
            <g>
                <g transform="translate(-33 -663) translate(33 663) translate(223.988 .34)">
                    <mask id="mwnu7x6ahb" fill="#fff">
                        <use xlink:href="#98jcz86q2a"/>
                    </mask>
                    <path fill="#E6E6E6" d="M-4.752 -4.747L90.288 -4.747 90.288 76.423 -4.752 76.423z" mask="url(#mwnu7x6ahb)"/>
                </g>
                <g transform="translate(-33 -663) translate(33 663) translate(0 234.184)">
                    <mask id="h2rkkxq5yd" fill="#fff">
                        <use xlink:href="#351gmjibac"/>
                    </mask>
                    <path fill="#E6E6E6" d="M-5.152 -4.824L25.29 -4.824 25.29 42.454 -5.152 42.454z" mask="url(#h2rkkxq5yd)"/>
                </g>
                <g transform="translate(-33 -663) translate(33 663) translate(94.971 210.89)">
                    <mask id="gbmg6qa36f" fill="#fff">
                        <use xlink:href="#81qgdplite"/>
                    </mask>
                    <path fill="#E6E6E6" d="M-4.778 -4.736L62.597 -4.736 62.597 37.886 -4.778 37.886z" mask="url(#gbmg6qa36f)"/>
                </g>
                <g transform="translate(-33 -663) translate(33 663) translate(94.075 66.64)">
                    <mask id="pn8jl64cxh" fill="#fff">
                        <use xlink:href="#l3mz5m5rsg"/>
                    </mask>
                    <path fill="#E6E6E6" d="M-4.767 -4.77L205.461 -4.77 205.461 181.273 -4.767 181.273z" mask="url(#pn8jl64cxh)"/>
                </g>
                <g transform="translate(-33 -663) translate(33 663) translate(200.694 131.15)">
                    <mask id="k6epdisilj" fill="#fff">
                        <use xlink:href="#wq1mc728ji"/>
                    </mask>
                    <path fill="#E6E6E6" d="M-4.887 -5.236L21.014 -5.236 21.014 19.991 -4.887 19.991z" mask="url(#k6epdisilj)"/>
                </g>
                <g transform="translate(-33 -663) translate(33 663) translate(27.775 161.612)">
                    <mask id="gwyfydsx8l" fill="#fff">
                        <use xlink:href="#ucus70jogk"/>
                    </mask>
                    <path fill="#E6E6E6" d="M-4.739 -4.764L62.08 -4.764 62.08 102.423 -4.739 102.423z" mask="url(#gwyfydsx8l)"/>
                </g>
            </g>
        </g>
    </g>
</svg>
