<svg xmlns="http://www.w3.org/2000/svg" width="40" height="40" viewBox="0 0 40 40">
    <g fill="none" fill-rule="evenodd">
        <path fill="#E5004E" d="M20 1C11.715 1 5 7.674 5 15.908c0 5.08 2.587 9.527 6.463 12.259 3.537 2.493 4.318 3.088 5.561 5.448.984 1.866 2.58 5.141 2.58 5.141a.443.443 0 0 0 .792 0s1.596-3.275 2.58-5.141c1.243-2.36 2.024-2.955 5.56-5.448C32.413 25.435 35 20.989 35 15.908 35 7.674 28.284 1 20 1"/>
        <path fill="#FFF" d="M20.104 9a3.254 3.254 0 0 1 3.246 3.043 4.003 4.003 0 0 1 1.804 3.123l.007.226v7.629c0 .551-.418 1.006-.954 1.064l-.117.006h-8.019a1.07 1.07 0 0 1-1.065-.954L15 23.021v-7.629c0-1.356.68-2.592 1.78-3.33l.03-.02a3.253 3.253 0 0 1 3.063-3.037L20.057 9h.047zm3.254 3.889v4.55c0 .942-.725 1.714-1.647 1.79l-.147.005h-2.967a1.794 1.794 0 0 1-1.788-1.647l-.006-.147v-4.552c-.658.58-1.07 1.4-1.126 2.296l-.007.208v7.629a.4.4 0 0 0 .32.392l.081.008h8.02a.4.4 0 0 0 .391-.32l.009-.08v-7.629a3.33 3.33 0 0 0-1.133-2.503zM20.104 9.67h-.047a2.582 2.582 0 0 0-2.583 2.58v5.19c0 .58.437 1.056 1 1.117l.123.007h2.967c.58 0 1.056-.439 1.117-1.002l.007-.122v-5.173-.017l-.001-.019-.007-.166a2.583 2.583 0 0 0-2.576-2.395zm-.013 1.096c.731 0 1.324.907 1.33 2.03v3.649c0 .565-.298 1.023-.665 1.023h-1.351c-.367 0-.665-.458-.665-1.023v-3.65c.006-1.122.599-2.029 1.33-2.029h.021z"/>
    </g>
</svg>
