<svg xmlns="http://www.w3.org/2000/svg" width="80" height="80" viewBox="0 0 80 80">
    <g fill="none" fill-rule="evenodd">
        <circle cx="40" cy="40" r="39" fill="#FFF" stroke="#E5004E" stroke-width="2"/>
        <path fill="#E5004E" d="M48 18a4 4 0 0 1 4 4v35.394a4 4 0 0 1-4 4H32a4 4 0 0 1-4-4V22a4 4 0 0 1 4-4h16zm-8 39.03a1.333 1.333 0 1 0 0 2.667 1.333 1.333 0 0 0 0-2.667zm5.576-35.151H34.424a4 4 0 0 0-3.995 3.8l-.005.2v25.697a4 4 0 0 0 3.8 3.995l.2.005h11.152a4 4 0 0 0 3.995-3.8l.005-.2V25.879a4 4 0 0 0-4-4zm.145 10.808a1.83 1.83 0 0 1 .24 2.718l-6.056 6.483c-.358.386-.878.62-1.433.627a2.03 2.03 0 0 1-1.448-.582l-2.92-2.932a1.83 1.83 0 0 1 .095-2.72c.386-.331.88-.493 1.37-.478.494.015.978.209 1.348.573l1.48 1.486 4.621-4.948a1.99 1.99 0 0 1 1.311-.635c.488-.039.99.097 1.392.408z"/>
    </g>
</svg>
