<svg xmlns="http://www.w3.org/2000/svg" xmlns:xlink="http://www.w3.org/1999/xlink" width="24" height="24" viewBox="0 0 24 24">
    <defs>
        <path id="e5o6mxp9ga" d="M9.603.302c.22-.279.6-.378.928-.241l1.293.535c.329.136.527.474.485.827l-.18 1.543c-.03.246.06.488.235.663l.006.006c.175.175.418.266.664.237l1.543-.181c.353-.042.69.156.827.485l.535 1.293c.137.328.038.707-.241.928l-1.22.962c-.194.154-.302.39-.301.638 0 .255.107.49.302.644l1.219.962c.279.22.378.6.241.928l-.535 1.293c-.136.329-.474.527-.827.485l-1.543-.18c-.246-.03-.488.06-.663.235l-.006.006c-.175.175-.266.418-.237.664l.181 1.543c.042.353-.156.69-.485.827l-1.293.535c-.328.137-.707.038-.928-.241l-.962-1.22c-.154-.194-.39-.302-.638-.301-.255 0-.49.108-.644.302l-.962 1.219c-.22.279-.6.378-.928.241l-1.293-.535c-.329-.136-.527-.474-.485-.827l.18-1.543c.03-.246-.06-.488-.235-.663-.18-.181-.424-.272-.67-.243l-1.543.181c-.353.042-.69-.156-.827-.485l-.535-1.293c-.137-.328-.038-.707.241-.928l1.22-.963c.194-.153.302-.389.301-.637 0-.255-.108-.49-.302-.644L.302 6.397c-.279-.22-.378-.6-.241-.928l.535-1.293c.136-.329.474-.527.827-.485l1.543.18c.246.03.488-.06.663-.235.181-.18.272-.424.243-.67L3.69 1.423c-.042-.353.156-.69.485-.827L5.469.061c.328-.137.707-.038.928.241l.962 1.22c.154.194.39.302.638.301.255 0 .49-.108.644-.302L9.603.302z"/>
    </defs>
    <g fill="none" fill-rule="evenodd">
        <g>
            <g>
                <g>
                    <g>
                        <g transform="translate(-255 -557) translate(16 393) translate(239 164) translate(4 4)">
                            <mask id="sz8hvagrdb" fill="#fff">
                                <use xlink:href="#e5o6mxp9ga"/>
                            </mask>
                            <path fill="#E5004E" d="M-5.714 -5.714L21.714 -5.714 21.714 21.714 -5.714 21.714z" mask="url(#sz8hvagrdb)"/>
                        </g>
                        <path stroke="#FFF" stroke-linecap="round" stroke-linejoin="round" d="M10.69 6.4L6.797 10.292 4.8 8.295" transform="translate(-255 -557) translate(16 393) translate(239 164) translate(4 4)"/>
                    </g>
                </g>
            </g>
        </g>
    </g>
</svg>
