<svg width="80" height="80" viewBox="0 0 80 80" xmlns="http://www.w3.org/2000/svg">
    <g fill="none" fill-rule="evenodd">
        <circle stroke="#F28E88" stroke-width="3" fill="#FFF" cx="40" cy="40" r="38.5"/>
        <path d="M55.21 29.895c.597 0 1.149.172 1.61.473l.17.12.02.015-.019-.014.162.132c1.08.952.958 2.325.944 3.628v15.968c0 1.48-1.199 2.69-2.712 2.778L55.21 53H25.83c-1.535 0-2.79-1.155-2.88-2.613l-.006-.17V33.481c0-.268-.01-.538 0-.806a2.872 2.872 0 0 1 2.702-2.774l.177-.006H55.21zm-.063 2.844H51.95v17.299h3.196V32.739zm-4.794 0H30.687v17.299h19.666V32.739zm-21.14 0h-3.196v17.299h3.195V32.739zm-6.227-2.926-.013.015.002.001c-.033.028-.059.062-.09.091a3.821 3.821 0 0 0-1.036 1.76c-.005-.002-.012-.005-.017-.009l-.002.005a12.328 12.328 0 0 0-1.002-.536 11.587 11.587 0 0 0-.51-.236c-.129-.056-.256-.1-.384-.15a9.835 9.835 0 0 0-1.312-.407c-.056-.012-.112-.028-.168-.04a7.77 7.77 0 0 0-.785-.122c-.058-.006-.114-.01-.171-.014-.87-.072-1.75.008-2.607.31l.076-.027-.03.01-.058.02c-.22.08-.365.131-.455.163l-.047.017.043-.015.406-.145.042-.015c-.08.03-.151.07-.228.102l.072-.026c-.207.078-.4.169-.582.267-3.086 1.73-3.603 6.433-1.936 9.238 1.883 3.17 5.604 4.49 9.195 4.773l.326.023v2.163c-2.849-.15-5.611-.787-7.995-2.346-2.147-1.404-3.843-3.465-4.454-5.924-.627-2.523-.133-5.454 1.359-7.625 2.763-4.023 8.544-3.773 12.361-1.32zm38.781-1.547c1.492-.341 3.044-.372 4.51.011l.058.017c.22.06.441.107.656.186 2.323.85 3.858 2.8 4.555 5.053 1.129 3.655.135 7.438-2.777 10.04-2.595 2.317-5.974 3.274-9.443 3.456v-2.162a20.381 20.381 0 0 0 2.271-.271c.152-.027.298-.06.446-.09.407-.088.812-.188 1.208-.312.053-.016.105-.035.158-.052a11.584 11.584 0 0 0 2.1-.922c1.66-.953 3.094-2.345 3.804-4.101.781-1.932.564-4.213-.357-6.068-1.148-2.315-3.425-3.053-5.733-2.806-.023.003-.046.003-.068.005-.684.08-1.37.246-2.028.482l-.123.047c-.39.146-.77.316-1.135.51l-.168.091a9.156 9.156 0 0 0-.51.3l-.006-.018-.004.003c-.014-.063-.04-.122-.058-.184a3.805 3.805 0 0 0-1.068-1.668l.017-.01c-.002 0-.003-.002-.004-.003.273-.171.554-.328.839-.476.13-.069.264-.132.398-.197a11.636 11.636 0 0 1 2.451-.858c.004 0 .008-.002.011-.003zM48.878 44.943v1.185H32.285v-1.185h16.593zm-6.637-4.147 3.318.119v-.119h3.196V42.1h-1.967v-.119H32.285v-1.066h6.637v-.119h3.319zm6.637-4.147v1.185H32.285V36.65h16.593z" fill="#F28E88"/>
    </g>
</svg>
