<svg width="80" height="80" viewBox="0 0 80 80" xmlns="http://www.w3.org/2000/svg">
    <g fill="none" fill-rule="evenodd">
        <circle stroke="#F28E88" stroke-width="3" fill="#FFF" cx="40" cy="40" r="38.5"/>
        <path d="M57.654 16c.88 0 1.766.338 2.437 1.01l3.906 3.912.012.013.104.11.012.014c.583.653.876 1.477.875 2.298a3.445 3.445 0 0 1-1.009 2.44l-1.912 1.916L49.49 40.318a69.577 69.577 0 0 1-9.758 8.13l-1.976 1.36-11.795 8.126-6.784 6.725a1.16 1.16 0 0 1-1.643 0v.001l-.598-.6-.597-.597a1.164 1.164 0 0 1-.003-1.642l6.788-6.728 9.473-13.79a69.59 69.59 0 0 1 8.12-9.772l10.544-10.56 3.956-3.96A3.432 3.432 0 0 1 57.654 16zM21.23 59.026 17.62 62.64l.37.37.368.37 3.608-3.615-.737-.739zm34.262-37.4-1.978 1.62-1.222-1.222-10.544 10.56a68.042 68.042 0 0 0-7.946 9.561L24.25 56.049l-1.958 1.96.286.286.452.453 1.956-1.96 11.909-8.204 1.977-1.361a68.05 68.05 0 0 0 9.549-7.957l10.544-10.559-1.221-1.223 1.618-1.98-3.871-3.878zm-4.679 5.297a.685.685 0 0 1 .958 0l2.465 2.468a.683.683 0 0 1 0 .967L45.905 38.7c-.26.26-.69.26-.958 0l-2.465-2.469a.683.683 0 0 1 0-.966zm-4.336 5.68-2.94 2.944c-.149.142-.193.335-.097.432l1.7 1.702c.09.09.283.045.431-.096l1.01-1.011-.104-3.97z" fill="#F28E88"/>
    </g>
</svg>
