<svg width="80" height="80" viewBox="0 0 80 80" xmlns="http://www.w3.org/2000/svg">
    <g fill="none" fill-rule="evenodd">
        <circle stroke="#F28E88" stroke-width="3" fill="#FFF" cx="40" cy="40" r="38.5"/>
        <path d="M47.515 30.065c.037.42.082.84.136 1.26l.087.63h-6.699V56.43h9.647l-.025.318c-.056.74-.096 1.38-.126 1.875l-.013.203-.006.173H29.478l-.007-.173a92.22 92.22 0 0 0-.144-2.149l-.027-.334h.012v.086l.77.001h9.027V31.954h-6.97c.006-.038.01-.08.017-.12.06-.393.111-.789.154-1.182l.058-.587h15.147zm6.818 16.457c.063.013.126.013.188.013h4.405v12.39H52.44v-.076h.048v-.008c.007-.104.064-1.071.194-2.484.25-2.714.759-7.038 1.65-9.835zm-28.568 0c.895 2.812 1.406 7.158 1.659 9.886.131 1.427.19 2.414.195 2.509v.007h-6.47v-12.39h4.383c.081 0 .157-.005.233-.012zm-.258-3.538a.407.407 0 0 1 .384.33l.008.082v.844a.42.42 0 0 1-.032.16.39.39 0 0 1-.283.238l-.077.008H21v-1.662h4.507zm33.493 0v1.662h-.094l-2.528-.075h-1.89a.36.36 0 0 1-.334-.2.378.378 0 0 1-.052-.186v-.79c0-.226.176-.405.385-.41H59zM30.53 21.076s.094.989.145 2.518c.05 1.69.057 4.042-.177 6.426a28.17 28.17 0 0 1-.252 1.927c-.247 1.587-.632 3.11-1.193 4.401-.625 1.427-1.705 3.303-2.645 4.852a2.169 2.169 0 0 0-.688-.173l-.183-.007h-4.387V21.076h9.38zm28.397 0V41.02h-4.432c-.296 0-.574.058-.833.167-.94-1.548-2.02-3.412-2.638-4.838-.562-1.292-.948-2.815-1.193-4.402a28.134 28.134 0 0 1-.253-1.927c-.234-2.384-.227-4.736-.177-6.426.048-1.452.136-2.418.145-2.511v-.008h9.38zm-11.296-.002-.003.037c-.032.38-.09 1.152-.126 2.192l-.009.266H32.565a46.234 46.234 0 0 0-.14-2.42l-.007-.074H47.63z" fill="#F28E88"/>
    </g>
</svg>
