<svg width="80" height="80" viewBox="0 0 80 80" xmlns="http://www.w3.org/2000/svg">
    <g fill="none" fill-rule="evenodd">
        <circle stroke="#F28E88" stroke-width="3" fill="#FFF" cx="40" cy="40" r="38.5"/>
        <path d="M42.984 16a4.608 4.608 0 0 1 4.605 4.6 4.607 4.607 0 0 1-4.504 4.6v.334c0 .208.17.377.378.377h1.182c.21 0 .379.168.379.376v.908h.37c1.934 0 3.507 1.599 3.507 3.562v.112c.094.064.19.145.285.215l.037.028c.844.622 1.706 1.45 2.475 2.502l.063.083c.173.242.337.498.498.762.07.117.142.232.21.354a12.027 12.027 0 0 1 .999 2.338 13.04 13.04 0 0 1 .374 1.5c.037.193.088.374.118.576C54.807 44.988 55 55.48 55 56.866c0 2.063-.72 3.618-2.138 4.623-1.24.879-2.746 1.112-4.19 1.232-2.504.207-7.906.275-8.136.277L40.5 63l-.036-.002c-.143-.001-2.307-.028-4.522-.099l-.531-.017c-1.15-.04-2.27-.094-3.084-.161-1.443-.12-2.95-.353-4.189-1.232C26.72 60.484 26 58.93 26 56.866v-.175c.01-1.274.104-6.06.403-10.765l.05-.762c.147-2.153.34-4.248.587-5.937.433-2.941 1.746-5.482 3.796-7.348a12.73 12.73 0 0 1 1.262-.992v-.194c0-1.923 1.584-3.498 3.52-3.498h.358v-.908c0-.208.17-.376.379-.376h1.181c.21 0 .379-.169.379-.377v-.333a4.61 4.61 0 0 1-4.426-3.751 7.198 7.198 0 0 0-1.934-.243c-.861 0-1.628.121-2.117.225-.1.02-.203.03-.305.03-.657 0-1.227-.42-1.423-1.047-.123-.4-.074-.833.138-1.195.211-.358.566-.615.975-.701a13.285 13.285 0 0 1 2.725-.291c.844 0 1.638.085 2.376.26A4.614 4.614 0 0 1 38.015 16zm2.456 14.132h-9.788a.505.505 0 0 0-.507.503v1.953s-4.285 1.51-5.096 7.017c-.293 1.993-.507 4.627-.66 7.238l-.041.745c-.236 4.334-.308 8.43-.308 9.22 0 2.2 1.143 2.671 3.575 2.873.81.067 1.961.119 3.136.158l.504.017c2.015.061 3.966.088 4.255.091h.073c.288-.003 2.24-.03 4.254-.091l.505-.017a71.075 71.075 0 0 0 3.137-.158c2.43-.202 3.573-.673 3.573-2.872 0-.79-.072-4.887-.308-9.221l-.042-.745c-.152-2.611-.366-5.245-.659-7.238-.81-5.506-5.096-7.017-5.096-7.017v-1.953a.505.505 0 0 0-.507-.503zM40.53 39.26c4.012 0 7.262 3.065 7.262 6.846 0 3.782-3.25 6.847-7.262 6.847-4.011 0-7.262-3.065-7.262-6.847 0-3.781 3.25-6.846 7.262-6.846zm4.25 6.838h-8.5c0 2.125 1.907 3.853 4.25 3.853 2.345 0 4.25-1.728 4.25-3.853zm-4.25-3.818c-1.419 0-2.677.635-3.449 1.606l2.662.01h4.231a3.895 3.895 0 0 0-.478-.511 4.455 4.455 0 0 0-2.966-1.105zm2.495-23.253h-4.982c-.084 0-.166.006-.246.018-.052.008-.104.02-.156.034-.026.006-.052.014-.078.022-.05.016-.1.034-.148.053a1.672 1.672 0 0 0-.274.147c-.042.03-.084.06-.124.094-.04.032-.08.068-.116.103-.036.034-.068.072-.1.11-.033.036-.06.075-.09.115a1.547 1.547 0 0 0-.208.426.34.34 0 0 0-.018.064.561.561 0 0 0-.024.097c-.003.004-.003.008-.003.012a1.145 1.145 0 0 0-.023.147c0 .006 0 .01-.003.016l-.002.051c-.003.033-.003.064-.003.096 0 .062.003.121.01.18a1.832 1.832 0 0 0 .118.445c.014.035.032.07.05.103.004.012.012.024.018.036.018.033.038.07.06.1a1.652 1.652 0 0 0 .663.583 1.766 1.766 0 0 0 .248.096c.041.012.083.022.125.03a1.498 1.498 0 0 0 .324.034h4.983c.138 0 .273-.018.402-.052l.078-.021c.05-.017.1-.035.148-.054.048-.02.093-.044.14-.068a1.627 1.627 0 0 0 .652-.648c.024-.046.048-.092.068-.14.02-.047.038-.097.054-.146l.022-.078c.034-.127.052-.263.052-.4 0-.883-.728-1.605-1.617-1.605z" fill="#F28E88"/>
    </g>
</svg>
