<svg width="88" height="94" viewBox="0 0 88 94" xmlns="http://www.w3.org/2000/svg" xmlns:xlink="http://www.w3.org/1999/xlink">
    <defs>
        <path id="dtzfybrhca" d="M0 0h7.2v12H0z"/>
        <path id="41gurgj79c" d="M0 0h7.2v12H0z"/>
    </defs>
    <g fill="none" fill-rule="evenodd">
        <path fill="#F28E88" d="M0 0h88L0 94z"/>
        <g transform="translate(16 16)">
            <mask id="v53cil864b" fill="#fff">
                <use xlink:href="#dtzfybrhca"/>
            </mask>
            <path d="M5.596 2.966c-.436-.797-.941-1.254-1.9-1.254-.976 0-1.43.542-1.43 1.525 0 1.119.628 1.56 1.935 1.915C6.26 5.712 7.2 6.627 7.2 8.644 7.2 10.39 6.12 12 3.783 12 2.074 12 .854 11.39 0 10.085l1.552-1.051c.575.83 1.08 1.254 2.11 1.254 1.167 0 1.516-.712 1.516-1.56 0-.931-.384-1.508-1.988-1.948C1.29 6.254.244 5.22.244 3.237.244 1.475 1.29 0 3.644 0c1.569 0 2.72.61 3.452 1.915l-1.5 1.05z" fill="#FFF" mask="url(#v53cil864b)"/>
        </g>
        <path fill="#FFF" d="M33.6 16v1.757h-2.62V28h-1.96V17.757H26.4V16zM44.8 16v1.757h-4.285v3.165h3.83v1.739h-3.83v3.6H44.8V28h-6.4V16z"/>
        <g transform="translate(48.8 16)">
            <mask id="0zc0ejctod" fill="#fff">
                <use xlink:href="#41gurgj79c"/>
            </mask>
            <path d="M3.627 5.6C5.049 5.6 5.6 4.91 5.6 3.583c0-1.26-.551-1.983-1.973-1.983H2.4v4h1.227zm-1.6 2.017V12H0V0h3.513C5.784 0 7.2 1.322 7.2 3.791c0 2.47-1.398 3.826-3.687 3.826H2.027z" fill="#FFF" mask="url(#0zc0ejctod)"/>
        </g>
        <path d="M42.886 64H27.335v-3.566l8.47-12.09c1.569-2.306 2.241-4.22 2.241-6.307 0-2.74-1.39-4.131-3.048-4.131-1.792 0-2.957 1.435-3.092 4.131H27.2c0-5.088 3.675-8.437 8.023-8.437 4.526 0 7.977 3.479 7.977 8.524 0 3.784-2.106 6.915-3.63 9.133l-5.826 8.394h9.142V64z" fill="#FFF"/>
        <path d="M42.886 64H27.335v-3.566l8.47-12.09c1.569-2.306 2.241-4.22 2.241-6.307 0-2.74-1.39-4.131-3.048-4.131-1.792 0-2.957 1.435-3.092 4.131H27.2c0-5.088 3.675-8.437 8.023-8.437 4.526 0 7.977 3.479 7.977 8.524 0 3.784-2.106 6.915-3.63 9.133l-5.826 8.394h9.142V64z" stroke="#F28E88" stroke-width="1.2"/>
    </g>
</svg>
