<svg width="88" height="94" viewBox="0 0 88 94" xmlns="http://www.w3.org/2000/svg" xmlns:xlink="http://www.w3.org/1999/xlink">
    <defs>
        <path id="gayc2rrpda" d="M0 0h7.227v12.363H0z"/>
        <path id="hs56o8dpfc" d="M0 0h7.21v12.049H0z"/>
    </defs>
    <g fill="none" fill-rule="evenodd">
        <path fill="#F28E88" d="M0 0h88L0 94z"/>
        <g transform="translate(16 16)">
            <mask id="rswikk44nb" fill="#fff">
                <use xlink:href="#gayc2rrpda"/>
            </mask>
            <path d="M5.617 3.056c-.437-.82-.945-1.293-1.907-1.293-.98 0-1.435.559-1.435 1.572 0 1.152.63 1.607 1.942 1.973 2.065.576 3.01 1.52 3.01 3.597 0 1.799-1.085 3.458-3.43 3.458-1.715 0-2.94-.629-3.797-1.973l1.558-1.083c.577.856 1.084 1.292 2.117 1.292 1.172 0 1.522-.733 1.522-1.606 0-.96-.385-1.554-1.995-2.008C1.295 6.443.245 5.378.245 3.335.245 1.519 1.295 0 3.657 0c1.575 0 2.73.628 3.465 1.973L5.617 3.056z" fill="#FFF" mask="url(#rswikk44nb)"/>
        </g>
        <path fill="#FFF" d="M34.18 16.157v1.764h-2.712v10.285h-2.03V17.92h-2.712v-1.764zM44.347 16.157v1.764h-4.112v3.178h3.674v1.746h-3.674v3.615h4.112v1.746h-6.142v-12.05z"/>
        <g transform="translate(48.79 16.157)">
            <mask id="5ee92rz9qd" fill="#fff">
                <use xlink:href="#hs56o8dpfc"/>
            </mask>
            <path d="M3.238 5.902c1.4 0 1.942-.716 1.942-2.095 0-1.31-.543-2.06-1.942-2.06H2.03v4.155h1.208zM2.03 7.648v4.401H0V0h3.517C5.792 0 7.21 1.327 7.21 3.807s-1.4 3.841-3.693 3.841H2.03z" fill="#FFF" mask="url(#5ee92rz9qd)"/>
        </g>
        <path fill="#FFF" d="M38.782 64h-5.03V39.382l-3.5 2.925v-5.108l3.98-3.317h4.55z"/>
        <path stroke="#F28E88" stroke-width="1.2" d="M38.782 64h-5.03V39.382l-3.5 2.925v-5.108l3.98-3.317h4.55z"/>
    </g>
</svg>
