<svg width="88" height="94" viewBox="0 0 88 94" xmlns="http://www.w3.org/2000/svg" xmlns:xlink="http://www.w3.org/1999/xlink">
    <defs>
        <path id="b5snv6m8ba" d="M0 0h7.227v12.262H0z"/>
        <path id="snjnu1wyvc" d="M0 0h7.21v11.951H0z"/>
    </defs>
    <g fill="none" fill-rule="evenodd">
        <path fill="#F28E88" d="M0 0h88L0 94z"/>
        <g transform="translate(16 16)">
            <mask id="hhynluelyb" fill="#fff">
                <use xlink:href="#b5snv6m8ba"/>
            </mask>
            <path d="M5.617 3.03c-.437-.813-.945-1.28-1.907-1.28-.98 0-1.435.553-1.435 1.558 0 1.143.63 1.593 1.942 1.957 2.065.572 3.01 1.507 3.01 3.568 0 1.784-1.085 3.43-3.43 3.43-1.715 0-2.94-.624-3.797-1.958l1.558-1.074c.577.849 1.084 1.282 2.117 1.282 1.172 0 1.522-.727 1.522-1.593 0-.953-.385-1.542-1.995-1.992C1.295 6.391.245 5.334.245 3.308.245 1.507 1.295 0 3.657 0c1.575 0 2.73.623 3.465 1.957L5.617 3.03z" fill="#FFF" mask="url(#hhynluelyb)"/>
        </g>
        <path fill="#FFF" d="M34.18 16.156v1.749h-2.712v10.202h-2.03V17.905h-2.712v-1.75zM44.347 16.156v1.749h-4.112v3.152h3.674v1.732h-3.674v3.586h4.112v1.732h-6.142V16.156z"/>
        <g transform="translate(48.79 16.156)">
            <mask id="e7tmwsvkmd" fill="#fff">
                <use xlink:href="#snjnu1wyvc"/>
            </mask>
            <path d="M3.238 5.854c1.4 0 1.942-.71 1.942-2.078 0-1.3-.543-2.044-1.942-2.044H2.03v4.122h1.208zM2.03 7.586v4.365H0V0h3.517C5.792 0 7.21 1.316 7.21 3.776s-1.4 3.81-3.693 3.81H2.03z" fill="#FFF" mask="url(#e7tmwsvkmd)"/>
        </g>
        <path d="M33.183 46.033h1.793c2.143 0 3.368-1.645 3.368-4.46 0-2.208-1.137-3.94-2.974-3.94-1.75 0-2.669 1.602-2.887 3.68H27.89c.175-4.805 3.5-7.965 7.699-7.965 4.505 0 7.786 3.593 7.786 8.095 0 3.248-1.662 5.5-3.368 6.668 2.143 1.212 3.761 3.55 3.761 7.23 0 4.72-2.799 8.659-7.873 8.659-5.206 0-8.137-3.464-8.355-8.183h4.593c.262 2.165 1.225 3.81 3.456 3.81 2.012 0 3.15-1.861 3.15-4.416 0-3.03-1.182-4.849-3.763-4.849h-1.793v-4.33z" fill="#FFF"/>
        <path d="M33.183 46.033h1.793c2.143 0 3.368-1.645 3.368-4.46 0-2.208-1.137-3.94-2.974-3.94-1.75 0-2.669 1.602-2.887 3.68H27.89c.175-4.805 3.5-7.965 7.699-7.965 4.505 0 7.786 3.593 7.786 8.095 0 3.248-1.662 5.5-3.368 6.668 2.143 1.212 3.761 3.55 3.761 7.23 0 4.72-2.799 8.659-7.873 8.659-5.206 0-8.137-3.464-8.355-8.183h4.593c.262 2.165 1.225 3.81 3.456 3.81 2.012 0 3.15-1.861 3.15-4.416 0-3.03-1.182-4.849-3.763-4.849h-1.793v-4.33z" stroke="#F28E88" stroke-width="1.2"/>
    </g>
</svg>
