<svg width="60" height="60" viewBox="0 0 60 60" xmlns="http://www.w3.org/2000/svg">
    <defs>
        <linearGradient x1="100%" y1="0%" x2="0%" y2="100%" id="q01aoc3zia">
            <stop stop-color="#E75483" offset="0%"/>
            <stop stop-color="#FBDC9F" offset="100%"/>
        </linearGradient>
    </defs>
    <g fill="none" fill-rule="evenodd">
        <circle stroke="url(#q01aoc3zia)" stroke-width="2" fill="#FFF" cx="30" cy="30" r="29"/>
        <path d="M20.155 20.011c1.683 0 2.53-1.122 2.53-2.156 0-.748-.429-1.54-1.43-2.09-.473-.264-1.254-.616-1.749-.88-.594-.319-.869-.803-.869-1.254 0-.649.539-1.232 1.441-1.232.792 0 1.287.319 1.562.715.088.132.198.187.308.187.176 0 .33-.165.33-.352 0-.352-.814-1.133-2.189-1.133s-2.123.891-2.123 1.837c0 .682.396 1.386 1.21 1.793.594.297 1.199.594 1.76.913.715.407 1.034.979 1.034 1.507 0 .825-.748 1.496-1.804 1.496-.891 0-1.573-.374-1.892-.957a.327.327 0 0 0-.297-.176c-.187 0-.363.143-.363.341 0 .308.759 1.441 2.541 1.441zm6.424-.066c.198 0 .385-.121.385-.352v-.011c-.01-.986-.04-2.824-.044-4.46v-.347c0-.781.011-1.496.022-2.024 0-.143.077-.165.176-.165.165-.011.572-.022 1.1-.022.341 0 .737.011 1.144.022h.011c.209 0 .319-.154.319-.319a.315.315 0 0 0-.33-.319h-.011c-.567.01-1.369.02-2.204.022h-.891c-.954-.004-1.857-.013-2.416-.022h-.011c-.231 0-.352.154-.352.319 0 .154.121.319.363.319.528 0 1.144-.022 1.617-.022.737 0 .759.033.759.187.011.517.022 1.32.022 2.2 0 1.683-.022 3.663-.044 4.631v.011c0 .231.187.352.385.352zm8.954-.033c.264-.011.385-.176.385-.33 0-.154-.121-.297-.341-.297h-.033c-.119.007-.388.01-.718.01h-1.411a17.803 17.803 0 0 1-.698-.01c-.583-.044-.814-.286-.858-.704-.023-.185-.03-.494-.032-1.243l-.001-.987v-.245c0-.189.008-.216.87-.22h.505c.572 0 1.188 0 1.529.022h.022c.242 0 .374-.176.374-.341 0-.077-.033-.33-.374-.319-.122.006-.353.009-.63.01H32.68a17.077 17.077 0 0 1-.624-.01c-.11 0-.22 0-.22-.209.011-.649 0-1.573.022-1.837.055-.671.407-.671 1.518-.671.781 0 1.826.011 1.881.011.242 0 .374-.154.374-.308s-.121-.308-.352-.319a32.522 32.522 0 0 0-1.375-.022c-.605 0-1.221.011-1.43.022-.814.044-1.254.473-1.276 1.188-.022.693-.033 2.145-.033 3.454V17.391c.002.526.007.981.022 1.289.033.715.506 1.155 1.474 1.232.083.006.339.01.664.01h1.54c.328 0 .584-.004.667-.01zm2.189.011c.187 0 .363-.11.363-.363v-.297c0-.825-.033-1.903-.033-2.651 0-.121.011-.165.066-.165.033 0 .055.011.099.022.319.077.693.11 1.089.11a5.8 5.8 0 0 0 .748-.044c1.43-.165 2.156-1.254 2.156-2.343 0-1.1-.759-2.2-2.31-2.31a8.586 8.586 0 0 0-.572-.022c-.781 0-1.903.011-1.936 1.221-.011.242-.011.55-.011.913 0 .726.011 1.661.011 2.651 0 .979-.011 2.013-.044 2.937v.011c0 .209.187.33.374.33zm1.529-3.971c-1.034 0-1.199-.143-1.199-.352v-1.112l.001-.153.001-.269c.002-.487.005-.688.007-.78v-.037l.001-.013.001-.027v-.007c.055-.671.539-.715 1.166-.715.22 0 .451 0 .594.011 1.155.066 1.694.869 1.694 1.672 0 .814-.55 1.639-1.584 1.749a6.746 6.746 0 0 1-.682.033zM29.51 47.14c3.864 0 6.692-2.66 6.692-6.272 0-2.632-1.4-4.76-4.172-5.46 2.044-.672 3.08-2.464 3.08-4.284 0-2.94-2.212-4.816-5.264-4.816-3.444 0-5.236 2.324-5.236 2.94 0 .476.448.868.868.868a.719.719 0 0 0 .644-.336c.336-.476 1.4-1.932 3.696-1.932 3.136 0 3.556 2.408 3.556 3.248 0 2.016-1.288 3.556-3.416 3.612H28.95c-.504 0-.756.392-.756.812 0 .42.252.84.812.84h.728c2.576 0 4.648 1.316 4.648 4.48 0 2.604-2.016 4.62-4.732 4.62-2.072 0-3.584-.728-4.732-2.492a.803.803 0 0 0-.7-.392c-.448 0-.924.392-.924.924 0 .756 1.876 3.64 6.216 3.64z" fill="#000" fill-rule="nonzero"/>
    </g>
</svg>
